<ttFont>
    <TTGlyph name=".notdef" xMin="0" yMin="0" xMax="500" yMax="700">
      <contour>
        <pt x="0" y="700" on="1"/>
        <pt x="500" y="700" on="1"/>
        <pt x="500" y="0" on="1"/>
        <pt x="0" y="0" on="1"/>
      </contour>
      <contour>
        <pt x="50" y="650" on="1"/>
        <pt x="50" y="50" on="1"/>
        <pt x="450" y="50" on="1"/>
        <pt x="450" y="650" on="1"/>
      </contour>
      <contour>
        <pt x="229" y="278" on="1"/>
        <pt x="229" y="307" on="0"/>
        <pt x="256" y="345" on="0"/>
        <pt x="283" y="367" on="1"/>
        <pt x="311" y="390" on="0"/>
        <pt x="339" y="431" on="0"/>
        <pt x="339" y="465" on="1"/>
        <pt x="339" y="496" on="0"/>
        <pt x="301" y="552" on="0"/>
        <pt x="250" y="552" on="1"/>
        <pt x="192" y="552" on="0"/>
        <pt x="152" y="485" on="0"/>
        <pt x="152" y="452" on="1"/>
        <pt x="152" y="424" on="1"/>
        <pt x="103" y="424" on="1"/>
        <pt x="99" y="440" on="0"/>
        <pt x="99" y="455" on="1"/>
        <pt x="99" y="478" on="0"/>
        <pt x="120" y="544" on="0"/>
        <pt x="187" y="602" on="0"/>
        <pt x="250" y="602" on="1"/>
        <pt x="313" y="602" on="0"/>
        <pt x="376" y="546" on="0"/>
        <pt x="393" y="486" on="0"/>
        <pt x="393" y="467" on="1"/>
        <pt x="393" y="422" on="0"/>
        <pt x="356" y="364" on="0"/>
        <pt x="326" y="338" on="1"/>
        <pt x="304" y="320" on="0"/>
        <pt x="282" y="290" on="0"/>
        <pt x="282" y="268" on="1"/>
        <pt x="282" y="215" on="1"/>
        <pt x="229" y="215" on="1"/>
      </contour>
      <contour>
        <pt x="225" y="169" on="1"/>
        <pt x="285" y="169" on="1"/>
        <pt x="285" y="99" on="1"/>
        <pt x="225" y="99" on="1"/>
      </contour>
    </TTGlyph>
    <TTGlyph name=".ttfautohint" xMin="0" yMin="0" xMax="0" yMax="0">
      <contour>
        <pt x="0" y="0" on="1"/>
      </contour>
    </TTGlyph>
    <TTGlyph name="A" xMin="15" yMin="0" xMax="580" yMax="688">
      <contour>
        <pt x="412" y="159" on="1"/>
        <pt x="179" y="159" on="1"/>
        <pt x="136" y="0" on="1"/>
        <pt x="15" y="0" on="1"/>
        <pt x="215" y="688" on="1"/>
        <pt x="380" y="688" on="1"/>
        <pt x="580" y="0" on="1"/>
        <pt x="456" y="0" on="1"/>
      </contour>
      <contour>
        <pt x="293" y="573" on="1"/>
        <pt x="208" y="263" on="1"/>
        <pt x="382" y="263" on="1"/>
        <pt x="298" y="573" on="1"/>
      </contour>
    </TTGlyph>
    <TTGlyph name="A.ss01" xMin="69" yMin="0" xMax="542" yMax="696">
      <contour>
        <pt x="422" y="213" on="1"/>
        <pt x="189" y="213" on="1"/>
        <pt x="189" y="0" on="1"/>
        <pt x="69" y="0" on="1"/>
        <pt x="69" y="384" on="1"/>
        <pt x="69" y="519" on="0"/>
        <pt x="100" y="644" on="0"/>
        <pt x="197" y="696" on="0"/>
        <pt x="305" y="696" on="1"/>
        <pt x="413" y="696" on="0"/>
        <pt x="511" y="644" on="0"/>
        <pt x="542" y="519" on="0"/>
        <pt x="542" y="384" on="1"/>
        <pt x="542" y="0" on="1"/>
        <pt x="422" y="0" on="1"/>
      </contour>
      <contour>
        <pt x="422" y="504" on="0"/>
        <pt x="409" y="569" on="0"/>
        <pt x="363" y="592" on="0"/>
        <pt x="305" y="592" on="1"/>
        <pt x="247" y="592" on="0"/>
        <pt x="201" y="569" on="0"/>
        <pt x="189" y="505" on="0"/>
        <pt x="189" y="423" on="1"/>
        <pt x="189" y="321" on="1"/>
        <pt x="422" y="321" on="1"/>
        <pt x="422" y="423" on="1"/>
      </contour>
    </TTGlyph>
    <TTGlyph name="AE" xMin="-11" yMin="0" xMax="779" yMax="688">
      <contour>
        <pt x="400" y="159" on="1"/>
        <pt x="168" y="159" on="1"/>
        <pt x="108" y="0" on="1"/>
        <pt x="-11" y="0" on="1"/>
        <pt x="255" y="688" on="1"/>
        <pt x="779" y="688" on="1"/>
        <pt x="779" y="584" on="1"/>
        <pt x="442" y="584" on="1"/>
        <pt x="476" y="399" on="1"/>
        <pt x="740" y="399" on="1"/>
        <pt x="740" y="295" on="1"/>
        <pt x="496" y="295" on="1"/>
        <pt x="532" y="104" on="1"/>
        <pt x="779" y="104" on="1"/>
        <pt x="779" y="0" on="1"/>
        <pt x="428" y="0" on="1"/>
      </contour>
      <contour>
        <pt x="321" y="573" on="1"/>
        <pt x="207" y="263" on="1"/>
        <pt x="381" y="263" on="1"/>
        <pt x="326" y="573" on="1"/>
      </contour>
    </TTGlyph>
    <TTGlyph name="AEacute" xMin="-11" yMin="0" xMax="779" yMax="888">
      <component glyphName=".ttfautohint" x="0" y="0" flags="0x0"/>
      <component glyphName="AE" x="0" y="0" flags="0x0"/>
      <component glyphName="acutecomb.case" x="567" y="0" flags="0x0"/>
    </TTGlyph>
    <TTGlyph name="Aacute" xMin="15" yMin="0" xMax="580" yMax="894">
      <component glyphName=".ttfautohint" x="15" y="0" flags="0x0"/>
      <component glyphName="A" x="0" y="0" flags="0x0"/>
      <component glyphName="acute" x="219" y="151" flags="0x4"/>
    </TTGlyph>
    <TTGlyph name="Aacute.ss01" xMin="69" yMin="0" xMax="542" yMax="893">
      <component glyphName=".ttfautohint" x="69" y="0" flags="0x0"/>
      <component glyphName="A.ss01" x="0" y="0" flags="0x0"/>
      <component glyphName="acute" x="243" y="150" flags="0x4"/>
    </TTGlyph>
    <TTGlyph name="Abreve" xMin="15" yMin="0" xMax="580" yMax="888">
      <component glyphName=".ttfautohint" x="15" y="0" flags="0x0"/>
      <component glyphName="A" x="0" y="0" flags="0x0"/>
      <component glyphName="uni0306.case" x="446" y="0" flags="0x0"/>
    </TTGlyph>
    <TTGlyph name="Abreve.ss01" xMin="69" yMin="0" xMax="542" yMax="888">
      <component glyphName=".ttfautohint" x="69" y="0" flags="0x0"/>
      <component glyphName="A.ss01" x="0" y="0" flags="0x0"/>
      <component glyphName="uni0306.case" x="454" y="0" flags="0x0"/>
    </TTGlyph>
    <TTGlyph name="Acircumflex" xMin="15" yMin="0" xMax="580" yMax="889">
      <component glyphName=".ttfautohint" x="15" y="0" flags="0x0"/>
      <component glyphName="A" x="0" y="0" flags="0x0"/>
      <component glyphName="circumflex" x="140" y="146" flags="0x4"/>
    </TTGlyph>
    <TTGlyph name="Acircumflex.ss01" xMin="69" yMin="0" xMax="542" yMax="889">
      <component glyphName=".ttfautohint" x="69" y="0" flags="0x0"/>
      <component glyphName="A.ss01" x="0" y="0" flags="0x0"/>
      <component glyphName="circumflex" x="149" y="146" flags="0x4"/>
    </TTGlyph>
    <TTGlyph name="Adieresis" xMin="15" yMin="0" xMax="580" yMax="875">
      <component glyphName=".ttfautohint" x="15" y="0" flags="0x0"/>
      <component glyphName="A" x="0" y="0" flags="0x0"/>
      <component glyphName="dieresis" x="138" y="145" flags="0x4"/>
    </TTGlyph>
    <TTGlyph name="Adieresis.ss01" xMin="69" yMin="0" xMax="542" yMax="872">
      <component glyphName=".ttfautohint" x="69" y="0" flags="0x0"/>
      <component glyphName="A.ss01" x="0" y="0" flags="0x0"/>
      <component glyphName="dieresis" x="150" y="142" flags="0x4"/>
    </TTGlyph>
    <TTGlyph name="Agrave" xMin="15" yMin="0" xMax="580" yMax="894">
      <component glyphName=".ttfautohint" x="15" y="0" flags="0x0"/>
      <component glyphName="A" x="0" y="0" flags="0x0"/>
      <component glyphName="grave" x="157" y="151" flags="0x4"/>
    </TTGlyph>
    <TTGlyph name="Agrave.ss01" xMin="69" yMin="0" xMax="542" yMax="893">
      <component glyphName=".ttfautohint" x="69" y="0" flags="0x0"/>
      <component glyphName="A.ss01" x="0" y="0" flags="0x0"/>
      <component glyphName="grave" x="154" y="150" flags="0x4"/>
    </TTGlyph>
    <TTGlyph name="Amacron" xMin="15" yMin="0" xMax="580" yMax="888">
      <component glyphName=".ttfautohint" x="15" y="0" flags="0x0"/>
      <component glyphName="A" x="0" y="0" flags="0x0"/>
      <component glyphName="uni0304.case" x="467" y="0" flags="0x0"/>
    </TTGlyph>
    <TTGlyph name="Amacron.ss01" xMin="69" yMin="0" xMax="542" yMax="888">
      <component glyphName=".ttfautohint" x="69" y="0" flags="0x0"/>
      <component glyphName="A.ss01" x="0" y="0" flags="0x0"/>
      <component glyphName="uni0304.case" x="475" y="0" flags="0x0"/>
    </TTGlyph>
    <TTGlyph name="Aogonek" xMin="15" yMin="-196" xMax="580" yMax="688">
      <contour>
        <pt x="493" y="-128" on="0"/>
        <pt x="538" y="-128" on="1"/>
        <pt x="549" y="-128" on="0"/>
        <pt x="553" y="-127" on="1"/>
        <pt x="553" y="-193" on="1"/>
        <pt x="521" y="-196" on="0"/>
        <pt x="503" y="-196" on="1"/>
        <pt x="399" y="-196" on="0"/>
        <pt x="399" y="-115" on="1"/>
        <pt x="399" y="-87" on="0"/>
        <pt x="430" y="-26" on="0"/>
        <pt x="456" y="2" on="1"/>
        <pt x="412" y="159" on="1"/>
        <pt x="179" y="159" on="1"/>
        <pt x="136" y="0" on="1"/>
        <pt x="15" y="0" on="1"/>
        <pt x="215" y="688" on="1"/>
        <pt x="380" y="688" on="1"/>
        <pt x="580" y="0" on="1"/>
        <pt x="547" y="0" on="1"/>
        <pt x="526" y="-18" on="0"/>
        <pt x="493" y="-70" on="0"/>
        <pt x="493" y="-91" on="1"/>
      </contour>
      <contour>
        <pt x="382" y="263" on="1"/>
        <pt x="298" y="573" on="1"/>
        <pt x="293" y="573" on="1"/>
        <pt x="208" y="263" on="1"/>
      </contour>
    </TTGlyph>
    <TTGlyph name="Aogonek.ss01" xMin="69" yMin="-196" xMax="542" yMax="696">
      <contour>
        <pt x="492" y="-18" on="0"/>
        <pt x="459" y="-70" on="0"/>
        <pt x="459" y="-91" on="1"/>
        <pt x="459" y="-109" on="0"/>
        <pt x="479" y="-128" on="0"/>
        <pt x="503" y="-128" on="1"/>
        <pt x="514" y="-128" on="0"/>
        <pt x="519" y="-127" on="1"/>
        <pt x="519" y="-193" on="1"/>
        <pt x="494" y="-196" on="0"/>
        <pt x="469" y="-196" on="1"/>
        <pt x="365" y="-196" on="0"/>
        <pt x="365" y="-115" on="1"/>
        <pt x="365" y="-87" on="0"/>
        <pt x="396" y="-26" on="0"/>
        <pt x="422" y="1" on="1"/>
        <pt x="422" y="213" on="1"/>
        <pt x="189" y="213" on="1"/>
        <pt x="189" y="0" on="1"/>
        <pt x="69" y="0" on="1"/>
        <pt x="69" y="384" on="1"/>
        <pt x="69" y="519" on="0"/>
        <pt x="100" y="644" on="0"/>
        <pt x="197" y="696" on="0"/>
        <pt x="305" y="696" on="1"/>
        <pt x="413" y="696" on="0"/>
        <pt x="511" y="644" on="0"/>
        <pt x="542" y="519" on="0"/>
        <pt x="542" y="384" on="1"/>
        <pt x="542" y="0" on="1"/>
        <pt x="513" y="0" on="1"/>
      </contour>
      <contour>
        <pt x="422" y="321" on="1"/>
        <pt x="422" y="423" on="1"/>
        <pt x="422" y="504" on="0"/>
        <pt x="409" y="569" on="0"/>
        <pt x="363" y="592" on="0"/>
        <pt x="305" y="592" on="1"/>
        <pt x="247" y="592" on="0"/>
        <pt x="201" y="569" on="0"/>
        <pt x="189" y="505" on="0"/>
        <pt x="189" y="423" on="1"/>
        <pt x="189" y="321" on="1"/>
      </contour>
    </TTGlyph>
    <TTGlyph name="Aring" xMin="15" yMin="0" xMax="580" yMax="898">
      <contour>
        <pt x="580" y="0" on="1"/>
        <pt x="456" y="0" on="1"/>
        <pt x="412" y="159" on="1"/>
        <pt x="179" y="159" on="1"/>
        <pt x="136" y="0" on="1"/>
        <pt x="15" y="0" on="1"/>
        <pt x="214" y="686" on="1"/>
        <pt x="184" y="696" on="0"/>
        <pt x="168" y="740" on="0"/>
        <pt x="168" y="787" on="1"/>
        <pt x="168" y="831" on="0"/>
        <pt x="182" y="875" on="0"/>
        <pt x="236" y="898" on="0"/>
        <pt x="296" y="898" on="1"/>
        <pt x="357" y="898" on="0"/>
        <pt x="412" y="875" on="0"/>
        <pt x="427" y="831" on="0"/>
        <pt x="427" y="787" on="1"/>
        <pt x="427" y="741" on="0"/>
        <pt x="410" y="697" on="0"/>
        <pt x="380" y="687" on="1"/>
      </contour>
      <contour>
        <pt x="267" y="842" on="0"/>
        <pt x="243" y="833" on="0"/>
        <pt x="237" y="812" on="0"/>
        <pt x="237" y="787" on="1"/>
        <pt x="237" y="763" on="0"/>
        <pt x="243" y="742" on="0"/>
        <pt x="267" y="733" on="0"/>
        <pt x="296" y="733" on="1"/>
        <pt x="326" y="733" on="0"/>
        <pt x="351" y="742" on="0"/>
        <pt x="357" y="762" on="0"/>
        <pt x="357" y="787" on="1"/>
        <pt x="357" y="812" on="0"/>
        <pt x="351" y="833" on="0"/>
        <pt x="326" y="842" on="0"/>
        <pt x="296" y="842" on="1"/>
      </contour>
      <contour>
        <pt x="382" y="263" on="1"/>
        <pt x="298" y="573" on="1"/>
        <pt x="293" y="573" on="1"/>
        <pt x="208" y="263" on="1"/>
      </contour>
    </TTGlyph>
    <TTGlyph name="Aring.ss01" xMin="69" yMin="0" xMax="542" yMax="953">
      <component glyphName=".ttfautohint" x="69" y="0" flags="0x0"/>
      <component glyphName="A.ss01" x="0" y="0" flags="0x0"/>
      <component glyphName="ring" x="166" y="131" flags="0x4"/>
    </TTGlyph>
    <TTGlyph name="Aringacute" xMin="15" yMin="0" xMax="580" yMax="1098">
      <component glyphName=".ttfautohint" x="15" y="0" flags="0x0"/>
      <component glyphName="Aring" x="0" y="0" flags="0x0"/>
      <component glyphName="acutecomb.case" x="450" y="210" flags="0x4"/>
    </TTGlyph>
    <TTGlyph name="Aringacute.ss01" xMin="69" yMin="0" xMax="542" yMax="1107">
      <component glyphName=".ttfautohint" x="69" y="0" flags="0x0"/>
      <component glyphName="A.ss01" x="0" y="0" flags="0x0"/>
      <component glyphName="uni030A.case" x="449" y="0" flags="0x0"/>
      <component glyphName="acutecomb.case" x="461" y="219" flags="0x4"/>
    </TTGlyph>
    <TTGlyph name="Atilde" xMin="15" yMin="0" xMax="580" yMax="889">
      <component glyphName=".ttfautohint" x="15" y="0" flags="0x0"/>
      <component glyphName="A" x="0" y="0" flags="0x0"/>
      <component glyphName="tilde" x="114" y="145" flags="0x4"/>
    </TTGlyph>
    <TTGlyph name="Atilde.ss01" xMin="69" yMin="0" xMax="542" yMax="888">
      <component glyphName=".ttfautohint" x="69" y="0" flags="0x0"/>
      <component glyphName="A.ss01" x="0" y="0" flags="0x0"/>
      <component glyphName="tilde" x="124" y="144" flags="0x4"/>
    </TTGlyph>
    <TTGlyph name="B" xMin="74" yMin="0" xMax="538" yMax="688">
      <contour>
        <pt x="74" y="688" on="1"/>
        <pt x="355" y="688" on="1"/>
        <pt x="446" y="688" on="0"/>
        <pt x="531" y="601" on="0"/>
        <pt x="531" y="515" on="1"/>
        <pt x="531" y="444" on="0"/>
        <pt x="479" y="366" on="0"/>
        <pt x="424" y="353" on="1"/>
        <pt x="424" y="349" on="1"/>
        <pt x="486" y="336" on="0"/>
        <pt x="538" y="257" on="0"/>
        <pt x="538" y="183" on="1"/>
        <pt x="538" y="95" on="0"/>
        <pt x="456" y="0" on="0"/>
        <pt x="355" y="0" on="1"/>
        <pt x="74" y="0" on="1"/>
      </contour>
      <contour>
        <pt x="369" y="401" on="0"/>
        <pt x="411" y="441" on="0"/>
        <pt x="411" y="492" on="1"/>
        <pt x="411" y="530" on="0"/>
        <pt x="395" y="569" on="0"/>
        <pt x="356" y="584" on="0"/>
        <pt x="316" y="584" on="1"/>
        <pt x="194" y="584" on="1"/>
        <pt x="194" y="401" on="1"/>
        <pt x="316" y="401" on="1"/>
      </contour>
      <contour>
        <pt x="360" y="104" on="0"/>
        <pt x="401" y="120" on="0"/>
        <pt x="417" y="160" on="0"/>
        <pt x="417" y="199" on="1"/>
        <pt x="417" y="238" on="0"/>
        <pt x="400" y="279" on="0"/>
        <pt x="359" y="296" on="0"/>
        <pt x="321" y="296" on="1"/>
        <pt x="194" y="296" on="1"/>
        <pt x="194" y="104" on="1"/>
        <pt x="321" y="104" on="1"/>
      </contour>
    </TTGlyph>
    <TTGlyph name="C" xMin="56" yMin="-8" xMax="449" yMax="696">
      <contour>
        <pt x="422" y="1" on="0"/>
        <pt x="341" y="-8" on="0"/>
        <pt x="304" y="-8" on="1"/>
        <pt x="194" y="-8" on="0"/>
        <pt x="91" y="51" on="0"/>
        <pt x="56" y="195" on="0"/>
        <pt x="56" y="344" on="1"/>
        <pt x="56" y="493" on="0"/>
        <pt x="91" y="637" on="0"/>
        <pt x="194" y="696" on="0"/>
        <pt x="304" y="696" on="1"/>
        <pt x="341" y="696" on="0"/>
        <pt x="421" y="687" on="0"/>
        <pt x="446" y="680" on="1"/>
        <pt x="446" y="583" on="1"/>
        <pt x="369" y="592" on="0"/>
        <pt x="331" y="592" on="1"/>
        <pt x="254" y="592" on="0"/>
        <pt x="194" y="562" on="0"/>
        <pt x="176" y="466" on="0"/>
        <pt x="176" y="344" on="1"/>
        <pt x="176" y="222" on="0"/>
        <pt x="194" y="127" on="0"/>
        <pt x="254" y="97" on="0"/>
        <pt x="331" y="97" on="1"/>
        <pt x="400" y="97" on="0"/>
        <pt x="449" y="106" on="1"/>
        <pt x="449" y="8" on="1"/>
      </contour>
    </TTGlyph>
    <TTGlyph name="Cacute" xMin="56" yMin="-8" xMax="449" yMax="888">
      <component glyphName=".ttfautohint" x="56" y="0" flags="0x0"/>
      <component glyphName="C" x="0" y="0" flags="0x0"/>
      <component glyphName="acutecomb.case" x="398" y="0" flags="0x0"/>
    </TTGlyph>
    <TTGlyph name="Cacute.loclPLK" xMin="56" yMin="-8" xMax="449" yMax="888">
      <component glyphName=".ttfautohint" x="56" y="0" flags="0x0"/>
      <component glyphName="C" x="0" y="0" flags="0x0"/>
      <component glyphName="acute.case.loclPLK" x="179" y="0" flags="0x0"/>
    </TTGlyph>
    <TTGlyph name="Ccaron" xMin="56" yMin="-8" xMax="449" yMax="888">
      <component glyphName=".ttfautohint" x="56" y="0" flags="0x0"/>
      <component glyphName="C" x="0" y="0" flags="0x0"/>
      <component glyphName="uni030C.case" x="403" y="0" flags="0x0"/>
    </TTGlyph>
    <TTGlyph name="Ccedilla" xMin="56" yMin="-190" xMax="449" yMax="696">
      <contour>
        <pt x="400" y="97" on="0"/>
        <pt x="449" y="106" on="1"/>
        <pt x="449" y="8" on="1"/>
        <pt x="422" y="1" on="0"/>
        <pt x="341" y="-8" on="0"/>
        <pt x="304" y="-8" on="1"/>
        <pt x="283" y="-8" on="1"/>
        <pt x="247" y="-190" on="1"/>
        <pt x="141" y="-190" on="1"/>
        <pt x="141" y="-185" on="1"/>
        <pt x="205" y="0" on="1"/>
        <pt x="141" y="12" on="0"/>
        <pt x="78" y="85" on="0"/>
        <pt x="56" y="221" on="0"/>
        <pt x="56" y="344" on="1"/>
        <pt x="56" y="493" on="0"/>
        <pt x="91" y="637" on="0"/>
        <pt x="194" y="696" on="0"/>
        <pt x="304" y="696" on="1"/>
        <pt x="341" y="696" on="0"/>
        <pt x="421" y="687" on="0"/>
        <pt x="446" y="680" on="1"/>
        <pt x="446" y="583" on="1"/>
        <pt x="369" y="592" on="0"/>
        <pt x="331" y="592" on="1"/>
        <pt x="254" y="592" on="0"/>
        <pt x="194" y="562" on="0"/>
        <pt x="176" y="466" on="0"/>
        <pt x="176" y="344" on="1"/>
        <pt x="176" y="222" on="0"/>
        <pt x="194" y="127" on="0"/>
        <pt x="254" y="97" on="0"/>
        <pt x="331" y="97" on="1"/>
      </contour>
    </TTGlyph>
    <TTGlyph name="Ccircumflex" xMin="56" yMin="-8" xMax="449" yMax="888">
      <component glyphName=".ttfautohint" x="56" y="0" flags="0x0"/>
      <component glyphName="C" x="0" y="0" flags="0x0"/>
      <component glyphName="uni0302.case" x="403" y="0" flags="0x0"/>
    </TTGlyph>
    <TTGlyph name="Cdotaccent" xMin="56" yMin="-8" xMax="449" yMax="875">
      <component glyphName=".ttfautohint" x="56" y="0" flags="0x0"/>
      <component glyphName="C" x="0" y="0" flags="0x0"/>
      <component glyphName="uni0307.case" x="310" y="0" flags="0x0"/>
    </TTGlyph>
    <TTGlyph name="D" xMin="74" yMin="0" xMax="539" yMax="688">
      <contour>
        <pt x="74" y="688" on="1"/>
        <pt x="279" y="688" on="1"/>
        <pt x="405" y="688" on="0"/>
        <pt x="512" y="633" on="0"/>
        <pt x="539" y="501" on="0"/>
        <pt x="539" y="344" on="1"/>
        <pt x="539" y="187" on="0"/>
        <pt x="512" y="56" on="0"/>
        <pt x="405" y="0" on="0"/>
        <pt x="279" y="0" on="1"/>
        <pt x="74" y="0" on="1"/>
      </contour>
      <contour>
        <pt x="273" y="105" on="1"/>
        <pt x="350" y="105" on="0"/>
        <pt x="403" y="128" on="0"/>
        <pt x="419" y="218" on="0"/>
        <pt x="419" y="344" on="1"/>
        <pt x="419" y="470" on="0"/>
        <pt x="403" y="561" on="0"/>
        <pt x="349" y="584" on="0"/>
        <pt x="273" y="584" on="1"/>
        <pt x="194" y="584" on="1"/>
        <pt x="194" y="105" on="1"/>
      </contour>
    </TTGlyph>
    <TTGlyph name="Dcaron" xMin="74" yMin="0" xMax="539" yMax="888">
      <component glyphName=".ttfautohint" x="74" y="0" flags="0x0"/>
      <component glyphName="D" x="0" y="0" flags="0x0"/>
      <component glyphName="uni030C.case" x="457" y="0" flags="0x0"/>
    </TTGlyph>
    <TTGlyph name="Dcroat" xMin="15" yMin="0" xMax="539" yMax="688">
      <component glyphName=".ttfautohint" x="15" y="0" flags="0x0"/>
      <component glyphName="Eth" x="0" y="0" flags="0x0"/>
    </TTGlyph>
    <TTGlyph name="E" xMin="74" yMin="0" xMax="474" yMax="688">
      <contour>
        <pt x="74" y="688" on="1"/>
        <pt x="474" y="688" on="1"/>
        <pt x="474" y="584" on="1"/>
        <pt x="194" y="584" on="1"/>
        <pt x="194" y="400" on="1"/>
        <pt x="436" y="400" on="1"/>
        <pt x="436" y="295" on="1"/>
        <pt x="194" y="295" on="1"/>
        <pt x="194" y="105" on="1"/>
        <pt x="474" y="105" on="1"/>
        <pt x="474" y="0" on="1"/>
        <pt x="74" y="0" on="1"/>
      </contour>
    </TTGlyph>
    <TTGlyph name="Eacute" xMin="74" yMin="0" xMax="474" yMax="894">
      <component glyphName=".ttfautohint" x="74" y="0" flags="0x0"/>
      <component glyphName="E" x="0" y="0" flags="0x0"/>
      <component glyphName="acute" x="221" y="151" flags="0x4"/>
    </TTGlyph>
    <TTGlyph name="Ebreve" xMin="74" yMin="0" xMax="474" yMax="888">
      <component glyphName=".ttfautohint" x="74" y="0" flags="0x0"/>
      <component glyphName="E" x="0" y="0" flags="0x0"/>
      <component glyphName="uni0306.case" x="423" y="0" flags="0x0"/>
    </TTGlyph>
    <TTGlyph name="Ecaron" xMin="74" yMin="0" xMax="474" yMax="888">
      <component glyphName=".ttfautohint" x="74" y="0" flags="0x0"/>
      <component glyphName="E" x="0" y="0" flags="0x0"/>
      <component glyphName="uni030C.case" x="433" y="0" flags="0x0"/>
    </TTGlyph>
    <TTGlyph name="Ecircumflex" xMin="74" yMin="0" xMax="474" yMax="889">
      <component glyphName=".ttfautohint" x="74" y="0" flags="0x0"/>
      <component glyphName="E" x="0" y="0" flags="0x0"/>
      <component glyphName="circumflex" x="114" y="146" flags="0x4"/>
    </TTGlyph>
    <TTGlyph name="Edieresis" xMin="74" yMin="0" xMax="474" yMax="875">
      <component glyphName=".ttfautohint" x="74" y="0" flags="0x0"/>
      <component glyphName="E" x="0" y="0" flags="0x0"/>
      <component glyphName="dieresis" x="116" y="145" flags="0x4"/>
    </TTGlyph>
    <TTGlyph name="Edotaccent" xMin="74" yMin="0" xMax="474" yMax="875">
      <component glyphName=".ttfautohint" x="74" y="0" flags="0x0"/>
      <component glyphName="E" x="0" y="0" flags="0x0"/>
      <component glyphName="uni0307.case" x="340" y="0" flags="0x0"/>
    </TTGlyph>
    <TTGlyph name="Egrave" xMin="74" yMin="0" xMax="474" yMax="894">
      <component glyphName=".ttfautohint" x="74" y="0" flags="0x0"/>
      <component glyphName="E" x="0" y="0" flags="0x0"/>
      <component glyphName="grave" x="130" y="151" flags="0x4"/>
    </TTGlyph>
    <TTGlyph name="Emacron" xMin="74" yMin="0" xMax="474" yMax="888">
      <component glyphName=".ttfautohint" x="74" y="0" flags="0x0"/>
      <component glyphName="E" x="0" y="0" flags="0x0"/>
      <component glyphName="uni0304.case" x="444" y="0" flags="0x0"/>
    </TTGlyph>
    <TTGlyph name="Eng" xMin="74" yMin="-197" xMax="557" yMax="688">
      <contour>
        <pt x="557" y="688" on="1"/>
        <pt x="557" y="-23" on="1"/>
        <pt x="557" y="-103" on="0"/>
        <pt x="524" y="-176" on="0"/>
        <pt x="447" y="-197" on="0"/>
        <pt x="364" y="-197" on="1"/>
        <pt x="364" y="-108" on="1"/>
        <pt x="400" y="-108" on="0"/>
        <pt x="432" y="-98" on="0"/>
        <pt x="441" y="-77" on="0"/>
        <pt x="441" y="-55" on="1"/>
        <pt x="441" y="4" on="1"/>
        <pt x="194" y="450" on="1"/>
        <pt x="190" y="450" on="1"/>
        <pt x="190" y="0" on="1"/>
        <pt x="74" y="0" on="1"/>
        <pt x="74" y="688" on="1"/>
        <pt x="197" y="688" on="1"/>
        <pt x="437" y="257" on="1"/>
        <pt x="441" y="257" on="1"/>
        <pt x="441" y="688" on="1"/>
      </contour>
    </TTGlyph>
    <TTGlyph name="Eogonek" xMin="74" yMin="-196" xMax="474" yMax="688">
      <contour>
        <pt x="363" y="-196" on="0"/>
        <pt x="315" y="-152" on="0"/>
        <pt x="315" y="-118" on="1"/>
        <pt x="315" y="-61" on="0"/>
        <pt x="381" y="0" on="1"/>
        <pt x="74" y="0" on="1"/>
        <pt x="74" y="688" on="1"/>
        <pt x="474" y="688" on="1"/>
        <pt x="474" y="584" on="1"/>
        <pt x="194" y="584" on="1"/>
        <pt x="194" y="400" on="1"/>
        <pt x="436" y="400" on="1"/>
        <pt x="436" y="295" on="1"/>
        <pt x="194" y="295" on="1"/>
        <pt x="194" y="105" on="1"/>
        <pt x="474" y="105" on="1"/>
        <pt x="474" y="0" on="1"/>
        <pt x="450" y="-16" on="0"/>
        <pt x="409" y="-69" on="0"/>
        <pt x="409" y="-93" on="1"/>
        <pt x="409" y="-108" on="0"/>
        <pt x="430" y="-128" on="0"/>
        <pt x="452" y="-128" on="1"/>
        <pt x="469" y="-127" on="1"/>
        <pt x="469" y="-193" on="1"/>
        <pt x="442" y="-196" on="0"/>
        <pt x="420" y="-196" on="1"/>
      </contour>
    </TTGlyph>
    <TTGlyph name="Eth" xMin="15" yMin="0" xMax="539" yMax="688">
      <contour>
        <pt x="74" y="299" on="1"/>
        <pt x="15" y="299" on="1"/>
        <pt x="15" y="397" on="1"/>
        <pt x="74" y="397" on="1"/>
        <pt x="74" y="688" on="1"/>
        <pt x="279" y="688" on="1"/>
        <pt x="405" y="688" on="0"/>
        <pt x="512" y="633" on="0"/>
        <pt x="539" y="501" on="0"/>
        <pt x="539" y="344" on="1"/>
        <pt x="539" y="187" on="0"/>
        <pt x="512" y="56" on="0"/>
        <pt x="405" y="0" on="0"/>
        <pt x="279" y="0" on="1"/>
        <pt x="74" y="0" on="1"/>
      </contour>
      <contour>
        <pt x="350" y="105" on="0"/>
        <pt x="403" y="128" on="0"/>
        <pt x="419" y="218" on="0"/>
        <pt x="419" y="344" on="1"/>
        <pt x="419" y="470" on="0"/>
        <pt x="403" y="561" on="0"/>
        <pt x="349" y="584" on="0"/>
        <pt x="273" y="584" on="1"/>
        <pt x="194" y="584" on="1"/>
        <pt x="194" y="397" on="1"/>
        <pt x="279" y="397" on="1"/>
        <pt x="279" y="299" on="1"/>
        <pt x="194" y="299" on="1"/>
        <pt x="194" y="105" on="1"/>
        <pt x="273" y="105" on="1"/>
      </contour>
    </TTGlyph>
    <TTGlyph name="Euro" xMin="31" yMin="-8" xMax="489" yMax="696">
      <contour>
        <pt x="251" y="-8" on="0"/>
        <pt x="152" y="33" on="0"/>
        <pt x="108" y="135" on="0"/>
        <pt x="103" y="234" on="1"/>
        <pt x="31" y="234" on="1"/>
        <pt x="31" y="303" on="1"/>
        <pt x="100" y="303" on="1"/>
        <pt x="100" y="387" on="1"/>
        <pt x="31" y="387" on="1"/>
        <pt x="31" y="456" on="1"/>
        <pt x="103" y="456" on="1"/>
        <pt x="109" y="550" on="0"/>
        <pt x="154" y="652" on="0"/>
        <pt x="254" y="696" on="0"/>
        <pt x="346" y="696" on="1"/>
        <pt x="392" y="696" on="0"/>
        <pt x="472" y="685" on="0"/>
        <pt x="486" y="680" on="1"/>
        <pt x="486" y="583" on="1"/>
        <pt x="470" y="586" on="0"/>
        <pt x="400" y="592" on="0"/>
        <pt x="373" y="592" on="1"/>
        <pt x="311" y="592" on="0"/>
        <pt x="253" y="574" on="0"/>
        <pt x="227" y="518" on="0"/>
        <pt x="224" y="456" on="1"/>
        <pt x="444" y="456" on="1"/>
        <pt x="444" y="387" on="1"/>
        <pt x="222" y="387" on="1"/>
        <pt x="222" y="303" on="1"/>
        <pt x="444" y="303" on="1"/>
        <pt x="444" y="234" on="1"/>
        <pt x="224" y="234" on="1"/>
        <pt x="227" y="171" on="0"/>
        <pt x="253" y="115" on="0"/>
        <pt x="311" y="97" on="0"/>
        <pt x="373" y="97" on="1"/>
        <pt x="437" y="97" on="0"/>
        <pt x="489" y="105" on="1"/>
        <pt x="489" y="7" on="1"/>
        <pt x="475" y="2" on="0"/>
        <pt x="392" y="-8" on="0"/>
        <pt x="346" y="-8" on="1"/>
      </contour>
    </TTGlyph>
    <TTGlyph name="F" xMin="74" yMin="0" xMax="456" yMax="688">
      <contour>
        <pt x="74" y="688" on="1"/>
        <pt x="456" y="688" on="1"/>
        <pt x="456" y="584" on="1"/>
        <pt x="194" y="584" on="1"/>
        <pt x="194" y="383" on="1"/>
        <pt x="426" y="383" on="1"/>
        <pt x="426" y="279" on="1"/>
        <pt x="194" y="279" on="1"/>
        <pt x="194" y="0" on="1"/>
        <pt x="74" y="0" on="1"/>
      </contour>
    </TTGlyph>
    <TTGlyph name="G" xMin="56" yMin="-8" xMax="517" yMax="696">
      <contour>
        <pt x="300" y="286" on="1"/>
        <pt x="300" y="389" on="1"/>
        <pt x="517" y="389" on="1"/>
        <pt x="517" y="13" on="1"/>
        <pt x="474" y="4" on="0"/>
        <pt x="362" y="-8" on="0"/>
        <pt x="317" y="-8" on="1"/>
        <pt x="206" y="-8" on="0"/>
        <pt x="97" y="50" on="0"/>
        <pt x="56" y="196" on="0"/>
        <pt x="56" y="344" on="1"/>
        <pt x="56" y="491" on="0"/>
        <pt x="98" y="638" on="0"/>
        <pt x="209" y="696" on="0"/>
        <pt x="321" y="696" on="1"/>
        <pt x="366" y="696" on="0"/>
        <pt x="474" y="685" on="0"/>
        <pt x="514" y="675" on="1"/>
        <pt x="514" y="578" on="1"/>
        <pt x="416" y="592" on="0"/>
        <pt x="365" y="592" on="1"/>
        <pt x="273" y="592" on="0"/>
        <pt x="203" y="567" on="0"/>
        <pt x="176" y="469" on="0"/>
        <pt x="176" y="344" on="1"/>
        <pt x="176" y="230" on="0"/>
        <pt x="195" y="130" on="0"/>
        <pt x="253" y="94" on="0"/>
        <pt x="319" y="94" on="1"/>
        <pt x="364" y="94" on="0"/>
        <pt x="401" y="99" on="1"/>
        <pt x="401" y="286" on="1"/>
      </contour>
    </TTGlyph>
    <TTGlyph name="G.ss01" xMin="56" yMin="-8" xMax="544" yMax="696">
      <contour>
        <pt x="203" y="-8" on="0"/>
        <pt x="94" y="50" on="0"/>
        <pt x="56" y="195" on="0"/>
        <pt x="56" y="344" on="1"/>
        <pt x="56" y="490" on="0"/>
        <pt x="100" y="637" on="0"/>
        <pt x="214" y="696" on="0"/>
        <pt x="328" y="696" on="1"/>
        <pt x="373" y="696" on="0"/>
        <pt x="482" y="685" on="0"/>
        <pt x="523" y="675" on="1"/>
        <pt x="523" y="578" on="1"/>
        <pt x="425" y="592" on="0"/>
        <pt x="371" y="592" on="1"/>
        <pt x="276" y="592" on="0"/>
        <pt x="203" y="566" on="0"/>
        <pt x="176" y="468" on="0"/>
        <pt x="176" y="344" on="1"/>
        <pt x="176" y="226" on="0"/>
        <pt x="196" y="126" on="0"/>
        <pt x="249" y="96" on="0"/>
        <pt x="311" y="96" on="1"/>
        <pt x="369" y="96" on="0"/>
        <pt x="413" y="115" on="0"/>
        <pt x="425" y="178" on="0"/>
        <pt x="425" y="262" on="1"/>
        <pt x="425" y="295" on="1"/>
        <pt x="318" y="295" on="1"/>
        <pt x="318" y="397" on="1"/>
        <pt x="544" y="397" on="1"/>
        <pt x="544" y="288" on="1"/>
        <pt x="544" y="155" on="0"/>
        <pt x="522" y="43" on="0"/>
        <pt x="428" y="-8" on="0"/>
        <pt x="317" y="-8" on="1"/>
      </contour>
    </TTGlyph>
    <TTGlyph name="G_tilde.loclGUA" xMin="56" yMin="-8" xMax="517" yMax="889">
      <component glyphName=".ttfautohint" x="56" y="0" flags="0x0"/>
      <component glyphName="G" x="0" y="0" flags="0x0"/>
      <component glyphName="tildecomb.case" x="476" y="0" flags="0x0"/>
    </TTGlyph>
    <TTGlyph name="Gbreve" xMin="56" yMin="-8" xMax="517" yMax="888">
      <component glyphName=".ttfautohint" x="56" y="0" flags="0x0"/>
      <component glyphName="G" x="0" y="0" flags="0x0"/>
      <component glyphName="uni0306.case" x="440" y="0" flags="0x0"/>
    </TTGlyph>
    <TTGlyph name="Gbreve.ss01" xMin="56" yMin="-8" xMax="544" yMax="888">
      <component glyphName=".ttfautohint" x="56" y="0" flags="0x0"/>
      <component glyphName="G.ss01" x="0" y="0" flags="0x0"/>
      <component glyphName="uni0306.case" x="448" y="0" flags="0x0"/>
    </TTGlyph>
    <TTGlyph name="Gcaron" xMin="56" yMin="-8" xMax="517" yMax="888">
      <component glyphName=".ttfautohint" x="56" y="0" flags="0x0"/>
      <component glyphName="G" x="0" y="0" flags="0x0"/>
      <component glyphName="uni030C.case" x="450" y="0" flags="0x0"/>
    </TTGlyph>
    <TTGlyph name="Gcaron.ss01" xMin="56" yMin="-8" xMax="544" yMax="888">
      <component glyphName=".ttfautohint" x="56" y="0" flags="0x0"/>
      <component glyphName="G.ss01" x="0" y="0" flags="0x0"/>
      <component glyphName="uni030C.case" x="458" y="0" flags="0x0"/>
    </TTGlyph>
    <TTGlyph name="Gcircumflex" xMin="56" yMin="-8" xMax="517" yMax="888">
      <component glyphName=".ttfautohint" x="56" y="0" flags="0x0"/>
      <component glyphName="G" x="0" y="0" flags="0x0"/>
      <component glyphName="uni0302.case" x="450" y="0" flags="0x0"/>
    </TTGlyph>
    <TTGlyph name="Gcircumflex.ss01" xMin="56" yMin="-8" xMax="544" yMax="888">
      <component glyphName=".ttfautohint" x="56" y="0" flags="0x0"/>
      <component glyphName="G.ss01" x="0" y="0" flags="0x0"/>
      <component glyphName="uni0302.case" x="458" y="0" flags="0x0"/>
    </TTGlyph>
    <TTGlyph name="Gcommaaccent" xMin="56" yMin="-289" xMax="517" yMax="696">
      <component glyphName=".ttfautohint" x="56" y="0" flags="0x0"/>
      <component glyphName="G" x="0" y="0" flags="0x0"/>
      <component glyphName="uni0326" x="414" y="0" flags="0x0"/>
    </TTGlyph>
    <TTGlyph name="Gcommaaccent.ss01" xMin="56" yMin="-289" xMax="544" yMax="696">
      <component glyphName=".ttfautohint" x="56" y="0" flags="0x0"/>
      <component glyphName="G.ss01" x="0" y="0" flags="0x0"/>
      <component glyphName="uni0326" x="422" y="0" flags="0x0"/>
    </TTGlyph>
    <TTGlyph name="Gdotaccent" xMin="56" yMin="-8" xMax="517" yMax="875">
      <component glyphName=".ttfautohint" x="56" y="0" flags="0x0"/>
      <component glyphName="G" x="0" y="0" flags="0x0"/>
      <component glyphName="uni0307.case" x="357" y="0" flags="0x0"/>
    </TTGlyph>
    <TTGlyph name="Gdotaccent.ss01" xMin="56" yMin="-8" xMax="544" yMax="875">
      <component glyphName=".ttfautohint" x="56" y="0" flags="0x0"/>
      <component glyphName="G.ss01" x="0" y="0" flags="0x0"/>
      <component glyphName="uni0307.case" x="365" y="0" flags="0x0"/>
    </TTGlyph>
    <TTGlyph name="Gtilde.loclGUA.ss01" xMin="56" yMin="-8" xMax="544" yMax="889">
      <component glyphName=".ttfautohint" x="56" y="0" flags="0x0"/>
      <component glyphName="G.ss01" x="0" y="0" flags="0x0"/>
      <component glyphName="tildecomb.case" x="484" y="0" flags="0x0"/>
    </TTGlyph>
    <TTGlyph name="H" xMin="74" yMin="0" xMax="556" yMax="688">
      <contour>
        <pt x="436" y="292" on="1"/>
        <pt x="194" y="292" on="1"/>
        <pt x="194" y="0" on="1"/>
        <pt x="74" y="0" on="1"/>
        <pt x="74" y="688" on="1"/>
        <pt x="194" y="688" on="1"/>
        <pt x="194" y="401" on="1"/>
        <pt x="436" y="401" on="1"/>
        <pt x="436" y="688" on="1"/>
        <pt x="556" y="688" on="1"/>
        <pt x="556" y="0" on="1"/>
        <pt x="436" y="0" on="1"/>
      </contour>
    </TTGlyph>
    <TTGlyph name="Hbar" xMin="74" yMin="0" xMax="556" yMax="688">
      <contour>
        <pt x="556" y="688" on="1"/>
        <pt x="556" y="0" on="1"/>
        <pt x="436" y="0" on="1"/>
        <pt x="436" y="252" on="1"/>
        <pt x="194" y="252" on="1"/>
        <pt x="194" y="0" on="1"/>
        <pt x="74" y="0" on="1"/>
        <pt x="74" y="688" on="1"/>
        <pt x="194" y="688" on="1"/>
        <pt x="194" y="570" on="1"/>
        <pt x="436" y="570" on="1"/>
        <pt x="436" y="688" on="1"/>
      </contour>
      <contour>
        <pt x="436" y="361" on="1"/>
        <pt x="436" y="472" on="1"/>
        <pt x="194" y="472" on="1"/>
        <pt x="194" y="361" on="1"/>
      </contour>
    </TTGlyph>
    <TTGlyph name="Hcircumflex" xMin="74" yMin="0" xMax="556" yMax="888">
      <component glyphName=".ttfautohint" x="74" y="0" flags="0x0"/>
      <component glyphName="H" x="0" y="0" flags="0x0"/>
      <component glyphName="uni0302.case" x="473" y="0" flags="0x0"/>
    </TTGlyph>
    <TTGlyph name="I" xMin="75" yMin="0" xMax="195" yMax="688">
      <contour>
        <pt x="75" y="688" on="1"/>
        <pt x="195" y="688" on="1"/>
        <pt x="195" y="0" on="1"/>
        <pt x="75" y="0" on="1"/>
      </contour>
    </TTGlyph>
    <TTGlyph name="IJ" xMin="75" yMin="0" xMax="533" yMax="688">
      <component glyphName=".ttfautohint" x="75" y="0" flags="0x0"/>
      <component glyphName="I" x="0" y="0" flags="0x0"/>
      <component glyphName="J" x="270" y="0" flags="0x0"/>
    </TTGlyph>
    <TTGlyph name="Iacute" xMin="75" yMin="0" xMax="270" yMax="894">
      <component glyphName=".ttfautohint" x="75" y="0" flags="0x0"/>
      <component glyphName="I" x="0" y="0" flags="0x0"/>
      <component glyphName="acute" x="65" y="151" flags="0x4"/>
    </TTGlyph>
    <TTGlyph name="Iacute_J.loclNLD" xMin="75" yMin="0" xMax="612" yMax="888">
      <component glyphName=".ttfautohint" x="75" y="0" flags="0x0"/>
      <component glyphName="I" x="0" y="0" flags="0x0"/>
      <component glyphName="acutecomb.case" x="289" y="0" flags="0x0"/>
      <component glyphName="J" x="270" y="0" flags="0x0"/>
      <component glyphName="acutecomb.case" x="626" y="0" flags="0x0"/>
    </TTGlyph>
    <TTGlyph name="Ibreve" xMin="0" yMin="0" xMax="270" yMax="888">
      <component glyphName=".ttfautohint" x="0" y="0" flags="0x0"/>
      <component glyphName="I" x="0" y="0" flags="0x0"/>
      <component glyphName="uni0306.case" x="283" y="0" flags="0x0"/>
    </TTGlyph>
    <TTGlyph name="Icircumflex" xMin="-9" yMin="0" xMax="280" yMax="889">
      <component glyphName=".ttfautohint" x="0" y="0" flags="0x0"/>
      <component glyphName="I" x="0" y="0" flags="0x0"/>
      <component glyphName="circumflex" x="-23" y="146" flags="0x4"/>
    </TTGlyph>
    <TTGlyph name="Idieresis" xMin="-8" yMin="0" xMax="278" yMax="875">
      <component glyphName=".ttfautohint" x="0" y="0" flags="0x0"/>
      <component glyphName="I" x="0" y="0" flags="0x0"/>
      <component glyphName="dieresis" x="-24" y="145" flags="0x4"/>
    </TTGlyph>
    <TTGlyph name="Idotaccent" xMin="75" yMin="0" xMax="195" yMax="875">
      <component glyphName=".ttfautohint" x="75" y="0" flags="0x0"/>
      <component glyphName="I" x="0" y="0" flags="0x0"/>
      <component glyphName="uni0307.case" x="200" y="0" flags="0x0"/>
    </TTGlyph>
    <TTGlyph name="Igrave" xMin="5" yMin="0" xMax="196" yMax="894">
      <component glyphName=".ttfautohint" x="5" y="0" flags="0x0"/>
      <component glyphName="I" x="0" y="0" flags="0x0"/>
      <component glyphName="grave" x="-9" y="151" flags="0x4"/>
    </TTGlyph>
    <TTGlyph name="Imacron" xMin="20" yMin="0" xMax="250" yMax="888">
      <component glyphName=".ttfautohint" x="20" y="0" flags="0x0"/>
      <component glyphName="I" x="0" y="0" flags="0x0"/>
      <component glyphName="uni0304.case" x="304" y="0" flags="0x0"/>
    </TTGlyph>
    <TTGlyph name="Iogonek" xMin="42" yMin="-196" xMax="196" yMax="688">
      <contour>
        <pt x="42" y="-196" on="0"/>
        <pt x="42" y="-115" on="1"/>
        <pt x="42" y="-87" on="0"/>
        <pt x="75" y="-27" on="0"/>
        <pt x="102" y="0" on="1"/>
        <pt x="75" y="0" on="1"/>
        <pt x="75" y="688" on="1"/>
        <pt x="195" y="688" on="1"/>
        <pt x="195" y="0" on="1"/>
        <pt x="174" y="-16" on="0"/>
        <pt x="136" y="-69" on="0"/>
        <pt x="136" y="-91" on="1"/>
        <pt x="136" y="-128" on="0"/>
        <pt x="181" y="-128" on="1"/>
        <pt x="194" y="-128" on="0"/>
        <pt x="196" y="-127" on="1"/>
        <pt x="196" y="-193" on="1"/>
        <pt x="169" y="-196" on="0"/>
        <pt x="146" y="-196" on="1"/>
      </contour>
    </TTGlyph>
    <TTGlyph name="Itilde" xMin="-35" yMin="0" xMax="305" yMax="889">
      <component glyphName=".ttfautohint" x="0" y="0" flags="0x0"/>
      <component glyphName="I" x="0" y="0" flags="0x0"/>
      <component glyphName="tildecomb.case" x="319" y="0" flags="0x0"/>
    </TTGlyph>
    <TTGlyph name="J" xMin="21" yMin="0" xMax="263" yMax="688">
      <contour>
        <pt x="86" y="100" on="0"/>
        <pt x="132" y="117" on="0"/>
        <pt x="143" y="171" on="0"/>
        <pt x="143" y="250" on="1"/>
        <pt x="143" y="688" on="1"/>
        <pt x="263" y="688" on="1"/>
        <pt x="263" y="292" on="1"/>
        <pt x="263" y="140" on="0"/>
        <pt x="238" y="31" on="0"/>
        <pt x="148" y="1" on="0"/>
        <pt x="21" y="0" on="1"/>
        <pt x="21" y="99" on="1"/>
      </contour>
    </TTGlyph>
    <TTGlyph name="Jcircumflex" xMin="21" yMin="0" xMax="348" yMax="888">
      <component glyphName=".ttfautohint" x="21" y="0" flags="0x0"/>
      <component glyphName="J" x="0" y="0" flags="0x0"/>
      <component glyphName="uni0302.case" x="361" y="0" flags="0x0"/>
    </TTGlyph>
    <TTGlyph name="K" xMin="74" yMin="0" xMax="571" yMax="688">
      <contour>
        <pt x="264" y="298" on="1"/>
        <pt x="194" y="298" on="1"/>
        <pt x="194" y="0" on="1"/>
        <pt x="74" y="0" on="1"/>
        <pt x="74" y="688" on="1"/>
        <pt x="194" y="688" on="1"/>
        <pt x="194" y="402" on="1"/>
        <pt x="264" y="402" on="1"/>
        <pt x="440" y="688" on="1"/>
        <pt x="568" y="688" on="1"/>
        <pt x="361" y="359" on="1"/>
        <pt x="571" y="0" on="1"/>
        <pt x="436" y="0" on="1"/>
      </contour>
    </TTGlyph>
    <TTGlyph name="Kcommaaccent" xMin="74" yMin="-289" xMax="571" yMax="688">
      <component glyphName=".ttfautohint" x="74" y="0" flags="0x0"/>
      <component glyphName="K" x="0" y="0" flags="0x0"/>
      <component glyphName="uni0326" x="416" y="0" flags="0x0"/>
    </TTGlyph>
    <TTGlyph name="L" xMin="74" yMin="0" xMax="442" yMax="688">
      <contour>
        <pt x="74" y="688" on="1"/>
        <pt x="194" y="688" on="1"/>
        <pt x="194" y="108" on="1"/>
        <pt x="442" y="108" on="1"/>
        <pt x="442" y="0" on="1"/>
        <pt x="74" y="0" on="1"/>
      </contour>
    </TTGlyph>
    <TTGlyph name="Lacute" xMin="74" yMin="0" xMax="442" yMax="888">
      <component glyphName=".ttfautohint" x="74" y="0" flags="0x0"/>
      <component glyphName="L" x="0" y="0" flags="0x0"/>
      <component glyphName="acutecomb.case" x="288" y="0" flags="0x0"/>
    </TTGlyph>
    <TTGlyph name="Lcaron" xMin="74" yMin="0" xMax="442" yMax="688">
      <component glyphName=".ttfautohint" x="74" y="0" flags="0x0"/>
      <component glyphName="L" x="0" y="0" flags="0x0"/>
      <component glyphName="caron.loclCSY" x="258" y="0" flags="0x0"/>
    </TTGlyph>
    <TTGlyph name="Lcommaaccent" xMin="74" yMin="-289" xMax="442" yMax="688">
      <component glyphName=".ttfautohint" x="74" y="0" flags="0x0"/>
      <component glyphName="L" x="0" y="0" flags="0x0"/>
      <component glyphName="uni0326" x="371" y="0" flags="0x0"/>
    </TTGlyph>
    <TTGlyph name="Ldot" xMin="74" yMin="0" xMax="442" yMax="688">
      <component glyphName=".ttfautohint" x="74" y="0" flags="0x0"/>
      <component glyphName="L" x="0" y="0" flags="0x0"/>
      <component glyphName="periodcentered" x="252" y="62" flags="0x4"/>
    </TTGlyph>
    <TTGlyph name="Lslash" xMin="21" yMin="0" xMax="442" yMax="688">
      <contour>
        <pt x="442" y="108" on="1"/>
        <pt x="442" y="0" on="1"/>
        <pt x="74" y="0" on="1"/>
        <pt x="74" y="270" on="1"/>
        <pt x="21" y="250" on="1"/>
        <pt x="21" y="344" on="1"/>
        <pt x="74" y="364" on="1"/>
        <pt x="74" y="688" on="1"/>
        <pt x="194" y="688" on="1"/>
        <pt x="194" y="409" on="1"/>
        <pt x="340" y="464" on="1"/>
        <pt x="340" y="369" on="1"/>
        <pt x="194" y="315" on="1"/>
        <pt x="194" y="108" on="1"/>
      </contour>
    </TTGlyph>
    <TTGlyph name="M" xMin="74" yMin="0" xMax="725" yMax="688">
      <contour>
        <pt x="608" y="509" on="1"/>
        <pt x="604" y="509" on="1"/>
        <pt x="447" y="0" on="1"/>
        <pt x="348" y="0" on="1"/>
        <pt x="192" y="509" on="1"/>
        <pt x="187" y="509" on="1"/>
        <pt x="187" y="0" on="1"/>
        <pt x="74" y="0" on="1"/>
        <pt x="74" y="688" on="1"/>
        <pt x="248" y="688" on="1"/>
        <pt x="398" y="198" on="1"/>
        <pt x="403" y="198" on="1"/>
        <pt x="553" y="688" on="1"/>
        <pt x="725" y="688" on="1"/>
        <pt x="725" y="0" on="1"/>
        <pt x="608" y="0" on="1"/>
      </contour>
    </TTGlyph>
    <TTGlyph name="N" xMin="74" yMin="0" xMax="557" yMax="688">
      <contour>
        <pt x="194" y="450" on="1"/>
        <pt x="190" y="450" on="1"/>
        <pt x="190" y="0" on="1"/>
        <pt x="74" y="0" on="1"/>
        <pt x="74" y="688" on="1"/>
        <pt x="197" y="688" on="1"/>
        <pt x="437" y="257" on="1"/>
        <pt x="441" y="257" on="1"/>
        <pt x="441" y="688" on="1"/>
        <pt x="557" y="688" on="1"/>
        <pt x="557" y="0" on="1"/>
        <pt x="443" y="0" on="1"/>
      </contour>
    </TTGlyph>
    <TTGlyph name="Nacute" xMin="74" yMin="0" xMax="557" yMax="888">
      <component glyphName=".ttfautohint" x="74" y="0" flags="0x0"/>
      <component glyphName="N" x="0" y="0" flags="0x0"/>
      <component glyphName="acutecomb.case" x="469" y="0" flags="0x0"/>
    </TTGlyph>
    <TTGlyph name="Nacute.loclPLK" xMin="74" yMin="0" xMax="557" yMax="888">
      <component glyphName=".ttfautohint" x="74" y="0" flags="0x0"/>
      <component glyphName="N" x="0" y="0" flags="0x0"/>
      <component glyphName="acute.case.loclPLK" x="250" y="0" flags="0x0"/>
    </TTGlyph>
    <TTGlyph name="Ncaron" xMin="74" yMin="0" xMax="557" yMax="888">
      <component glyphName=".ttfautohint" x="74" y="0" flags="0x0"/>
      <component glyphName="N" x="0" y="0" flags="0x0"/>
      <component glyphName="uni030C.case" x="474" y="0" flags="0x0"/>
    </TTGlyph>
    <TTGlyph name="Ncommaaccent" xMin="74" yMin="-289" xMax="557" yMax="688">
      <component glyphName=".ttfautohint" x="74" y="0" flags="0x0"/>
      <component glyphName="N" x="0" y="0" flags="0x0"/>
      <component glyphName="uni0326" x="438" y="0" flags="0x0"/>
    </TTGlyph>
    <TTGlyph name="Ntilde" xMin="74" yMin="0" xMax="557" yMax="890">
      <component glyphName=".ttfautohint" x="74" y="0" flags="0x0"/>
      <component glyphName="N" x="0" y="0" flags="0x0"/>
      <component glyphName="tilde" x="132" y="146" flags="0x4"/>
    </TTGlyph>
    <TTGlyph name="O" xMin="56" yMin="-8" xMax="559" yMax="696">
      <contour>
        <pt x="186" y="-8" on="0"/>
        <pt x="83" y="51" on="0"/>
        <pt x="56" y="186" on="0"/>
        <pt x="56" y="344" on="1"/>
        <pt x="56" y="502" on="0"/>
        <pt x="83" y="638" on="0"/>
        <pt x="186" y="696" on="0"/>
        <pt x="307" y="696" on="1"/>
        <pt x="428" y="696" on="0"/>
        <pt x="531" y="638" on="0"/>
        <pt x="559" y="502" on="0"/>
        <pt x="559" y="344" on="1"/>
        <pt x="559" y="187" on="0"/>
        <pt x="531" y="51" on="0"/>
        <pt x="428" y="-8" on="0"/>
        <pt x="307" y="-8" on="1"/>
      </contour>
      <contour>
        <pt x="376" y="97" on="0"/>
        <pt x="425" y="121" on="0"/>
        <pt x="439" y="214" on="0"/>
        <pt x="439" y="344" on="1"/>
        <pt x="439" y="474" on="0"/>
        <pt x="425" y="567" on="0"/>
        <pt x="376" y="592" on="0"/>
        <pt x="307" y="592" on="1"/>
        <pt x="238" y="592" on="0"/>
        <pt x="190" y="568" on="0"/>
        <pt x="176" y="475" on="0"/>
        <pt x="176" y="344" on="1"/>
        <pt x="176" y="213" on="0"/>
        <pt x="190" y="121" on="0"/>
        <pt x="238" y="97" on="0"/>
        <pt x="307" y="97" on="1"/>
      </contour>
    </TTGlyph>
    <TTGlyph name="OE" xMin="56" yMin="0" xMax="833" yMax="688">
      <contour>
        <pt x="186" y="0" on="0"/>
        <pt x="83" y="57" on="0"/>
        <pt x="56" y="189" on="0"/>
        <pt x="56" y="344" on="1"/>
        <pt x="56" y="499" on="0"/>
        <pt x="83" y="631" on="0"/>
        <pt x="186" y="688" on="0"/>
        <pt x="307" y="688" on="1"/>
        <pt x="833" y="688" on="1"/>
        <pt x="833" y="584" on="1"/>
        <pt x="595" y="584" on="1"/>
        <pt x="557" y="584" on="0"/>
        <pt x="530" y="591" on="1"/>
        <pt x="545" y="559" on="0"/>
        <pt x="558" y="466" on="0"/>
        <pt x="559" y="399" on="1"/>
        <pt x="794" y="399" on="1"/>
        <pt x="794" y="295" on="1"/>
        <pt x="559" y="295" on="1"/>
        <pt x="558" y="224" on="0"/>
        <pt x="546" y="130" on="0"/>
        <pt x="530" y="97" on="1"/>
        <pt x="565" y="104" on="0"/>
        <pt x="595" y="104" on="1"/>
        <pt x="833" y="104" on="1"/>
        <pt x="833" y="0" on="1"/>
        <pt x="307" y="0" on="1"/>
      </contour>
      <contour>
        <pt x="376" y="104" on="0"/>
        <pt x="425" y="128" on="0"/>
        <pt x="439" y="218" on="0"/>
        <pt x="439" y="344" on="1"/>
        <pt x="439" y="470" on="0"/>
        <pt x="425" y="560" on="0"/>
        <pt x="376" y="584" on="0"/>
        <pt x="307" y="584" on="1"/>
        <pt x="238" y="584" on="0"/>
        <pt x="190" y="560" on="0"/>
        <pt x="176" y="470" on="0"/>
        <pt x="176" y="344" on="1"/>
        <pt x="176" y="218" on="0"/>
        <pt x="190" y="128" on="0"/>
        <pt x="238" y="104" on="0"/>
        <pt x="307" y="104" on="1"/>
      </contour>
    </TTGlyph>
    <TTGlyph name="Oacute" xMin="56" yMin="-8" xMax="559" yMax="894">
      <component glyphName=".ttfautohint" x="56" y="0" flags="0x0"/>
      <component glyphName="O" x="0" y="0" flags="0x0"/>
      <component glyphName="acute" x="239" y="151" flags="0x4"/>
    </TTGlyph>
    <TTGlyph name="Oacute.loclPLK" xMin="56" yMin="-8" xMax="559" yMax="888">
      <component glyphName=".ttfautohint" x="56" y="0" flags="0x0"/>
      <component glyphName="O" x="0" y="0" flags="0x0"/>
      <component glyphName="acute.case.loclPLK" x="243" y="0" flags="0x0"/>
    </TTGlyph>
    <TTGlyph name="Obreve" xMin="56" yMin="-8" xMax="559" yMax="888">
      <component glyphName=".ttfautohint" x="56" y="0" flags="0x0"/>
      <component glyphName="O" x="0" y="0" flags="0x0"/>
      <component glyphName="uni0306.case" x="456" y="0" flags="0x0"/>
    </TTGlyph>
    <TTGlyph name="Ocircumflex" xMin="56" yMin="-8" xMax="559" yMax="889">
      <component glyphName=".ttfautohint" x="56" y="0" flags="0x0"/>
      <component glyphName="O" x="0" y="0" flags="0x0"/>
      <component glyphName="circumflex" x="149" y="146" flags="0x4"/>
    </TTGlyph>
    <TTGlyph name="Odieresis" xMin="56" yMin="-8" xMax="559" yMax="875">
      <component glyphName=".ttfautohint" x="56" y="0" flags="0x0"/>
      <component glyphName="O" x="0" y="0" flags="0x0"/>
      <component glyphName="dieresis" x="149" y="145" flags="0x4"/>
    </TTGlyph>
    <TTGlyph name="Ograve" xMin="56" yMin="-8" xMax="559" yMax="894">
      <component glyphName=".ttfautohint" x="56" y="0" flags="0x0"/>
      <component glyphName="O" x="0" y="0" flags="0x0"/>
      <component glyphName="grave" x="152" y="151" flags="0x4"/>
    </TTGlyph>
    <TTGlyph name="Ohorn" xMin="56" yMin="-8" xMax="615" yMax="784">
      <contour>
        <pt x="615" y="784" on="1"/>
        <pt x="615" y="752" on="1"/>
        <pt x="615" y="709" on="0"/>
        <pt x="600" y="665" on="0"/>
        <pt x="557" y="642" on="0"/>
        <pt x="512" y="640" on="1"/>
        <pt x="542" y="605" on="0"/>
        <pt x="559" y="476" on="0"/>
        <pt x="559" y="344" on="1"/>
        <pt x="559" y="187" on="0"/>
        <pt x="531" y="51" on="0"/>
        <pt x="428" y="-8" on="0"/>
        <pt x="307" y="-8" on="1"/>
        <pt x="186" y="-8" on="0"/>
        <pt x="83" y="51" on="0"/>
        <pt x="56" y="186" on="0"/>
        <pt x="56" y="344" on="1"/>
        <pt x="56" y="502" on="0"/>
        <pt x="83" y="638" on="0"/>
        <pt x="186" y="696" on="0"/>
        <pt x="307" y="696" on="1"/>
        <pt x="377" y="696" on="0"/>
        <pt x="417" y="688" on="1"/>
        <pt x="473" y="688" on="1"/>
        <pt x="515" y="688" on="0"/>
        <pt x="540" y="707" on="0"/>
        <pt x="540" y="736" on="1"/>
        <pt x="540" y="784" on="1"/>
      </contour>
      <contour>
        <pt x="376" y="97" on="0"/>
        <pt x="425" y="121" on="0"/>
        <pt x="439" y="214" on="0"/>
        <pt x="439" y="344" on="1"/>
        <pt x="439" y="474" on="0"/>
        <pt x="425" y="567" on="0"/>
        <pt x="376" y="592" on="0"/>
        <pt x="307" y="592" on="1"/>
        <pt x="238" y="592" on="0"/>
        <pt x="190" y="568" on="0"/>
        <pt x="176" y="475" on="0"/>
        <pt x="176" y="344" on="1"/>
        <pt x="176" y="213" on="0"/>
        <pt x="190" y="121" on="0"/>
        <pt x="238" y="97" on="0"/>
        <pt x="307" y="97" on="1"/>
      </contour>
    </TTGlyph>
    <TTGlyph name="Ohungarumlaut" xMin="56" yMin="-8" xMax="559" yMax="880">
      <component glyphName=".ttfautohint" x="56" y="0" flags="0x0"/>
      <component glyphName="O" x="0" y="0" flags="0x0"/>
      <component glyphName="uni030B.case" x="534" y="0" flags="0x0"/>
    </TTGlyph>
    <TTGlyph name="Omacron" xMin="56" yMin="-8" xMax="559" yMax="888">
      <component glyphName=".ttfautohint" x="56" y="0" flags="0x0"/>
      <component glyphName="O" x="0" y="0" flags="0x0"/>
      <component glyphName="uni0304.case" x="477" y="0" flags="0x0"/>
    </TTGlyph>
    <TTGlyph name="Oslash" xMin="56" yMin="-55" xMax="559" yMax="743">
      <contour>
        <pt x="509" y="644" on="1"/>
        <pt x="541" y="609" on="0"/>
        <pt x="559" y="478" on="0"/>
        <pt x="559" y="344" on="1"/>
        <pt x="559" y="187" on="0"/>
        <pt x="531" y="51" on="0"/>
        <pt x="428" y="-8" on="0"/>
        <pt x="307" y="-8" on="1"/>
        <pt x="231" y="-8" on="0"/>
        <pt x="185" y="2" on="1"/>
        <pt x="157" y="-55" on="1"/>
        <pt x="56" y="-55" on="1"/>
        <pt x="106" y="44" on="1"/>
        <pt x="74" y="79" on="0"/>
        <pt x="56" y="208" on="0"/>
        <pt x="56" y="344" on="1"/>
        <pt x="56" y="502" on="0"/>
        <pt x="83" y="638" on="0"/>
        <pt x="186" y="696" on="0"/>
        <pt x="307" y="696" on="1"/>
        <pt x="385" y="696" on="0"/>
        <pt x="429" y="685" on="1"/>
        <pt x="458" y="743" on="1"/>
        <pt x="559" y="743" on="1"/>
      </contour>
      <contour>
        <pt x="176" y="227" on="0"/>
        <pt x="180" y="191" on="1"/>
        <pt x="379" y="587" on="1"/>
        <pt x="356" y="592" on="0"/>
        <pt x="307" y="592" on="1"/>
        <pt x="238" y="592" on="0"/>
        <pt x="190" y="568" on="0"/>
        <pt x="176" y="475" on="0"/>
        <pt x="176" y="344" on="1"/>
      </contour>
      <contour>
        <pt x="439" y="449" on="0"/>
        <pt x="435" y="497" on="1"/>
        <pt x="235" y="101" on="1"/>
        <pt x="253" y="97" on="0"/>
        <pt x="307" y="97" on="1"/>
        <pt x="376" y="97" on="0"/>
        <pt x="425" y="121" on="0"/>
        <pt x="439" y="214" on="0"/>
        <pt x="439" y="344" on="1"/>
      </contour>
    </TTGlyph>
    <TTGlyph name="Oslashacute" xMin="56" yMin="-55" xMax="559" yMax="888">
      <component glyphName=".ttfautohint" x="56" y="0" flags="0x0"/>
      <component glyphName="Oslash" x="0" y="0" flags="0x0"/>
      <component glyphName="acutecomb.case" x="462" y="0" flags="0x0"/>
    </TTGlyph>
    <TTGlyph name="Otilde" xMin="56" yMin="-8" xMax="559" yMax="889">
      <component glyphName=".ttfautohint" x="56" y="0" flags="0x0"/>
      <component glyphName="O" x="0" y="0" flags="0x0"/>
      <component glyphName="tilde" x="125" y="145" flags="0x4"/>
    </TTGlyph>
    <TTGlyph name="P" xMin="74" yMin="0" xMax="529" yMax="688">
      <contour>
        <pt x="74" y="688" on="1"/>
        <pt x="341" y="688" on="1"/>
        <pt x="418" y="688" on="0"/>
        <pt x="500" y="635" on="0"/>
        <pt x="529" y="538" on="0"/>
        <pt x="529" y="462" on="1"/>
        <pt x="529" y="388" on="0"/>
        <pt x="501" y="291" on="0"/>
        <pt x="417" y="235" on="0"/>
        <pt x="338" y="235" on="1"/>
        <pt x="194" y="235" on="1"/>
        <pt x="194" y="0" on="1"/>
        <pt x="74" y="0" on="1"/>
      </contour>
      <contour>
        <pt x="298" y="339" on="1"/>
        <pt x="350" y="339" on="0"/>
        <pt x="395" y="359" on="0"/>
        <pt x="409" y="408" on="0"/>
        <pt x="409" y="462" on="1"/>
        <pt x="409" y="516" on="0"/>
        <pt x="396" y="564" on="0"/>
        <pt x="352" y="584" on="0"/>
        <pt x="301" y="584" on="1"/>
        <pt x="194" y="584" on="1"/>
        <pt x="194" y="339" on="1"/>
      </contour>
    </TTGlyph>
    <TTGlyph name="Q" xMin="56" yMin="-115" xMax="585" yMax="696">
      <contour>
        <pt x="585" y="-112" on="1"/>
        <pt x="585" y="-115" on="1"/>
        <pt x="453" y="-115" on="1"/>
        <pt x="384" y="-5" on="1"/>
        <pt x="350" y="-8" on="0"/>
        <pt x="307" y="-8" on="1"/>
        <pt x="186" y="-8" on="0"/>
        <pt x="83" y="51" on="0"/>
        <pt x="56" y="186" on="0"/>
        <pt x="56" y="344" on="1"/>
        <pt x="56" y="502" on="0"/>
        <pt x="83" y="638" on="0"/>
        <pt x="186" y="696" on="0"/>
        <pt x="307" y="696" on="1"/>
        <pt x="428" y="696" on="0"/>
        <pt x="531" y="638" on="0"/>
        <pt x="559" y="502" on="0"/>
        <pt x="559" y="344" on="1"/>
        <pt x="559" y="244" on="0"/>
        <pt x="551" y="131" on="0"/>
        <pt x="521" y="52" on="0"/>
        <pt x="491" y="30" on="1"/>
      </contour>
      <contour>
        <pt x="320" y="96" on="1"/>
        <pt x="245" y="218" on="1"/>
        <pt x="367" y="218" on="1"/>
        <pt x="423" y="133" on="1"/>
        <pt x="433" y="156" on="0"/>
        <pt x="439" y="248" on="0"/>
        <pt x="439" y="344" on="1"/>
        <pt x="439" y="474" on="0"/>
        <pt x="425" y="567" on="0"/>
        <pt x="376" y="592" on="0"/>
        <pt x="307" y="592" on="1"/>
        <pt x="238" y="592" on="0"/>
        <pt x="190" y="568" on="0"/>
        <pt x="176" y="475" on="0"/>
        <pt x="176" y="344" on="1"/>
        <pt x="176" y="213" on="0"/>
        <pt x="190" y="121" on="0"/>
        <pt x="238" y="97" on="0"/>
        <pt x="307" y="97" on="1"/>
      </contour>
    </TTGlyph>
    <TTGlyph name="R" xMin="74" yMin="0" xMax="550" yMax="688">
      <contour>
        <pt x="423" y="0" on="1"/>
        <pt x="335" y="255" on="1"/>
        <pt x="194" y="255" on="1"/>
        <pt x="194" y="0" on="1"/>
        <pt x="74" y="0" on="1"/>
        <pt x="74" y="688" on="1"/>
        <pt x="350" y="688" on="1"/>
        <pt x="428" y="688" on="0"/>
        <pt x="510" y="637" on="0"/>
        <pt x="537" y="546" on="0"/>
        <pt x="537" y="472" on="1"/>
        <pt x="537" y="401" on="0"/>
        <pt x="502" y="297" on="0"/>
        <pt x="450" y="275" on="1"/>
        <pt x="550" y="0" on="1"/>
      </contour>
      <contour>
        <pt x="358" y="359" on="0"/>
        <pt x="403" y="379" on="0"/>
        <pt x="417" y="424" on="0"/>
        <pt x="417" y="472" on="1"/>
        <pt x="417" y="521" on="0"/>
        <pt x="404" y="565" on="0"/>
        <pt x="360" y="584" on="0"/>
        <pt x="310" y="584" on="1"/>
        <pt x="194" y="584" on="1"/>
        <pt x="194" y="359" on="1"/>
        <pt x="309" y="359" on="1"/>
      </contour>
    </TTGlyph>
    <TTGlyph name="R.ss01" xMin="74" yMin="0" xMax="541" yMax="688">
      <contour>
        <pt x="541" y="0" on="1"/>
        <pt x="422" y="0" on="1"/>
        <pt x="412" y="149" on="1"/>
        <pt x="409" y="191" on="0"/>
        <pt x="398" y="232" on="0"/>
        <pt x="358" y="257" on="0"/>
        <pt x="316" y="257" on="1"/>
        <pt x="194" y="257" on="1"/>
        <pt x="194" y="0" on="1"/>
        <pt x="74" y="0" on="1"/>
        <pt x="74" y="688" on="1"/>
        <pt x="361" y="688" on="1"/>
        <pt x="457" y="688" on="0"/>
        <pt x="537" y="596" on="0"/>
        <pt x="537" y="500" on="1"/>
        <pt x="537" y="412" on="0"/>
        <pt x="487" y="334" on="0"/>
        <pt x="432" y="319" on="1"/>
        <pt x="432" y="315" on="1"/>
        <pt x="465" y="306" on="0"/>
        <pt x="506" y="277" on="0"/>
        <pt x="528" y="219" on="0"/>
        <pt x="531" y="169" on="1"/>
      </contour>
      <contour>
        <pt x="358" y="361" on="0"/>
        <pt x="401" y="382" on="0"/>
        <pt x="415" y="428" on="0"/>
        <pt x="415" y="472" on="1"/>
        <pt x="415" y="520" on="0"/>
        <pt x="403" y="564" on="0"/>
        <pt x="362" y="584" on="0"/>
        <pt x="317" y="584" on="1"/>
        <pt x="194" y="584" on="1"/>
        <pt x="194" y="361" on="1"/>
        <pt x="315" y="361" on="1"/>
      </contour>
    </TTGlyph>
    <TTGlyph name="Racute" xMin="74" yMin="0" xMax="550" yMax="888">
      <component glyphName=".ttfautohint" x="74" y="0" flags="0x0"/>
      <component glyphName="R" x="0" y="0" flags="0x0"/>
      <component glyphName="acutecomb.case" x="448" y="0" flags="0x0"/>
    </TTGlyph>
    <TTGlyph name="Racute.ss01" xMin="74" yMin="0" xMax="541" yMax="888">
      <component glyphName=".ttfautohint" x="74" y="0" flags="0x0"/>
      <component glyphName="R.ss01" x="0" y="0" flags="0x0"/>
      <component glyphName="acutecomb.case" x="451" y="0" flags="0x0"/>
    </TTGlyph>
    <TTGlyph name="Rcaron" xMin="74" yMin="0" xMax="550" yMax="888">
      <component glyphName=".ttfautohint" x="74" y="0" flags="0x0"/>
      <component glyphName="R" x="0" y="0" flags="0x0"/>
      <component glyphName="uni030C.case" x="453" y="0" flags="0x0"/>
    </TTGlyph>
    <TTGlyph name="Rcaron.ss01" xMin="74" yMin="0" xMax="541" yMax="888">
      <component glyphName=".ttfautohint" x="74" y="0" flags="0x0"/>
      <component glyphName="R.ss01" x="0" y="0" flags="0x0"/>
      <component glyphName="uni030C.case" x="456" y="0" flags="0x0"/>
    </TTGlyph>
    <TTGlyph name="Rcommaaccent" xMin="74" yMin="-289" xMax="550" yMax="688">
      <component glyphName=".ttfautohint" x="74" y="0" flags="0x0"/>
      <component glyphName="R" x="0" y="0" flags="0x0"/>
      <component glyphName="uni0326" x="417" y="0" flags="0x0"/>
    </TTGlyph>
    <TTGlyph name="Rcommaaccent.ss01" xMin="74" yMin="-289" xMax="541" yMax="688">
      <component glyphName=".ttfautohint" x="74" y="0" flags="0x0"/>
      <component glyphName="R.ss01" x="0" y="0" flags="0x0"/>
      <component glyphName="uni0326" x="420" y="0" flags="0x0"/>
    </TTGlyph>
    <TTGlyph name="S" xMin="45" yMin="-8" xMax="491" yMax="696">
      <contour>
        <pt x="227" y="-8" on="0"/>
        <pt x="107" y="0" on="0"/>
        <pt x="62" y="7" on="1"/>
        <pt x="62" y="107" on="1"/>
        <pt x="164" y="97" on="0"/>
        <pt x="241" y="97" on="1"/>
        <pt x="287" y="97" on="0"/>
        <pt x="338" y="107" on="0"/>
        <pt x="351" y="118" on="1"/>
        <pt x="363" y="128" on="0"/>
        <pt x="370" y="162" on="0"/>
        <pt x="370" y="194" on="1"/>
        <pt x="370" y="232" on="0"/>
        <pt x="361" y="267" on="0"/>
        <pt x="333" y="282" on="0"/>
        <pt x="301" y="287" on="1"/>
        <pt x="170" y="305" on="1"/>
        <pt x="99" y="315" on="0"/>
        <pt x="45" y="406" on="0"/>
        <pt x="45" y="494" on="1"/>
        <pt x="45" y="576" on="0"/>
        <pt x="100" y="665" on="0"/>
        <pt x="197" y="696" on="0"/>
        <pt x="271" y="696" on="1"/>
        <pt x="321" y="696" on="0"/>
        <pt x="428" y="686" on="0"/>
        <pt x="461" y="678" on="1"/>
        <pt x="461" y="580" on="1"/>
        <pt x="429" y="585" on="0"/>
        <pt x="339" y="592" on="0"/>
        <pt x="300" y="592" on="1"/>
        <pt x="255" y="592" on="0"/>
        <pt x="202" y="584" on="0"/>
        <pt x="189" y="574" on="1"/>
        <pt x="174" y="564" on="0"/>
        <pt x="166" y="532" on="0"/>
        <pt x="166" y="499" on="1"/>
        <pt x="166" y="464" on="0"/>
        <pt x="175" y="433" on="0"/>
        <pt x="200" y="420" on="0"/>
        <pt x="230" y="416" on="1"/>
        <pt x="359" y="398" on="1"/>
        <pt x="402" y="393" on="0"/>
        <pt x="459" y="359" on="0"/>
        <pt x="474" y="321" on="1"/>
        <pt x="491" y="279" on="0"/>
        <pt x="491" y="204" on="1"/>
        <pt x="491" y="115" on="0"/>
        <pt x="440" y="23" on="0"/>
        <pt x="350" y="-8" on="0"/>
        <pt x="276" y="-8" on="1"/>
      </contour>
    </TTGlyph>
    <TTGlyph name="Sacute" xMin="45" yMin="-8" xMax="491" yMax="888">
      <component glyphName=".ttfautohint" x="45" y="0" flags="0x0"/>
      <component glyphName="S" x="0" y="0" flags="0x0"/>
      <component glyphName="acutecomb.case" x="422" y="0" flags="0x0"/>
    </TTGlyph>
    <TTGlyph name="Sacute.loclPLK" xMin="45" yMin="-8" xMax="491" yMax="888">
      <component glyphName=".ttfautohint" x="45" y="0" flags="0x0"/>
      <component glyphName="S" x="0" y="0" flags="0x0"/>
      <component glyphName="acute.case.loclPLK" x="203" y="0" flags="0x0"/>
    </TTGlyph>
    <TTGlyph name="Scaron" xMin="45" yMin="-8" xMax="491" yMax="889">
      <component glyphName=".ttfautohint" x="45" y="0" flags="0x0"/>
      <component glyphName="S" x="0" y="0" flags="0x0"/>
      <component glyphName="caron" x="117" y="146" flags="0x4"/>
    </TTGlyph>
    <TTGlyph name="Scedilla" xMin="45" yMin="-190" xMax="491" yMax="696">
      <contour>
        <pt x="491" y="122" on="0"/>
        <pt x="448" y="31" on="0"/>
        <pt x="369" y="-5" on="0"/>
        <pt x="307" y="-7" on="1"/>
        <pt x="271" y="-190" on="1"/>
        <pt x="165" y="-190" on="1"/>
        <pt x="165" y="-185" on="1"/>
        <pt x="227" y="-7" on="1"/>
        <pt x="132" y="-4" on="0"/>
        <pt x="62" y="7" on="1"/>
        <pt x="62" y="107" on="1"/>
        <pt x="164" y="97" on="0"/>
        <pt x="241" y="97" on="1"/>
        <pt x="287" y="97" on="0"/>
        <pt x="338" y="107" on="0"/>
        <pt x="351" y="118" on="1"/>
        <pt x="363" y="128" on="0"/>
        <pt x="370" y="162" on="0"/>
        <pt x="370" y="194" on="1"/>
        <pt x="370" y="232" on="0"/>
        <pt x="361" y="267" on="0"/>
        <pt x="333" y="282" on="0"/>
        <pt x="301" y="287" on="1"/>
        <pt x="170" y="305" on="1"/>
        <pt x="99" y="315" on="0"/>
        <pt x="45" y="406" on="0"/>
        <pt x="45" y="494" on="1"/>
        <pt x="45" y="576" on="0"/>
        <pt x="100" y="665" on="0"/>
        <pt x="197" y="696" on="0"/>
        <pt x="271" y="696" on="1"/>
        <pt x="321" y="696" on="0"/>
        <pt x="428" y="686" on="0"/>
        <pt x="461" y="678" on="1"/>
        <pt x="461" y="580" on="1"/>
        <pt x="429" y="585" on="0"/>
        <pt x="339" y="592" on="0"/>
        <pt x="300" y="592" on="1"/>
        <pt x="255" y="592" on="0"/>
        <pt x="202" y="584" on="0"/>
        <pt x="189" y="574" on="1"/>
        <pt x="174" y="564" on="0"/>
        <pt x="166" y="532" on="0"/>
        <pt x="166" y="499" on="1"/>
        <pt x="166" y="464" on="0"/>
        <pt x="175" y="433" on="0"/>
        <pt x="200" y="420" on="0"/>
        <pt x="230" y="416" on="1"/>
        <pt x="359" y="398" on="1"/>
        <pt x="402" y="393" on="0"/>
        <pt x="459" y="359" on="0"/>
        <pt x="474" y="321" on="1"/>
        <pt x="491" y="279" on="0"/>
        <pt x="491" y="204" on="1"/>
      </contour>
    </TTGlyph>
    <TTGlyph name="Scircumflex" xMin="45" yMin="-8" xMax="491" yMax="888">
      <component glyphName=".ttfautohint" x="45" y="0" flags="0x0"/>
      <component glyphName="S" x="0" y="0" flags="0x0"/>
      <component glyphName="uni0302.case" x="427" y="0" flags="0x0"/>
    </TTGlyph>
    <TTGlyph name="Scommaaccent" xMin="45" yMin="-289" xMax="491" yMax="696">
      <component glyphName=".ttfautohint" x="45" y="0" flags="0x0"/>
      <component glyphName="S" x="0" y="0" flags="0x0"/>
      <component glyphName="uni0326" x="391" y="0" flags="0x0"/>
    </TTGlyph>
    <TTGlyph name="T" xMin="18" yMin="0" xMax="484" yMax="688">
      <contour>
        <pt x="191" y="580" on="1"/>
        <pt x="18" y="580" on="1"/>
        <pt x="18" y="688" on="1"/>
        <pt x="484" y="688" on="1"/>
        <pt x="484" y="580" on="1"/>
        <pt x="311" y="580" on="1"/>
        <pt x="311" y="0" on="1"/>
        <pt x="191" y="0" on="1"/>
      </contour>
    </TTGlyph>
    <TTGlyph name="Tbar" xMin="18" yMin="0" xMax="484" yMax="688">
      <contour>
        <pt x="311" y="580" on="1"/>
        <pt x="311" y="381" on="1"/>
        <pt x="465" y="381" on="1"/>
        <pt x="465" y="286" on="1"/>
        <pt x="311" y="286" on="1"/>
        <pt x="311" y="0" on="1"/>
        <pt x="191" y="0" on="1"/>
        <pt x="191" y="286" on="1"/>
        <pt x="36" y="286" on="1"/>
        <pt x="36" y="381" on="1"/>
        <pt x="191" y="381" on="1"/>
        <pt x="191" y="580" on="1"/>
        <pt x="18" y="580" on="1"/>
        <pt x="18" y="688" on="1"/>
        <pt x="484" y="688" on="1"/>
        <pt x="484" y="580" on="1"/>
      </contour>
    </TTGlyph>
    <TTGlyph name="Tcaron" xMin="18" yMin="0" xMax="484" yMax="888">
      <component glyphName=".ttfautohint" x="18" y="0" flags="0x0"/>
      <component glyphName="T" x="0" y="0" flags="0x0"/>
      <component glyphName="uni030C.case" x="409" y="0" flags="0x0"/>
    </TTGlyph>
    <TTGlyph name="Thorn" xMin="74" yMin="0" xMax="529" yMax="688">
      <contour>
        <pt x="74" y="688" on="1"/>
        <pt x="194" y="688" on="1"/>
        <pt x="194" y="578" on="1"/>
        <pt x="341" y="578" on="1"/>
        <pt x="418" y="578" on="0"/>
        <pt x="500" y="524" on="0"/>
        <pt x="529" y="428" on="0"/>
        <pt x="529" y="351" on="1"/>
        <pt x="529" y="277" on="0"/>
        <pt x="501" y="181" on="0"/>
        <pt x="417" y="124" on="0"/>
        <pt x="338" y="124" on="1"/>
        <pt x="194" y="124" on="1"/>
        <pt x="194" y="0" on="1"/>
        <pt x="74" y="0" on="1"/>
      </contour>
      <contour>
        <pt x="298" y="229" on="1"/>
        <pt x="350" y="229" on="0"/>
        <pt x="395" y="249" on="0"/>
        <pt x="409" y="297" on="0"/>
        <pt x="409" y="351" on="1"/>
        <pt x="409" y="405" on="0"/>
        <pt x="396" y="453" on="0"/>
        <pt x="352" y="473" on="0"/>
        <pt x="301" y="473" on="1"/>
        <pt x="194" y="473" on="1"/>
        <pt x="194" y="229" on="1"/>
      </contour>
    </TTGlyph>
    <TTGlyph name="U" xMin="69" yMin="-8" xMax="542" yMax="688">
      <contour>
        <pt x="542" y="688" on="1"/>
        <pt x="542" y="305" on="1"/>
        <pt x="542" y="170" on="0"/>
        <pt x="511" y="44" on="0"/>
        <pt x="414" y="-8" on="0"/>
        <pt x="306" y="-8" on="1"/>
        <pt x="198" y="-8" on="0"/>
        <pt x="100" y="44" on="0"/>
        <pt x="69" y="170" on="0"/>
        <pt x="69" y="305" on="1"/>
        <pt x="69" y="688" on="1"/>
        <pt x="189" y="688" on="1"/>
        <pt x="189" y="266" on="1"/>
        <pt x="189" y="184" on="0"/>
        <pt x="202" y="120" on="0"/>
        <pt x="248" y="97" on="0"/>
        <pt x="306" y="97" on="1"/>
        <pt x="364" y="97" on="0"/>
        <pt x="410" y="120" on="0"/>
        <pt x="422" y="184" on="0"/>
        <pt x="422" y="266" on="1"/>
        <pt x="422" y="688" on="1"/>
      </contour>
    </TTGlyph>
    <TTGlyph name="Uacute" xMin="69" yMin="-8" xMax="542" yMax="894">
      <component glyphName=".ttfautohint" x="69" y="0" flags="0x0"/>
      <component glyphName="U" x="0" y="0" flags="0x0"/>
      <component glyphName="acute" x="248" y="151" flags="0x4"/>
    </TTGlyph>
    <TTGlyph name="Ubreve" xMin="69" yMin="-8" xMax="542" yMax="888">
      <component glyphName=".ttfautohint" x="69" y="0" flags="0x0"/>
      <component glyphName="U" x="0" y="0" flags="0x0"/>
      <component glyphName="uni0306.case" x="454" y="0" flags="0x0"/>
    </TTGlyph>
    <TTGlyph name="Ucircumflex" xMin="69" yMin="-8" xMax="542" yMax="889">
      <component glyphName=".ttfautohint" x="69" y="0" flags="0x0"/>
      <component glyphName="U" x="0" y="0" flags="0x0"/>
      <component glyphName="circumflex" x="150" y="146" flags="0x4"/>
    </TTGlyph>
    <TTGlyph name="Udieresis" xMin="69" yMin="-8" xMax="542" yMax="875">
      <component glyphName=".ttfautohint" x="69" y="0" flags="0x0"/>
      <component glyphName="U" x="0" y="0" flags="0x0"/>
      <component glyphName="dieresis" x="146" y="145" flags="0x4"/>
    </TTGlyph>
    <TTGlyph name="Ugrave" xMin="69" yMin="-8" xMax="542" yMax="894">
      <component glyphName=".ttfautohint" x="69" y="0" flags="0x0"/>
      <component glyphName="U" x="0" y="0" flags="0x0"/>
      <component glyphName="grave" x="156" y="151" flags="0x4"/>
    </TTGlyph>
    <TTGlyph name="Uhorn" xMin="69" yMin="-8" xMax="636" yMax="784">
      <contour>
        <pt x="636" y="784" on="1"/>
        <pt x="636" y="752" on="1"/>
        <pt x="636" y="711" on="0"/>
        <pt x="623" y="667" on="0"/>
        <pt x="583" y="644" on="0"/>
        <pt x="542" y="641" on="1"/>
        <pt x="542" y="305" on="1"/>
        <pt x="542" y="170" on="0"/>
        <pt x="511" y="44" on="0"/>
        <pt x="414" y="-8" on="0"/>
        <pt x="306" y="-8" on="1"/>
        <pt x="198" y="-8" on="0"/>
        <pt x="100" y="44" on="0"/>
        <pt x="69" y="170" on="0"/>
        <pt x="69" y="305" on="1"/>
        <pt x="69" y="688" on="1"/>
        <pt x="189" y="688" on="1"/>
        <pt x="189" y="266" on="1"/>
        <pt x="189" y="184" on="0"/>
        <pt x="202" y="120" on="0"/>
        <pt x="248" y="97" on="0"/>
        <pt x="306" y="97" on="1"/>
        <pt x="364" y="97" on="0"/>
        <pt x="410" y="120" on="0"/>
        <pt x="422" y="184" on="0"/>
        <pt x="422" y="266" on="1"/>
        <pt x="422" y="688" on="1"/>
        <pt x="494" y="688" on="1"/>
        <pt x="536" y="688" on="0"/>
        <pt x="561" y="707" on="0"/>
        <pt x="561" y="736" on="1"/>
        <pt x="561" y="784" on="1"/>
      </contour>
    </TTGlyph>
    <TTGlyph name="Uhungarumlaut" xMin="69" yMin="-8" xMax="542" yMax="880">
      <component glyphName=".ttfautohint" x="69" y="0" flags="0x0"/>
      <component glyphName="U" x="0" y="0" flags="0x0"/>
      <component glyphName="uni030B.case" x="532" y="0" flags="0x0"/>
    </TTGlyph>
    <TTGlyph name="Umacron" xMin="69" yMin="-8" xMax="542" yMax="888">
      <component glyphName=".ttfautohint" x="69" y="0" flags="0x0"/>
      <component glyphName="U" x="0" y="0" flags="0x0"/>
      <component glyphName="uni0304.case" x="475" y="0" flags="0x0"/>
    </TTGlyph>
    <TTGlyph name="Uogonek" xMin="69" yMin="-196" xMax="542" yMax="688">
      <contour>
        <pt x="542" y="688" on="1"/>
        <pt x="542" y="305" on="1"/>
        <pt x="542" y="217" on="0"/>
        <pt x="531" y="111" on="0"/>
        <pt x="500" y="41" on="0"/>
        <pt x="469" y="22" on="1"/>
        <pt x="430" y="-3" on="0"/>
        <pt x="389" y="-56" on="0"/>
        <pt x="389" y="-91" on="1"/>
        <pt x="389" y="-128" on="0"/>
        <pt x="434" y="-128" on="1"/>
        <pt x="449" y="-127" on="1"/>
        <pt x="449" y="-193" on="1"/>
        <pt x="418" y="-196" on="0"/>
        <pt x="399" y="-196" on="1"/>
        <pt x="295" y="-196" on="0"/>
        <pt x="295" y="-115" on="1"/>
        <pt x="295" y="-63" on="0"/>
        <pt x="346" y="-7" on="1"/>
        <pt x="333" y="-8" on="0"/>
        <pt x="306" y="-8" on="1"/>
        <pt x="198" y="-8" on="0"/>
        <pt x="100" y="44" on="0"/>
        <pt x="69" y="170" on="0"/>
        <pt x="69" y="305" on="1"/>
        <pt x="69" y="688" on="1"/>
        <pt x="189" y="688" on="1"/>
        <pt x="189" y="266" on="1"/>
        <pt x="189" y="184" on="0"/>
        <pt x="202" y="120" on="0"/>
        <pt x="248" y="97" on="0"/>
        <pt x="306" y="97" on="1"/>
        <pt x="364" y="97" on="0"/>
        <pt x="410" y="120" on="0"/>
        <pt x="422" y="184" on="0"/>
        <pt x="422" y="266" on="1"/>
        <pt x="422" y="688" on="1"/>
      </contour>
    </TTGlyph>
    <TTGlyph name="Uring" xMin="69" yMin="-8" xMax="542" yMax="937">
      <component glyphName=".ttfautohint" x="69" y="0" flags="0x0"/>
      <component glyphName="U" x="0" y="0" flags="0x0"/>
      <component glyphName="uni030A.case" x="449" y="0" flags="0x0"/>
    </TTGlyph>
    <TTGlyph name="Utilde" xMin="69" yMin="-8" xMax="542" yMax="889">
      <component glyphName=".ttfautohint" x="69" y="0" flags="0x0"/>
      <component glyphName="U" x="0" y="0" flags="0x0"/>
      <component glyphName="tildecomb.case" x="490" y="0" flags="0x0"/>
    </TTGlyph>
    <TTGlyph name="V" xMin="16" yMin="0" xMax="558" yMax="688">
      <contour>
        <pt x="16" y="688" on="1"/>
        <pt x="139" y="688" on="1"/>
        <pt x="286" y="131" on="1"/>
        <pt x="292" y="131" on="1"/>
        <pt x="437" y="688" on="1"/>
        <pt x="558" y="688" on="1"/>
        <pt x="369" y="0" on="1"/>
        <pt x="204" y="0" on="1"/>
      </contour>
    </TTGlyph>
    <TTGlyph name="W" xMin="23" yMin="0" xMax="846" yMax="688">
      <contour>
        <pt x="437" y="507" on="1"/>
        <pt x="432" y="507" on="1"/>
        <pt x="322" y="0" on="1"/>
        <pt x="166" y="0" on="1"/>
        <pt x="23" y="688" on="1"/>
        <pt x="144" y="688" on="1"/>
        <pt x="248" y="142" on="1"/>
        <pt x="254" y="142" on="1"/>
        <pt x="370" y="688" on="1"/>
        <pt x="504" y="688" on="1"/>
        <pt x="623" y="142" on="1"/>
        <pt x="628" y="142" on="1"/>
        <pt x="727" y="688" on="1"/>
        <pt x="846" y="688" on="1"/>
        <pt x="703" y="0" on="1"/>
        <pt x="547" y="0" on="1"/>
      </contour>
    </TTGlyph>
    <TTGlyph name="Wacute" xMin="23" yMin="0" xMax="846" yMax="888">
      <component glyphName=".ttfautohint" x="23" y="0" flags="0x0"/>
      <component glyphName="W" x="0" y="0" flags="0x0"/>
      <component glyphName="acutecomb.case" x="588" y="0" flags="0x0"/>
    </TTGlyph>
    <TTGlyph name="Wcircumflex" xMin="23" yMin="0" xMax="846" yMax="888">
      <component glyphName=".ttfautohint" x="23" y="0" flags="0x0"/>
      <component glyphName="W" x="0" y="0" flags="0x0"/>
      <component glyphName="uni0302.case" x="593" y="0" flags="0x0"/>
    </TTGlyph>
    <TTGlyph name="Wdieresis" xMin="23" yMin="0" xMax="846" yMax="875">
      <component glyphName=".ttfautohint" x="23" y="0" flags="0x0"/>
      <component glyphName="W" x="0" y="0" flags="0x0"/>
      <component glyphName="uni0308.case" x="593" y="0" flags="0x0"/>
    </TTGlyph>
    <TTGlyph name="Wgrave" xMin="23" yMin="0" xMax="846" yMax="888">
      <component glyphName=".ttfautohint" x="23" y="0" flags="0x0"/>
      <component glyphName="W" x="0" y="0" flags="0x0"/>
      <component glyphName="gravecomb.case" x="498" y="0" flags="0x0"/>
    </TTGlyph>
    <TTGlyph name="X" xMin="18" yMin="0" xMax="572" yMax="688">
      <contour>
        <pt x="296" y="253" on="1"/>
        <pt x="289" y="253" on="1"/>
        <pt x="150" y="0" on="1"/>
        <pt x="18" y="0" on="1"/>
        <pt x="219" y="346" on="1"/>
        <pt x="21" y="688" on="1"/>
        <pt x="157" y="688" on="1"/>
        <pt x="293" y="444" on="1"/>
        <pt x="301" y="444" on="1"/>
        <pt x="437" y="688" on="1"/>
        <pt x="569" y="688" on="1"/>
        <pt x="372" y="349" on="1"/>
        <pt x="572" y="0" on="1"/>
        <pt x="436" y="0" on="1"/>
      </contour>
    </TTGlyph>
    <TTGlyph name="Y" xMin="4" yMin="0" xMax="535" yMax="688">
      <contour>
        <pt x="209" y="246" on="1"/>
        <pt x="4" y="688" on="1"/>
        <pt x="129" y="688" on="1"/>
        <pt x="269" y="378" on="1"/>
        <pt x="276" y="378" on="1"/>
        <pt x="414" y="688" on="1"/>
        <pt x="535" y="688" on="1"/>
        <pt x="329" y="246" on="1"/>
        <pt x="329" y="0" on="1"/>
        <pt x="209" y="0" on="1"/>
      </contour>
    </TTGlyph>
    <TTGlyph name="Y.loclGUA" xMin="35" yMin="0" xMax="508" yMax="688">
      <contour>
        <pt x="508" y="688" on="1"/>
        <pt x="508" y="505" on="1"/>
        <pt x="508" y="383" on="0"/>
        <pt x="484" y="260" on="0"/>
        <pt x="409" y="200" on="0"/>
        <pt x="329" y="194" on="1"/>
        <pt x="329" y="0" on="1"/>
        <pt x="209" y="0" on="1"/>
        <pt x="209" y="194" on="1"/>
        <pt x="131" y="201" on="0"/>
        <pt x="58" y="261" on="0"/>
        <pt x="35" y="383" on="0"/>
        <pt x="35" y="505" on="1"/>
        <pt x="35" y="688" on="1"/>
        <pt x="155" y="688" on="1"/>
        <pt x="155" y="466" on="1"/>
        <pt x="155" y="385" on="0"/>
        <pt x="167" y="320" on="0"/>
        <pt x="214" y="297" on="0"/>
        <pt x="271" y="297" on="1"/>
        <pt x="329" y="297" on="0"/>
        <pt x="375" y="320" on="0"/>
        <pt x="388" y="385" on="0"/>
        <pt x="388" y="466" on="1"/>
        <pt x="388" y="688" on="1"/>
      </contour>
    </TTGlyph>
    <TTGlyph name="Yacute" xMin="4" yMin="0" xMax="535" yMax="894">
      <component glyphName=".ttfautohint" x="4" y="0" flags="0x0"/>
      <component glyphName="Y" x="0" y="0" flags="0x0"/>
      <component glyphName="acute" x="215" y="151" flags="0x4"/>
    </TTGlyph>
    <TTGlyph name="Yacute.loclGUA" xMin="35" yMin="0" xMax="508" yMax="888">
      <component glyphName=".ttfautohint" x="35" y="0" flags="0x0"/>
      <component glyphName="Y.loclGUA" x="0" y="0" flags="0x0"/>
      <component glyphName="acutecomb.case" x="424" y="0" flags="0x0"/>
    </TTGlyph>
    <TTGlyph name="Ycircumflex" xMin="4" yMin="0" xMax="535" yMax="888">
      <component glyphName=".ttfautohint" x="4" y="0" flags="0x0"/>
      <component glyphName="Y" x="0" y="0" flags="0x0"/>
      <component glyphName="uni0302.case" x="428" y="0" flags="0x0"/>
    </TTGlyph>
    <TTGlyph name="Ycircumflex.loclGUA" xMin="35" yMin="0" xMax="508" yMax="888">
      <component glyphName=".ttfautohint" x="35" y="0" flags="0x0"/>
      <component glyphName="Y.loclGUA" x="0" y="0" flags="0x0"/>
      <component glyphName="uni0302.case" x="429" y="0" flags="0x0"/>
    </TTGlyph>
    <TTGlyph name="Ydieresis" xMin="4" yMin="0" xMax="535" yMax="875">
      <component glyphName=".ttfautohint" x="4" y="0" flags="0x0"/>
      <component glyphName="Y" x="0" y="0" flags="0x0"/>
      <component glyphName="dieresis" x="115" y="145" flags="0x4"/>
    </TTGlyph>
    <TTGlyph name="Ydieresis.loclGUA" xMin="35" yMin="0" xMax="508" yMax="875">
      <component glyphName=".ttfautohint" x="35" y="0" flags="0x0"/>
      <component glyphName="Y.loclGUA" x="0" y="0" flags="0x0"/>
      <component glyphName="uni0308.case" x="429" y="0" flags="0x0"/>
    </TTGlyph>
    <TTGlyph name="Ygrave" xMin="4" yMin="0" xMax="535" yMax="888">
      <component glyphName=".ttfautohint" x="4" y="0" flags="0x0"/>
      <component glyphName="Y" x="0" y="0" flags="0x0"/>
      <component glyphName="gravecomb.case" x="333" y="0" flags="0x0"/>
    </TTGlyph>
    <TTGlyph name="Ygrave.loclGUA" xMin="35" yMin="0" xMax="508" yMax="888">
      <component glyphName=".ttfautohint" x="35" y="0" flags="0x0"/>
      <component glyphName="Y.loclGUA" x="0" y="0" flags="0x0"/>
      <component glyphName="gravecomb.case" x="334" y="0" flags="0x0"/>
    </TTGlyph>
    <TTGlyph name="Z" xMin="40" yMin="0" xMax="487" yMax="688">
      <contour>
        <pt x="40" y="99" on="1"/>
        <pt x="339" y="584" on="1"/>
        <pt x="49" y="584" on="1"/>
        <pt x="49" y="688" on="1"/>
        <pt x="484" y="688" on="1"/>
        <pt x="484" y="591" on="1"/>
        <pt x="183" y="104" on="1"/>
        <pt x="487" y="104" on="1"/>
        <pt x="487" y="0" on="1"/>
        <pt x="40" y="0" on="1"/>
      </contour>
    </TTGlyph>
    <TTGlyph name="Zacute" xMin="40" yMin="0" xMax="487" yMax="888">
      <component glyphName=".ttfautohint" x="40" y="0" flags="0x0"/>
      <component glyphName="Z" x="0" y="0" flags="0x0"/>
      <component glyphName="acutecomb.case" x="417" y="0" flags="0x0"/>
    </TTGlyph>
    <TTGlyph name="Zacute.loclPLK" xMin="40" yMin="0" xMax="487" yMax="888">
      <component glyphName=".ttfautohint" x="40" y="0" flags="0x0"/>
      <component glyphName="Z" x="0" y="0" flags="0x0"/>
      <component glyphName="acute.case.loclPLK" x="198" y="0" flags="0x0"/>
    </TTGlyph>
    <TTGlyph name="Zcaron" xMin="40" yMin="0" xMax="487" yMax="889">
      <component glyphName=".ttfautohint" x="40" y="0" flags="0x0"/>
      <component glyphName="Z" x="0" y="0" flags="0x0"/>
      <component glyphName="caron" x="115" y="146" flags="0x4"/>
    </TTGlyph>
    <TTGlyph name="Zdotaccent" xMin="40" yMin="0" xMax="487" yMax="875">
      <component glyphName=".ttfautohint" x="40" y="0" flags="0x0"/>
      <component glyphName="Z" x="0" y="0" flags="0x0"/>
      <component glyphName="uni0307.case" x="328" y="0" flags="0x0"/>
    </TTGlyph>
    <TTGlyph name="a" xMin="39" yMin="-8" xMax="433" yMax="518">
      <contour>
        <pt x="105" y="-8" on="0"/>
        <pt x="39" y="63" on="0"/>
        <pt x="39" y="143" on="1"/>
        <pt x="39" y="203" on="0"/>
        <pt x="65" y="271" on="0"/>
        <pt x="127" y="302" on="0"/>
        <pt x="183" y="302" on="1"/>
        <pt x="230" y="302" on="0"/>
        <pt x="320" y="298" on="1"/>
        <pt x="320" y="320" on="1"/>
        <pt x="320" y="370" on="0"/>
        <pt x="302" y="411" on="0"/>
        <pt x="256" y="422" on="0"/>
        <pt x="201" y="422" on="1"/>
        <pt x="176" y="422" on="0"/>
        <pt x="93" y="417" on="0"/>
        <pt x="67" y="414" on="1"/>
        <pt x="67" y="503" on="1"/>
        <pt x="146" y="518" on="0"/>
        <pt x="236" y="518" on="1"/>
        <pt x="321" y="518" on="0"/>
        <pt x="404" y="479" on="0"/>
        <pt x="433" y="394" on="0"/>
        <pt x="433" y="315" on="1"/>
        <pt x="433" y="0" on="1"/>
        <pt x="328" y="0" on="1"/>
        <pt x="324" y="63" on="1"/>
        <pt x="318" y="63" on="1"/>
        <pt x="286" y="-8" on="0"/>
        <pt x="176" y="-8" on="1"/>
      </contour>
      <contour>
        <pt x="256" y="89" on="0"/>
        <pt x="292" y="100" on="0"/>
        <pt x="303" y="116" on="1"/>
        <pt x="320" y="139" on="0"/>
        <pt x="320" y="202" on="1"/>
        <pt x="320" y="221" on="1"/>
        <pt x="213" y="221" on="1"/>
        <pt x="186" y="221" on="0"/>
        <pt x="160" y="211" on="0"/>
        <pt x="150" y="184" on="0"/>
        <pt x="150" y="154" on="1"/>
        <pt x="150" y="125" on="0"/>
        <pt x="162" y="99" on="0"/>
        <pt x="194" y="89" on="0"/>
        <pt x="228" y="89" on="1"/>
      </contour>
    </TTGlyph>
    <TTGlyph name="aacute" xMin="39" yMin="-8" xMax="433" yMax="743">
      <component glyphName=".ttfautohint" x="39" y="0" flags="0x0"/>
      <component glyphName="a" x="0" y="0" flags="0x0"/>
      <component glyphName="acute" x="183" y="0" flags="0x0"/>
    </TTGlyph>
    <TTGlyph name="abreve" xMin="39" yMin="-8" xMax="433" yMax="743">
      <component glyphName=".ttfautohint" x="39" y="0" flags="0x0"/>
      <component glyphName="a" x="0" y="0" flags="0x0"/>
      <component glyphName="uni0306" x="397" y="0" flags="0x0"/>
    </TTGlyph>
    <TTGlyph name="acircumflex" xMin="39" yMin="-8" xMax="433" yMax="743">
      <component glyphName=".ttfautohint" x="39" y="0" flags="0x0"/>
      <component glyphName="a" x="0" y="0" flags="0x0"/>
      <component glyphName="circumflex" x="91" y="0" flags="0x0"/>
    </TTGlyph>
    <TTGlyph name="acute" xMin="14" yMin="600" xMax="205" yMax="743">
      <contour>
        <pt x="14" y="605" on="1"/>
        <pt x="89" y="743" on="1"/>
        <pt x="205" y="743" on="1"/>
        <pt x="205" y="738" on="1"/>
        <pt x="100" y="600" on="1"/>
        <pt x="14" y="600" on="1"/>
      </contour>
    </TTGlyph>
    <TTGlyph name="acute.case.loclPLK" xMin="14" yMin="745" xMax="165" yMax="888">
      <contour>
        <pt x="14" y="750" on="1"/>
        <pt x="49" y="888" on="1"/>
        <pt x="165" y="888" on="1"/>
        <pt x="165" y="883" on="1"/>
        <pt x="100" y="745" on="1"/>
        <pt x="14" y="745" on="1"/>
      </contour>
    </TTGlyph>
    <TTGlyph name="acute.loclPLK" xMin="14" yMin="600" xMax="165" yMax="743">
      <contour>
        <pt x="14" y="605" on="1"/>
        <pt x="49" y="743" on="1"/>
        <pt x="165" y="743" on="1"/>
        <pt x="165" y="738" on="1"/>
        <pt x="100" y="600" on="1"/>
        <pt x="14" y="600" on="1"/>
      </contour>
    </TTGlyph>
    <TTGlyph name="acutecomb" xMin="-205" yMin="600" xMax="-14" yMax="743">
      <contour>
        <pt x="-205" y="605" on="1"/>
        <pt x="-130" y="743" on="1"/>
        <pt x="-14" y="743" on="1"/>
        <pt x="-14" y="738" on="1"/>
        <pt x="-119" y="600" on="1"/>
        <pt x="-205" y="600" on="1"/>
      </contour>
    </TTGlyph>
    <TTGlyph name="acutecomb.case" xMin="-205" yMin="745" xMax="-14" yMax="888">
      <contour>
        <pt x="-205" y="750" on="1"/>
        <pt x="-130" y="888" on="1"/>
        <pt x="-14" y="888" on="1"/>
        <pt x="-14" y="883" on="1"/>
        <pt x="-119" y="745" on="1"/>
        <pt x="-205" y="745" on="1"/>
      </contour>
    </TTGlyph>
    <TTGlyph name="adieresis" xMin="39" yMin="-8" xMax="433" yMax="725">
      <component glyphName=".ttfautohint" x="39" y="0" flags="0x0"/>
      <component glyphName="a" x="0" y="0" flags="0x0"/>
      <component glyphName="dieresis" x="90" y="-5" flags="0x4"/>
    </TTGlyph>
    <TTGlyph name="ae" xMin="39" yMin="-8" xMax="717" yMax="518">
      <contour>
        <pt x="717" y="218" on="1"/>
        <pt x="433" y="218" on="1"/>
        <pt x="433" y="156" on="0"/>
        <pt x="447" y="106" on="0"/>
        <pt x="497" y="88" on="0"/>
        <pt x="560" y="88" on="1"/>
        <pt x="623" y="88" on="0"/>
        <pt x="700" y="96" on="1"/>
        <pt x="700" y="7" on="1"/>
        <pt x="670" y="0" on="0"/>
        <pt x="578" y="-8" on="0"/>
        <pt x="535" y="-8" on="1"/>
        <pt x="466" y="-8" on="0"/>
        <pt x="386" y="18" on="0"/>
        <pt x="364" y="48" on="1"/>
        <pt x="336" y="14" on="0"/>
        <pt x="249" y="-8" on="0"/>
        <pt x="197" y="-8" on="1"/>
        <pt x="114" y="-8" on="0"/>
        <pt x="39" y="63" on="0"/>
        <pt x="39" y="143" on="1"/>
        <pt x="39" y="203" on="0"/>
        <pt x="65" y="270" on="0"/>
        <pt x="127" y="301" on="0"/>
        <pt x="183" y="301" on="1"/>
        <pt x="216" y="301" on="0"/>
        <pt x="296" y="299" on="0"/>
        <pt x="319" y="298" on="1"/>
        <pt x="319" y="320" on="1"/>
        <pt x="319" y="369" on="0"/>
        <pt x="302" y="410" on="0"/>
        <pt x="256" y="422" on="0"/>
        <pt x="200" y="422" on="1"/>
        <pt x="174" y="422" on="0"/>
        <pt x="89" y="417" on="0"/>
        <pt x="67" y="413" on="1"/>
        <pt x="67" y="503" on="1"/>
        <pt x="155" y="518" on="0"/>
        <pt x="236" y="518" on="1"/>
        <pt x="289" y="518" on="0"/>
        <pt x="359" y="498" on="0"/>
        <pt x="381" y="477" on="1"/>
        <pt x="425" y="518" on="0"/>
        <pt x="526" y="518" on="1"/>
        <pt x="616" y="518" on="0"/>
        <pt x="697" y="465" on="0"/>
        <pt x="717" y="362" on="0"/>
        <pt x="717" y="254" on="1"/>
      </contour>
      <contour>
        <pt x="483" y="423" on="0"/>
        <pt x="446" y="404" on="0"/>
        <pt x="434" y="354" on="0"/>
        <pt x="433" y="297" on="1"/>
        <pt x="608" y="297" on="1"/>
        <pt x="608" y="354" on="0"/>
        <pt x="594" y="406" on="0"/>
        <pt x="560" y="423" on="0"/>
        <pt x="524" y="423" on="1"/>
      </contour>
      <contour>
        <pt x="319" y="219" on="1"/>
        <pt x="211" y="219" on="1"/>
        <pt x="184" y="219" on="0"/>
        <pt x="158" y="210" on="0"/>
        <pt x="148" y="183" on="0"/>
        <pt x="148" y="153" on="1"/>
        <pt x="148" y="124" on="0"/>
        <pt x="159" y="97" on="0"/>
        <pt x="191" y="87" on="0"/>
        <pt x="226" y="87" on="1"/>
        <pt x="260" y="87" on="0"/>
        <pt x="299" y="103" on="0"/>
        <pt x="308" y="126" on="1"/>
        <pt x="319" y="149" on="0"/>
        <pt x="319" y="200" on="1"/>
      </contour>
    </TTGlyph>
    <TTGlyph name="aeacute" xMin="39" yMin="-8" xMax="717" yMax="743">
      <component glyphName=".ttfautohint" x="39" y="0" flags="0x0"/>
      <component glyphName="ae" x="0" y="0" flags="0x0"/>
      <component glyphName="acutecomb" x="537" y="0" flags="0x0"/>
    </TTGlyph>
    <TTGlyph name="agrave" xMin="39" yMin="-8" xMax="433" yMax="743">
      <component glyphName=".ttfautohint" x="39" y="0" flags="0x0"/>
      <component glyphName="a" x="0" y="0" flags="0x0"/>
      <component glyphName="grave" x="96" y="0" flags="0x0"/>
    </TTGlyph>
    <TTGlyph name="amacron" xMin="39" yMin="-8" xMax="433" yMax="743">
      <component glyphName=".ttfautohint" x="39" y="0" flags="0x0"/>
      <component glyphName="a" x="0" y="0" flags="0x0"/>
      <component glyphName="uni0304" x="418" y="0" flags="0x0"/>
    </TTGlyph>
    <TTGlyph name="ampersand" xMin="54" yMin="-8" xMax="619" yMax="696">
      <contour>
        <pt x="619" y="396" on="1"/>
        <pt x="619" y="299" on="1"/>
        <pt x="522" y="299" on="1"/>
        <pt x="522" y="11" on="1"/>
        <pt x="477" y="3" on="0"/>
        <pt x="362" y="-8" on="0"/>
        <pt x="317" y="-8" on="1"/>
        <pt x="209" y="-8" on="0"/>
        <pt x="95" y="37" on="0"/>
        <pt x="54" y="118" on="0"/>
        <pt x="54" y="183" on="1"/>
        <pt x="54" y="263" on="0"/>
        <pt x="107" y="334" on="0"/>
        <pt x="165" y="349" on="1"/>
        <pt x="165" y="353" on="1"/>
        <pt x="110" y="367" on="0"/>
        <pt x="59" y="442" on="0"/>
        <pt x="59" y="516" on="1"/>
        <pt x="59" y="574" on="0"/>
        <pt x="105" y="653" on="0"/>
        <pt x="218" y="696" on="0"/>
        <pt x="318" y="696" on="1"/>
        <pt x="363" y="696" on="0"/>
        <pt x="475" y="685" on="0"/>
        <pt x="520" y="676" on="1"/>
        <pt x="520" y="586" on="1"/>
        <pt x="481" y="591" on="0"/>
        <pt x="383" y="598" on="0"/>
        <pt x="348" y="598" on="1"/>
        <pt x="271" y="598" on="0"/>
        <pt x="199" y="581" on="0"/>
        <pt x="175" y="539" on="0"/>
        <pt x="175" y="496" on="1"/>
        <pt x="175" y="459" on="0"/>
        <pt x="188" y="418" on="0"/>
        <pt x="231" y="396" on="0"/>
        <pt x="275" y="396" on="1"/>
        <pt x="335" y="396" on="1"/>
        <pt x="335" y="299" on="1"/>
        <pt x="275" y="299" on="1"/>
        <pt x="229" y="299" on="0"/>
        <pt x="184" y="279" on="0"/>
        <pt x="169" y="236" on="0"/>
        <pt x="169" y="194" on="1"/>
        <pt x="169" y="148" on="0"/>
        <pt x="199" y="103" on="0"/>
        <pt x="263" y="89" on="0"/>
        <pt x="324" y="89" on="1"/>
        <pt x="375" y="89" on="0"/>
        <pt x="410" y="94" on="1"/>
        <pt x="410" y="396" on="1"/>
      </contour>
    </TTGlyph>
    <TTGlyph name="aogonek" xMin="39" yMin="-196" xMax="435" yMax="518">
      <contour>
        <pt x="435" y="-127" on="1"/>
        <pt x="435" y="-193" on="1"/>
        <pt x="402" y="-196" on="0"/>
        <pt x="385" y="-196" on="1"/>
        <pt x="281" y="-196" on="0"/>
        <pt x="281" y="-117" on="1"/>
        <pt x="281" y="-86" on="0"/>
        <pt x="313" y="-26" on="0"/>
        <pt x="339" y="0" on="1"/>
        <pt x="328" y="0" on="1"/>
        <pt x="324" y="63" on="1"/>
        <pt x="318" y="63" on="1"/>
        <pt x="286" y="-8" on="0"/>
        <pt x="176" y="-8" on="1"/>
        <pt x="105" y="-8" on="0"/>
        <pt x="39" y="63" on="0"/>
        <pt x="39" y="143" on="1"/>
        <pt x="39" y="203" on="0"/>
        <pt x="65" y="271" on="0"/>
        <pt x="127" y="302" on="0"/>
        <pt x="183" y="302" on="1"/>
        <pt x="230" y="302" on="0"/>
        <pt x="320" y="298" on="1"/>
        <pt x="320" y="320" on="1"/>
        <pt x="320" y="370" on="0"/>
        <pt x="302" y="411" on="0"/>
        <pt x="256" y="422" on="0"/>
        <pt x="201" y="422" on="1"/>
        <pt x="176" y="422" on="0"/>
        <pt x="93" y="417" on="0"/>
        <pt x="67" y="414" on="1"/>
        <pt x="67" y="503" on="1"/>
        <pt x="146" y="518" on="0"/>
        <pt x="236" y="518" on="1"/>
        <pt x="321" y="518" on="0"/>
        <pt x="404" y="479" on="0"/>
        <pt x="433" y="394" on="0"/>
        <pt x="433" y="315" on="1"/>
        <pt x="433" y="0" on="1"/>
        <pt x="411" y="-15" on="0"/>
        <pt x="375" y="-69" on="0"/>
        <pt x="375" y="-93" on="1"/>
        <pt x="375" y="-128" on="0"/>
        <pt x="418" y="-128" on="1"/>
      </contour>
      <contour>
        <pt x="320" y="221" on="1"/>
        <pt x="213" y="221" on="1"/>
        <pt x="186" y="221" on="0"/>
        <pt x="160" y="211" on="0"/>
        <pt x="150" y="184" on="0"/>
        <pt x="150" y="154" on="1"/>
        <pt x="150" y="125" on="0"/>
        <pt x="162" y="99" on="0"/>
        <pt x="194" y="89" on="0"/>
        <pt x="228" y="89" on="1"/>
        <pt x="256" y="89" on="0"/>
        <pt x="292" y="100" on="0"/>
        <pt x="303" y="116" on="1"/>
        <pt x="320" y="139" on="0"/>
        <pt x="320" y="202" on="1"/>
      </contour>
    </TTGlyph>
    <TTGlyph name="approxequal" xMin="57" yMin="95" xMax="417" yMax="412">
      <contour>
        <pt x="57" y="323" on="0"/>
        <pt x="67" y="373" on="0"/>
        <pt x="102" y="401" on="0"/>
        <pt x="139" y="401" on="1"/>
        <pt x="181" y="401" on="0"/>
        <pt x="251" y="381" on="1"/>
        <pt x="304" y="366" on="0"/>
        <pt x="327" y="366" on="1"/>
        <pt x="345" y="366" on="0"/>
        <pt x="354" y="384" on="0"/>
        <pt x="354" y="412" on="1"/>
        <pt x="417" y="412" on="1"/>
        <pt x="417" y="364" on="0"/>
        <pt x="408" y="313" on="0"/>
        <pt x="373" y="286" on="0"/>
        <pt x="336" y="286" on="1"/>
        <pt x="295" y="286" on="0"/>
        <pt x="225" y="306" on="1"/>
        <pt x="216" y="308" on="0"/>
        <pt x="166" y="321" on="0"/>
        <pt x="149" y="321" on="1"/>
        <pt x="130" y="321" on="0"/>
        <pt x="122" y="304" on="0"/>
        <pt x="122" y="275" on="1"/>
        <pt x="57" y="275" on="1"/>
      </contour>
      <contour>
        <pt x="57" y="143" on="0"/>
        <pt x="67" y="194" on="0"/>
        <pt x="102" y="222" on="0"/>
        <pt x="139" y="222" on="1"/>
        <pt x="164" y="222" on="0"/>
        <pt x="215" y="211" on="0"/>
        <pt x="251" y="201" on="1"/>
        <pt x="258" y="199" on="0"/>
        <pt x="309" y="186" on="0"/>
        <pt x="327" y="186" on="1"/>
        <pt x="345" y="186" on="0"/>
        <pt x="354" y="204" on="0"/>
        <pt x="354" y="232" on="1"/>
        <pt x="417" y="232" on="1"/>
        <pt x="417" y="184" on="0"/>
        <pt x="408" y="134" on="0"/>
        <pt x="373" y="106" on="0"/>
        <pt x="336" y="106" on="1"/>
        <pt x="295" y="106" on="0"/>
        <pt x="225" y="126" on="1"/>
        <pt x="171" y="141" on="0"/>
        <pt x="149" y="141" on="1"/>
        <pt x="130" y="141" on="0"/>
        <pt x="122" y="124" on="0"/>
        <pt x="122" y="95" on="1"/>
        <pt x="57" y="95" on="1"/>
      </contour>
    </TTGlyph>
    <TTGlyph name="aring" xMin="39" yMin="-8" xMax="433" yMax="802">
      <component glyphName=".ttfautohint" x="39" y="0" flags="0x0"/>
      <component glyphName="a" x="0" y="0" flags="0x0"/>
      <component glyphName="ring" x="106" y="-20" flags="0x4"/>
    </TTGlyph>
    <TTGlyph name="aringacute" xMin="39" yMin="-8" xMax="433" yMax="995">
      <component glyphName=".ttfautohint" x="39" y="0" flags="0x0"/>
      <component glyphName="a" x="0" y="0" flags="0x0"/>
      <component glyphName="uni030A" x="392" y="0" flags="0x0"/>
      <component glyphName="acutecomb" x="405" y="252" flags="0x4"/>
    </TTGlyph>
    <TTGlyph name="arrowboth" xMin="55" yMin="162" xMax="828" yMax="447">
      <contour>
        <pt x="55" y="304" on="1"/>
        <pt x="340" y="447" on="1"/>
        <pt x="307" y="349" on="1"/>
        <pt x="576" y="349" on="1"/>
        <pt x="543" y="447" on="1"/>
        <pt x="828" y="304" on="1"/>
        <pt x="543" y="162" on="1"/>
        <pt x="576" y="259" on="1"/>
        <pt x="307" y="259" on="1"/>
        <pt x="340" y="162" on="1"/>
      </contour>
    </TTGlyph>
    <TTGlyph name="arrowdown" xMin="55" yMin="-85" xMax="340" yMax="688">
      <contour>
        <pt x="55" y="200" on="1"/>
        <pt x="153" y="167" on="1"/>
        <pt x="153" y="688" on="1"/>
        <pt x="243" y="688" on="1"/>
        <pt x="243" y="167" on="1"/>
        <pt x="340" y="200" on="1"/>
        <pt x="198" y="-85" on="1"/>
      </contour>
    </TTGlyph>
    <TTGlyph name="arrowdown.ss01" xMin="30" yMin="171" xMax="315" yMax="456">
      <contour>
        <pt x="30" y="456" on="1"/>
        <pt x="315" y="456" on="1"/>
        <pt x="173" y="171" on="1"/>
      </contour>
    </TTGlyph>
    <TTGlyph name="arrowleft" xMin="55" yMin="162" xMax="828" yMax="447">
      <contour>
        <pt x="340" y="162" on="1"/>
        <pt x="55" y="304" on="1"/>
        <pt x="340" y="447" on="1"/>
        <pt x="307" y="349" on="1"/>
        <pt x="828" y="349" on="1"/>
        <pt x="828" y="259" on="1"/>
        <pt x="307" y="259" on="1"/>
      </contour>
    </TTGlyph>
    <TTGlyph name="arrowleft.ss01" xMin="30" yMin="201" xMax="315" yMax="486">
      <contour>
        <pt x="30" y="343" on="1"/>
        <pt x="315" y="486" on="1"/>
        <pt x="315" y="201" on="1"/>
      </contour>
    </TTGlyph>
    <TTGlyph name="arrowright" xMin="55" yMin="162" xMax="828" yMax="447">
      <contour>
        <pt x="576" y="259" on="1"/>
        <pt x="55" y="259" on="1"/>
        <pt x="55" y="349" on="1"/>
        <pt x="576" y="349" on="1"/>
        <pt x="543" y="447" on="1"/>
        <pt x="828" y="304" on="1"/>
        <pt x="543" y="162" on="1"/>
      </contour>
    </TTGlyph>
    <TTGlyph name="arrowright.ss01" xMin="48" yMin="201" xMax="333" yMax="486">
      <contour>
        <pt x="48" y="486" on="1"/>
        <pt x="333" y="343" on="1"/>
        <pt x="48" y="201" on="1"/>
      </contour>
    </TTGlyph>
    <TTGlyph name="arrowup" xMin="55" yMin="-82" xMax="340" yMax="691">
      <contour>
        <pt x="153" y="439" on="1"/>
        <pt x="55" y="406" on="1"/>
        <pt x="198" y="691" on="1"/>
        <pt x="340" y="406" on="1"/>
        <pt x="243" y="439" on="1"/>
        <pt x="243" y="-82" on="1"/>
        <pt x="153" y="-82" on="1"/>
      </contour>
    </TTGlyph>
    <TTGlyph name="arrowup.ss01" xMin="30" yMin="231" xMax="315" yMax="516">
      <contour>
        <pt x="173" y="516" on="1"/>
        <pt x="315" y="231" on="1"/>
        <pt x="30" y="231" on="1"/>
      </contour>
    </TTGlyph>
    <TTGlyph name="arrowupdn" xMin="55" yMin="-85" xMax="340" yMax="696">
      <contour>
        <pt x="55" y="200" on="1"/>
        <pt x="153" y="167" on="1"/>
        <pt x="153" y="444" on="1"/>
        <pt x="55" y="411" on="1"/>
        <pt x="198" y="696" on="1"/>
        <pt x="340" y="411" on="1"/>
        <pt x="243" y="444" on="1"/>
        <pt x="243" y="167" on="1"/>
        <pt x="340" y="200" on="1"/>
        <pt x="198" y="-85" on="1"/>
      </contour>
    </TTGlyph>
    <TTGlyph name="arrowupdnbse" xMin="55" yMin="-201" xMax="340" yMax="696">
      <contour>
        <pt x="55" y="200" on="1"/>
        <pt x="153" y="167" on="1"/>
        <pt x="153" y="444" on="1"/>
        <pt x="55" y="411" on="1"/>
        <pt x="198" y="696" on="1"/>
        <pt x="340" y="411" on="1"/>
        <pt x="243" y="444" on="1"/>
        <pt x="243" y="167" on="1"/>
        <pt x="340" y="200" on="1"/>
        <pt x="198" y="-85" on="1"/>
      </contour>
      <contour>
        <pt x="55" y="-119" on="1"/>
        <pt x="340" y="-119" on="1"/>
        <pt x="340" y="-201" on="1"/>
        <pt x="55" y="-201" on="1"/>
      </contour>
    </TTGlyph>
    <TTGlyph name="asciicircum" xMin="29" yMin="459" xMax="392" yMax="750">
      <contour>
        <pt x="212" y="667" on="1"/>
        <pt x="121" y="459" on="1"/>
        <pt x="29" y="459" on="1"/>
        <pt x="164" y="750" on="1"/>
        <pt x="259" y="750" on="1"/>
        <pt x="392" y="459" on="1"/>
        <pt x="301" y="459" on="1"/>
      </contour>
    </TTGlyph>
    <TTGlyph name="asciitilde" xMin="57" yMin="234" xMax="417" yMax="372">
      <contour>
        <pt x="417" y="323" on="0"/>
        <pt x="408" y="273" on="0"/>
        <pt x="373" y="245" on="0"/>
        <pt x="336" y="245" on="1"/>
        <pt x="311" y="245" on="0"/>
        <pt x="261" y="256" on="0"/>
        <pt x="225" y="266" on="1"/>
        <pt x="216" y="268" on="0"/>
        <pt x="166" y="281" on="0"/>
        <pt x="149" y="281" on="1"/>
        <pt x="130" y="281" on="0"/>
        <pt x="122" y="263" on="0"/>
        <pt x="122" y="234" on="1"/>
        <pt x="57" y="234" on="1"/>
        <pt x="57" y="282" on="0"/>
        <pt x="67" y="333" on="0"/>
        <pt x="102" y="361" on="0"/>
        <pt x="139" y="361" on="1"/>
        <pt x="164" y="361" on="0"/>
        <pt x="210" y="351" on="0"/>
        <pt x="251" y="341" on="1"/>
        <pt x="304" y="326" on="0"/>
        <pt x="327" y="326" on="1"/>
        <pt x="345" y="326" on="0"/>
        <pt x="354" y="344" on="0"/>
        <pt x="354" y="372" on="1"/>
        <pt x="417" y="372" on="1"/>
      </contour>
    </TTGlyph>
    <TTGlyph name="asterisk" xMin="45" yMin="340" xMax="382" yMax="688">
      <contour>
        <pt x="248" y="340" on="1"/>
        <pt x="179" y="340" on="1"/>
        <pt x="189" y="470" on="1"/>
        <pt x="80" y="396" on="1"/>
        <pt x="45" y="457" on="1"/>
        <pt x="164" y="513" on="1"/>
        <pt x="45" y="571" on="1"/>
        <pt x="80" y="632" on="1"/>
        <pt x="189" y="557" on="1"/>
        <pt x="179" y="688" on="1"/>
        <pt x="248" y="688" on="1"/>
        <pt x="238" y="558" on="1"/>
        <pt x="348" y="632" on="1"/>
        <pt x="382" y="571" on="1"/>
        <pt x="263" y="513" on="1"/>
        <pt x="382" y="457" on="1"/>
        <pt x="348" y="396" on="1"/>
        <pt x="238" y="470" on="1"/>
      </contour>
    </TTGlyph>
    <TTGlyph name="asterisk.ss02" xMin="35" yMin="-14" xMax="782" yMax="705">
      <contour>
        <pt x="269" y="262" on="1"/>
        <pt x="35" y="436" on="1"/>
        <pt x="322" y="436" on="1"/>
        <pt x="409" y="705" on="1"/>
        <pt x="494" y="436" on="1"/>
        <pt x="782" y="436" on="1"/>
        <pt x="550" y="262" on="1"/>
        <pt x="640" y="-14" on="1"/>
        <pt x="409" y="156" on="1"/>
        <pt x="178" y="-14" on="1"/>
      </contour>
    </TTGlyph>
    <TTGlyph name="at" xMin="68" yMin="-108" xMax="754" yMax="696">
      <contour>
        <pt x="238" y="-108" on="0"/>
        <pt x="103" y="-53" on="0"/>
        <pt x="68" y="98" on="0"/>
        <pt x="68" y="294" on="1"/>
        <pt x="68" y="491" on="0"/>
        <pt x="103" y="641" on="0"/>
        <pt x="238" y="696" on="0"/>
        <pt x="411" y="696" on="1"/>
        <pt x="585" y="696" on="0"/>
        <pt x="720" y="643" on="0"/>
        <pt x="754" y="493" on="0"/>
        <pt x="754" y="294" on="1"/>
        <pt x="754" y="188" on="0"/>
        <pt x="731" y="97" on="0"/>
        <pt x="685" y="75" on="0"/>
        <pt x="633" y="75" on="1"/>
        <pt x="488" y="75" on="1"/>
        <pt x="483" y="128" on="1"/>
        <pt x="477" y="128" on="1"/>
        <pt x="461" y="93" on="0"/>
        <pt x="401" y="68" on="0"/>
        <pt x="360" y="68" on="1"/>
        <pt x="297" y="68" on="0"/>
        <pt x="242" y="129" on="0"/>
        <pt x="242" y="199" on="1"/>
        <pt x="242" y="250" on="0"/>
        <pt x="263" y="307" on="0"/>
        <pt x="314" y="332" on="0"/>
        <pt x="362" y="332" on="1"/>
        <pt x="403" y="332" on="0"/>
        <pt x="481" y="328" on="1"/>
        <pt x="481" y="349" on="1"/>
        <pt x="481" y="391" on="0"/>
        <pt x="468" y="424" on="0"/>
        <pt x="429" y="434" on="0"/>
        <pt x="381" y="434" on="1"/>
        <pt x="353" y="434" on="0"/>
        <pt x="287" y="430" on="0"/>
        <pt x="266" y="428" on="1"/>
        <pt x="266" y="505" on="1"/>
        <pt x="342" y="518" on="0"/>
        <pt x="412" y="518" on="1"/>
        <pt x="486" y="518" on="0"/>
        <pt x="557" y="484" on="0"/>
        <pt x="581" y="412" on="0"/>
        <pt x="581" y="344" on="1"/>
        <pt x="581" y="127" on="1"/>
        <pt x="642" y="127" on="1"/>
        <pt x="667" y="127" on="0"/>
        <pt x="688" y="143" on="0"/>
        <pt x="697" y="212" on="0"/>
        <pt x="697" y="294" on="1"/>
        <pt x="697" y="438" on="0"/>
        <pt x="685" y="561" on="0"/>
        <pt x="638" y="625" on="0"/>
        <pt x="581" y="635" on="1"/>
        <pt x="534" y="643" on="0"/>
        <pt x="410" y="643" on="1"/>
        <pt x="301" y="643" on="0"/>
        <pt x="254" y="637" on="1"/>
        <pt x="191" y="628" on="0"/>
        <pt x="138" y="566" on="0"/>
        <pt x="124" y="440" on="0"/>
        <pt x="124" y="294" on="1"/>
        <pt x="124" y="132" on="0"/>
        <pt x="142" y="4" on="0"/>
        <pt x="213" y="-48" on="0"/>
        <pt x="302" y="-53" on="1"/>
        <pt x="332" y="-55" on="0"/>
        <pt x="411" y="-55" on="1"/>
        <pt x="453" y="-55" on="0"/>
        <pt x="568" y="-52" on="0"/>
        <pt x="581" y="-51" on="1"/>
        <pt x="581" y="-106" on="1"/>
        <pt x="536" y="-108" on="0"/>
        <pt x="411" y="-108" on="1"/>
      </contour>
      <contour>
        <pt x="436" y="149" on="0"/>
        <pt x="468" y="164" on="0"/>
        <pt x="481" y="202" on="0"/>
        <pt x="481" y="239" on="1"/>
        <pt x="481" y="265" on="1"/>
        <pt x="389" y="265" on="1"/>
        <pt x="366" y="265" on="0"/>
        <pt x="346" y="257" on="0"/>
        <pt x="338" y="233" on="0"/>
        <pt x="338" y="207" on="1"/>
        <pt x="338" y="182" on="0"/>
        <pt x="347" y="158" on="0"/>
        <pt x="374" y="149" on="0"/>
        <pt x="403" y="149" on="1"/>
      </contour>
    </TTGlyph>
    <TTGlyph name="atilde" xMin="39" yMin="-8" xMax="433" yMax="743">
      <component glyphName=".ttfautohint" x="39" y="0" flags="0x0"/>
      <component glyphName="a" x="0" y="0" flags="0x0"/>
      <component glyphName="tilde" x="65" y="-1" flags="0x4"/>
    </TTGlyph>
    <TTGlyph name="b" xMin="65" yMin="-8" xMax="470" yMax="743">
      <contour>
        <pt x="267" y="-8" on="0"/>
        <pt x="197" y="23" on="0"/>
        <pt x="180" y="64" on="1"/>
        <pt x="173" y="64" on="1"/>
        <pt x="169" y="0" on="1"/>
        <pt x="65" y="0" on="1"/>
        <pt x="65" y="743" on="1"/>
        <pt x="178" y="743" on="1"/>
        <pt x="178" y="454" on="1"/>
        <pt x="184" y="454" on="1"/>
        <pt x="202" y="489" on="0"/>
        <pt x="268" y="518" on="0"/>
        <pt x="317" y="518" on="1"/>
        <pt x="376" y="518" on="0"/>
        <pt x="441" y="470" on="0"/>
        <pt x="470" y="357" on="0"/>
        <pt x="470" y="255" on="1"/>
        <pt x="470" y="152" on="0"/>
        <pt x="440" y="39" on="0"/>
        <pt x="373" y="-8" on="0"/>
        <pt x="314" y="-8" on="1"/>
      </contour>
      <contour>
        <pt x="310" y="95" on="0"/>
        <pt x="345" y="114" on="0"/>
        <pt x="357" y="177" on="0"/>
        <pt x="357" y="255" on="1"/>
        <pt x="357" y="332" on="0"/>
        <pt x="345" y="396" on="0"/>
        <pt x="309" y="416" on="0"/>
        <pt x="266" y="416" on="1"/>
        <pt x="237" y="416" on="0"/>
        <pt x="203" y="400" on="0"/>
        <pt x="193" y="382" on="1"/>
        <pt x="184" y="364" on="0"/>
        <pt x="178" y="304" on="0"/>
        <pt x="178" y="255" on="1"/>
        <pt x="178" y="207" on="0"/>
        <pt x="184" y="149" on="0"/>
        <pt x="192" y="132" on="1"/>
        <pt x="201" y="112" on="0"/>
        <pt x="236" y="95" on="0"/>
        <pt x="266" y="95" on="1"/>
      </contour>
    </TTGlyph>
    <TTGlyph name="backslash" xMin="3" yMin="-55" xMax="346" yMax="743">
      <contour>
        <pt x="3" y="743" on="1"/>
        <pt x="105" y="743" on="1"/>
        <pt x="346" y="-55" on="1"/>
        <pt x="246" y="-55" on="1"/>
      </contour>
    </TTGlyph>
    <TTGlyph name="bar" xMin="79" yMin="-161" xMax="182" yMax="743">
      <contour>
        <pt x="79" y="743" on="1"/>
        <pt x="182" y="743" on="1"/>
        <pt x="182" y="-161" on="1"/>
        <pt x="79" y="-161" on="1"/>
      </contour>
    </TTGlyph>
    <TTGlyph name="bar.ss02" xMin="-1" yMin="0" xMax="499" yMax="696">
      <contour>
        <pt x="-1" y="696" on="1"/>
        <pt x="499" y="696" on="1"/>
        <pt x="499" y="0" on="1"/>
        <pt x="-1" y="0" on="1"/>
      </contour>
    </TTGlyph>
    <TTGlyph name="braceleft" xMin="23" yMin="-150" xMax="300" yMax="743">
      <contour>
        <pt x="201" y="-138" on="0"/>
        <pt x="148" y="-89" on="0"/>
        <pt x="108" y="-15" on="0"/>
        <pt x="108" y="29" on="1"/>
        <pt x="108" y="147" on="1"/>
        <pt x="108" y="198" on="0"/>
        <pt x="73" y="267" on="0"/>
        <pt x="23" y="268" on="1"/>
        <pt x="23" y="324" on="1"/>
        <pt x="73" y="325" on="0"/>
        <pt x="108" y="394" on="0"/>
        <pt x="108" y="445" on="1"/>
        <pt x="108" y="563" on="1"/>
        <pt x="108" y="607" on="0"/>
        <pt x="148" y="682" on="0"/>
        <pt x="201" y="732" on="0"/>
        <pt x="221" y="743" on="1"/>
        <pt x="300" y="743" on="1"/>
        <pt x="261" y="694" on="0"/>
        <pt x="215" y="614" on="0"/>
        <pt x="215" y="564" on="1"/>
        <pt x="215" y="446" on="1"/>
        <pt x="215" y="322" on="0"/>
        <pt x="114" y="300" on="1"/>
        <pt x="114" y="293" on="1"/>
        <pt x="215" y="271" on="0"/>
        <pt x="215" y="146" on="1"/>
        <pt x="215" y="29" on="1"/>
        <pt x="215" y="-7" on="0"/>
        <pt x="242" y="-71" on="0"/>
        <pt x="270" y="-111" on="0"/>
        <pt x="300" y="-150" on="1"/>
        <pt x="221" y="-150" on="1"/>
      </contour>
    </TTGlyph>
    <TTGlyph name="braceright" xMin="19" yMin="-150" xMax="296" yMax="743">
      <contour>
        <pt x="23" y="-146" on="0"/>
        <pt x="73" y="-83" on="0"/>
        <pt x="105" y="-7" on="0"/>
        <pt x="105" y="29" on="1"/>
        <pt x="105" y="146" on="1"/>
        <pt x="105" y="271" on="0"/>
        <pt x="205" y="293" on="1"/>
        <pt x="205" y="300" on="1"/>
        <pt x="105" y="322" on="0"/>
        <pt x="105" y="446" on="1"/>
        <pt x="105" y="564" on="1"/>
        <pt x="105" y="608" on="0"/>
        <pt x="66" y="683" on="0"/>
        <pt x="32" y="726" on="1"/>
        <pt x="19" y="743" on="1"/>
        <pt x="98" y="743" on="1"/>
        <pt x="118" y="732" on="0"/>
        <pt x="171" y="682" on="0"/>
        <pt x="211" y="607" on="0"/>
        <pt x="211" y="563" on="1"/>
        <pt x="211" y="445" on="1"/>
        <pt x="211" y="393" on="0"/>
        <pt x="246" y="325" on="0"/>
        <pt x="296" y="324" on="1"/>
        <pt x="296" y="268" on="1"/>
        <pt x="246" y="267" on="0"/>
        <pt x="211" y="199" on="0"/>
        <pt x="211" y="147" on="1"/>
        <pt x="211" y="29" on="1"/>
        <pt x="211" y="-15" on="0"/>
        <pt x="171" y="-89" on="0"/>
        <pt x="118" y="-139" on="0"/>
        <pt x="98" y="-150" on="1"/>
        <pt x="19" y="-150" on="1"/>
      </contour>
    </TTGlyph>
    <TTGlyph name="bracketleft" xMin="74" yMin="-150" xMax="285" yMax="743">
      <contour>
        <pt x="74" y="743" on="1"/>
        <pt x="285" y="743" on="1"/>
        <pt x="285" y="666" on="1"/>
        <pt x="180" y="662" on="1"/>
        <pt x="180" y="-69" on="1"/>
        <pt x="285" y="-73" on="1"/>
        <pt x="285" y="-150" on="1"/>
        <pt x="74" y="-150" on="1"/>
      </contour>
    </TTGlyph>
    <TTGlyph name="bracketleft.ss02" xMin="45" yMin="0" xMax="397" yMax="696">
      <contour>
        <pt x="45" y="0" on="1"/>
        <pt x="45" y="348" on="1"/>
        <pt x="45" y="449" on="0"/>
        <pt x="135" y="608" on="0"/>
        <pt x="295" y="696" on="0"/>
        <pt x="397" y="696" on="1"/>
        <pt x="397" y="0" on="1"/>
      </contour>
    </TTGlyph>
    <TTGlyph name="bracketright" xMin="38" yMin="-150" xMax="248" yMax="743">
      <contour>
        <pt x="38" y="-73" on="1"/>
        <pt x="142" y="-69" on="1"/>
        <pt x="142" y="662" on="1"/>
        <pt x="38" y="666" on="1"/>
        <pt x="38" y="743" on="1"/>
        <pt x="248" y="743" on="1"/>
        <pt x="248" y="-150" on="1"/>
        <pt x="38" y="-150" on="1"/>
      </contour>
    </TTGlyph>
    <TTGlyph name="bracketright.ss02" xMin="0" yMin="0" xMax="352" yMax="696">
      <contour>
        <pt x="0" y="696" on="1"/>
        <pt x="102" y="696" on="0"/>
        <pt x="262" y="608" on="0"/>
        <pt x="352" y="449" on="0"/>
        <pt x="352" y="348" on="1"/>
        <pt x="352" y="0" on="1"/>
        <pt x="0" y="0" on="1"/>
      </contour>
    </TTGlyph>
    <TTGlyph name="breve" xMin="14" yMin="601" xMax="284" yMax="743">
      <contour>
        <pt x="284" y="695" on="0"/>
        <pt x="266" y="636" on="0"/>
        <pt x="206" y="601" on="0"/>
        <pt x="147" y="601" on="1"/>
        <pt x="89" y="601" on="0"/>
        <pt x="31" y="636" on="0"/>
        <pt x="14" y="695" on="0"/>
        <pt x="14" y="743" on="1"/>
        <pt x="83" y="743" on="1"/>
        <pt x="83" y="714" on="0"/>
        <pt x="89" y="686" on="0"/>
        <pt x="116" y="669" on="0"/>
        <pt x="147" y="669" on="1"/>
        <pt x="178" y="669" on="0"/>
        <pt x="207" y="686" on="0"/>
        <pt x="214" y="715" on="0"/>
        <pt x="214" y="743" on="1"/>
        <pt x="284" y="743" on="1"/>
      </contour>
    </TTGlyph>
    <TTGlyph name="brokenbar" xMin="79" yMin="-161" xMax="182" yMax="743">
      <contour>
        <pt x="79" y="743" on="1"/>
        <pt x="182" y="743" on="1"/>
        <pt x="182" y="390" on="1"/>
        <pt x="79" y="390" on="1"/>
      </contour>
      <contour>
        <pt x="79" y="192" on="1"/>
        <pt x="182" y="192" on="1"/>
        <pt x="182" y="-161" on="1"/>
        <pt x="79" y="-161" on="1"/>
      </contour>
    </TTGlyph>
    <TTGlyph name="bullet" xMin="63" yMin="235" xMax="276" yMax="452">
      <contour>
        <pt x="276" y="291" on="0"/>
        <pt x="265" y="250" on="0"/>
        <pt x="221" y="235" on="0"/>
        <pt x="168" y="235" on="1"/>
        <pt x="116" y="235" on="0"/>
        <pt x="74" y="250" on="0"/>
        <pt x="63" y="291" on="0"/>
        <pt x="63" y="342" on="1"/>
        <pt x="63" y="394" on="0"/>
        <pt x="74" y="436" on="0"/>
        <pt x="116" y="452" on="0"/>
        <pt x="168" y="452" on="1"/>
        <pt x="221" y="452" on="0"/>
        <pt x="265" y="436" on="0"/>
        <pt x="276" y="394" on="0"/>
        <pt x="276" y="342" on="1"/>
      </contour>
    </TTGlyph>
    <TTGlyph name="bullet.ss02" xMin="40" yMin="-8" xMax="743" yMax="696">
      <contour>
        <pt x="343" y="421" on="0"/>
        <pt x="279" y="480" on="0"/>
        <pt x="279" y="533" on="1"/>
        <pt x="279" y="575" on="0"/>
        <pt x="318" y="650" on="0"/>
        <pt x="373" y="696" on="0"/>
        <pt x="392" y="696" on="1"/>
        <pt x="411" y="696" on="0"/>
        <pt x="465" y="650" on="0"/>
        <pt x="504" y="575" on="0"/>
        <pt x="504" y="533" on="1"/>
        <pt x="504" y="480" on="0"/>
        <pt x="441" y="421" on="0"/>
        <pt x="392" y="421" on="1"/>
      </contour>
      <contour>
        <pt x="415" y="481" on="0"/>
        <pt x="444" y="508" on="0"/>
        <pt x="444" y="533" on="1"/>
        <pt x="444" y="560" on="0"/>
        <pt x="426" y="607" on="0"/>
        <pt x="401" y="636" on="0"/>
        <pt x="392" y="636" on="1"/>
        <pt x="383" y="636" on="0"/>
        <pt x="358" y="607" on="0"/>
        <pt x="339" y="560" on="0"/>
        <pt x="339" y="533" on="1"/>
        <pt x="339" y="508" on="0"/>
        <pt x="369" y="481" on="0"/>
        <pt x="392" y="481" on="1"/>
      </contour>
      <contour>
        <pt x="161" y="231" on="0"/>
        <pt x="86" y="270" on="0"/>
        <pt x="40" y="325" on="0"/>
        <pt x="40" y="344" on="1"/>
        <pt x="40" y="363" on="0"/>
        <pt x="86" y="417" on="0"/>
        <pt x="161" y="456" on="0"/>
        <pt x="203" y="456" on="1"/>
        <pt x="256" y="456" on="0"/>
        <pt x="315" y="393" on="0"/>
        <pt x="315" y="344" on="1"/>
        <pt x="315" y="295" on="0"/>
        <pt x="256" y="231" on="0"/>
        <pt x="203" y="231" on="1"/>
      </contour>
      <contour>
        <pt x="527" y="231" on="0"/>
        <pt x="468" y="295" on="0"/>
        <pt x="468" y="344" on="1"/>
        <pt x="468" y="393" on="0"/>
        <pt x="527" y="456" on="0"/>
        <pt x="581" y="456" on="1"/>
        <pt x="622" y="456" on="0"/>
        <pt x="697" y="417" on="0"/>
        <pt x="743" y="363" on="0"/>
        <pt x="743" y="344" on="1"/>
        <pt x="743" y="325" on="0"/>
        <pt x="697" y="270" on="0"/>
        <pt x="623" y="231" on="0"/>
        <pt x="581" y="231" on="1"/>
      </contour>
      <contour>
        <pt x="228" y="291" on="0"/>
        <pt x="255" y="321" on="0"/>
        <pt x="255" y="344" on="1"/>
        <pt x="255" y="367" on="0"/>
        <pt x="228" y="396" on="0"/>
        <pt x="203" y="396" on="1"/>
        <pt x="176" y="396" on="0"/>
        <pt x="129" y="378" on="0"/>
        <pt x="100" y="353" on="0"/>
        <pt x="100" y="344" on="1"/>
        <pt x="100" y="335" on="0"/>
        <pt x="129" y="310" on="0"/>
        <pt x="176" y="291" on="0"/>
        <pt x="203" y="291" on="1"/>
      </contour>
      <contour>
        <pt x="607" y="291" on="0"/>
        <pt x="654" y="310" on="0"/>
        <pt x="683" y="335" on="0"/>
        <pt x="683" y="344" on="1"/>
        <pt x="683" y="353" on="0"/>
        <pt x="654" y="378" on="0"/>
        <pt x="607" y="396" on="0"/>
        <pt x="581" y="396" on="1"/>
        <pt x="556" y="396" on="0"/>
        <pt x="528" y="367" on="0"/>
        <pt x="528" y="344" on="1"/>
        <pt x="528" y="321" on="0"/>
        <pt x="556" y="291" on="0"/>
        <pt x="581" y="291" on="1"/>
      </contour>
      <contour>
        <pt x="373" y="-8" on="0"/>
        <pt x="318" y="38" on="0"/>
        <pt x="279" y="113" on="0"/>
        <pt x="279" y="155" on="1"/>
        <pt x="279" y="208" on="0"/>
        <pt x="343" y="267" on="0"/>
        <pt x="392" y="267" on="1"/>
        <pt x="441" y="267" on="0"/>
        <pt x="504" y="208" on="0"/>
        <pt x="504" y="155" on="1"/>
        <pt x="504" y="113" on="0"/>
        <pt x="465" y="38" on="0"/>
        <pt x="411" y="-8" on="0"/>
        <pt x="392" y="-8" on="1"/>
      </contour>
      <contour>
        <pt x="401" y="52" on="0"/>
        <pt x="426" y="81" on="0"/>
        <pt x="444" y="128" on="0"/>
        <pt x="444" y="155" on="1"/>
        <pt x="444" y="180" on="0"/>
        <pt x="415" y="207" on="0"/>
        <pt x="392" y="207" on="1"/>
        <pt x="369" y="207" on="0"/>
        <pt x="339" y="180" on="0"/>
        <pt x="339" y="155" on="1"/>
        <pt x="339" y="128" on="0"/>
        <pt x="358" y="81" on="0"/>
        <pt x="383" y="52" on="0"/>
        <pt x="392" y="52" on="1"/>
      </contour>
    </TTGlyph>
    <TTGlyph name="c" xMin="49" yMin="-8" xMax="367" yMax="518">
      <contour>
        <pt x="342" y="0" on="0"/>
        <pt x="271" y="-8" on="0"/>
        <pt x="239" y="-8" on="1"/>
        <pt x="153" y="-8" on="0"/>
        <pt x="72" y="47" on="0"/>
        <pt x="49" y="154" on="0"/>
        <pt x="49" y="256" on="1"/>
        <pt x="49" y="354" on="0"/>
        <pt x="76" y="463" on="0"/>
        <pt x="156" y="518" on="0"/>
        <pt x="237" y="518" on="1"/>
        <pt x="271" y="518" on="0"/>
        <pt x="341" y="510" on="0"/>
        <pt x="363" y="503" on="1"/>
        <pt x="363" y="414" on="1"/>
        <pt x="318" y="422" on="0"/>
        <pt x="267" y="422" on="1"/>
        <pt x="218" y="422" on="0"/>
        <pt x="176" y="398" on="0"/>
        <pt x="162" y="331" on="0"/>
        <pt x="162" y="255" on="1"/>
        <pt x="162" y="179" on="0"/>
        <pt x="177" y="111" on="0"/>
        <pt x="219" y="88" on="0"/>
        <pt x="268" y="88" on="1"/>
        <pt x="313" y="88" on="0"/>
        <pt x="367" y="96" on="1"/>
        <pt x="367" y="7" on="1"/>
      </contour>
    </TTGlyph>
    <TTGlyph name="cacute" xMin="49" yMin="-8" xMax="367" yMax="743">
      <component glyphName=".ttfautohint" x="49" y="0" flags="0x0"/>
      <component glyphName="c" x="0" y="0" flags="0x0"/>
      <component glyphName="acutecomb" x="357" y="0" flags="0x0"/>
    </TTGlyph>
    <TTGlyph name="cacute.loclPLK" xMin="49" yMin="-8" xMax="367" yMax="743">
      <component glyphName=".ttfautohint" x="49" y="0" flags="0x0"/>
      <component glyphName="c" x="0" y="0" flags="0x0"/>
      <component glyphName="acute.loclPLK" x="138" y="0" flags="0x0"/>
    </TTGlyph>
    <TTGlyph name="caron" xMin="13" yMin="604" xMax="302" yMax="743">
      <contour>
        <pt x="13" y="736" on="1"/>
        <pt x="13" y="743" on="1"/>
        <pt x="90" y="743" on="1"/>
        <pt x="157" y="659" on="1"/>
        <pt x="225" y="743" on="1"/>
        <pt x="302" y="743" on="1"/>
        <pt x="302" y="736" on="1"/>
        <pt x="215" y="604" on="1"/>
        <pt x="100" y="604" on="1"/>
      </contour>
    </TTGlyph>
    <TTGlyph name="caron.loclCSY" xMin="40" yMin="435" xMax="164" yMax="688">
      <contour>
        <pt x="57" y="625" on="1"/>
        <pt x="57" y="688" on="1"/>
        <pt x="164" y="688" on="1"/>
        <pt x="164" y="625" on="1"/>
        <pt x="120" y="435" on="1"/>
        <pt x="40" y="435" on="1"/>
      </contour>
    </TTGlyph>
    <TTGlyph name="ccaron" xMin="49" yMin="-8" xMax="367" yMax="743">
      <component glyphName=".ttfautohint" x="49" y="0" flags="0x0"/>
      <component glyphName="c" x="0" y="0" flags="0x0"/>
      <component glyphName="uni030C" x="362" y="0" flags="0x0"/>
    </TTGlyph>
    <TTGlyph name="ccedilla" xMin="49" yMin="-190" xMax="367" yMax="518">
      <contour>
        <pt x="367" y="7" on="1"/>
        <pt x="343" y="0" on="0"/>
        <pt x="274" y="-8" on="0"/>
        <pt x="242" y="-8" on="1"/>
        <pt x="206" y="-190" on="1"/>
        <pt x="100" y="-190" on="1"/>
        <pt x="100" y="-185" on="1"/>
        <pt x="164" y="-1" on="1"/>
        <pt x="113" y="11" on="0"/>
        <pt x="64" y="73" on="0"/>
        <pt x="49" y="171" on="0"/>
        <pt x="49" y="256" on="1"/>
        <pt x="49" y="354" on="0"/>
        <pt x="76" y="463" on="0"/>
        <pt x="156" y="518" on="0"/>
        <pt x="237" y="518" on="1"/>
        <pt x="271" y="518" on="0"/>
        <pt x="341" y="510" on="0"/>
        <pt x="363" y="503" on="1"/>
        <pt x="363" y="414" on="1"/>
        <pt x="318" y="422" on="0"/>
        <pt x="267" y="422" on="1"/>
        <pt x="218" y="422" on="0"/>
        <pt x="176" y="398" on="0"/>
        <pt x="162" y="331" on="0"/>
        <pt x="162" y="255" on="1"/>
        <pt x="162" y="179" on="0"/>
        <pt x="177" y="111" on="0"/>
        <pt x="219" y="88" on="0"/>
        <pt x="268" y="88" on="1"/>
        <pt x="313" y="88" on="0"/>
        <pt x="367" y="96" on="1"/>
      </contour>
    </TTGlyph>
    <TTGlyph name="ccircumflex" xMin="49" yMin="-8" xMax="367" yMax="743">
      <component glyphName=".ttfautohint" x="49" y="0" flags="0x0"/>
      <component glyphName="c" x="0" y="0" flags="0x0"/>
      <component glyphName="uni0302" x="361" y="0" flags="0x0"/>
    </TTGlyph>
    <TTGlyph name="cdotaccent" xMin="49" yMin="-8" xMax="367" yMax="730">
      <component glyphName=".ttfautohint" x="49" y="0" flags="0x0"/>
      <component glyphName="c" x="0" y="0" flags="0x0"/>
      <component glyphName="uni0307" x="268" y="0" flags="0x0"/>
    </TTGlyph>
    <TTGlyph name="cedilla" xMin="16" yMin="-190" xMax="160" yMax="8">
      <contour>
        <pt x="16" y="-185" on="1"/>
        <pt x="83" y="8" on="1"/>
        <pt x="160" y="8" on="1"/>
        <pt x="160" y="3" on="1"/>
        <pt x="122" y="-190" on="1"/>
        <pt x="16" y="-190" on="1"/>
      </contour>
    </TTGlyph>
    <TTGlyph name="cent" xMin="50" yMin="-8" xMax="373" yMax="696">
      <contour>
        <pt x="198" y="70" on="1"/>
        <pt x="133" y="78" on="0"/>
        <pt x="69" y="144" on="0"/>
        <pt x="50" y="251" on="0"/>
        <pt x="50" y="342" on="1"/>
        <pt x="50" y="434" on="0"/>
        <pt x="72" y="544" on="0"/>
        <pt x="136" y="608" on="0"/>
        <pt x="198" y="616" on="1"/>
        <pt x="198" y="696" on="1"/>
        <pt x="283" y="696" on="1"/>
        <pt x="283" y="618" on="1"/>
        <pt x="336" y="615" on="0"/>
        <pt x="370" y="603" on="1"/>
        <pt x="370" y="510" on="1"/>
        <pt x="316" y="519" on="0"/>
        <pt x="274" y="519" on="1"/>
        <pt x="226" y="519" on="0"/>
        <pt x="183" y="494" on="0"/>
        <pt x="169" y="423" on="0"/>
        <pt x="169" y="343" on="1"/>
        <pt x="169" y="263" on="0"/>
        <pt x="185" y="192" on="0"/>
        <pt x="227" y="168" on="0"/>
        <pt x="275" y="168" on="1"/>
        <pt x="325" y="168" on="0"/>
        <pt x="373" y="176" on="1"/>
        <pt x="373" y="83" on="1"/>
        <pt x="333" y="72" on="0"/>
        <pt x="283" y="69" on="1"/>
        <pt x="283" y="-8" on="1"/>
        <pt x="198" y="-8" on="1"/>
      </contour>
    </TTGlyph>
    <TTGlyph name="circumflex" xMin="14" yMin="604" xMax="303" yMax="743">
      <contour>
        <pt x="14" y="611" on="1"/>
        <pt x="100" y="743" on="1"/>
        <pt x="215" y="743" on="1"/>
        <pt x="303" y="611" on="1"/>
        <pt x="303" y="604" on="1"/>
        <pt x="225" y="604" on="1"/>
        <pt x="157" y="689" on="1"/>
        <pt x="90" y="604" on="1"/>
        <pt x="14" y="604" on="1"/>
      </contour>
    </TTGlyph>
    <TTGlyph name="colon" xMin="59" yMin="0" xMax="185" yMax="510">
      <contour>
        <pt x="59" y="510" on="1"/>
        <pt x="185" y="510" on="1"/>
        <pt x="185" y="389" on="1"/>
        <pt x="59" y="389" on="1"/>
      </contour>
      <contour>
        <pt x="59" y="121" on="1"/>
        <pt x="185" y="121" on="1"/>
        <pt x="185" y="0" on="1"/>
        <pt x="59" y="0" on="1"/>
      </contour>
    </TTGlyph>
    <TTGlyph name="comma" xMin="47" yMin="-138" xMax="185" yMax="121">
      <contour>
        <pt x="72" y="-85" on="0"/>
        <pt x="97" y="-74" on="0"/>
        <pt x="107" y="-46" on="0"/>
        <pt x="107" y="-17" on="1"/>
        <pt x="107" y="0" on="1"/>
        <pt x="59" y="0" on="1"/>
        <pt x="59" y="121" on="1"/>
        <pt x="185" y="121" on="1"/>
        <pt x="185" y="33" on="1"/>
        <pt x="185" y="-41" on="0"/>
        <pt x="166" y="-110" on="0"/>
        <pt x="109" y="-138" on="0"/>
        <pt x="47" y="-138" on="1"/>
        <pt x="47" y="-85" on="1"/>
      </contour>
    </TTGlyph>
    <TTGlyph name="copyright" xMin="72" yMin="-8" xMax="591" yMax="696">
      <contour>
        <pt x="202" y="-8" on="0"/>
        <pt x="98" y="42" on="0"/>
        <pt x="72" y="175" on="0"/>
        <pt x="72" y="344" on="1"/>
        <pt x="72" y="513" on="0"/>
        <pt x="98" y="646" on="0"/>
        <pt x="202" y="696" on="0"/>
        <pt x="331" y="696" on="1"/>
        <pt x="460" y="696" on="0"/>
        <pt x="564" y="646" on="0"/>
        <pt x="591" y="513" on="0"/>
        <pt x="591" y="344" on="1"/>
        <pt x="591" y="175" on="0"/>
        <pt x="564" y="42" on="0"/>
        <pt x="460" y="-8" on="0"/>
        <pt x="331" y="-8" on="1"/>
      </contour>
      <contour>
        <pt x="442" y="41" on="0"/>
        <pt x="520" y="72" on="0"/>
        <pt x="541" y="184" on="0"/>
        <pt x="541" y="344" on="1"/>
        <pt x="541" y="504" on="0"/>
        <pt x="520" y="616" on="0"/>
        <pt x="442" y="647" on="0"/>
        <pt x="331" y="647" on="1"/>
        <pt x="220" y="647" on="0"/>
        <pt x="142" y="616" on="0"/>
        <pt x="121" y="504" on="0"/>
        <pt x="121" y="344" on="1"/>
        <pt x="121" y="184" on="0"/>
        <pt x="142" y="72" on="0"/>
        <pt x="220" y="41" on="0"/>
        <pt x="331" y="41" on="1"/>
      </contour>
      <contour>
        <pt x="292" y="154" on="0"/>
        <pt x="236" y="187" on="0"/>
        <pt x="218" y="265" on="0"/>
        <pt x="218" y="343" on="1"/>
        <pt x="218" y="421" on="0"/>
        <pt x="237" y="498" on="0"/>
        <pt x="293" y="532" on="0"/>
        <pt x="351" y="532" on="1"/>
        <pt x="372" y="532" on="0"/>
        <pt x="416" y="527" on="0"/>
        <pt x="428" y="523" on="1"/>
        <pt x="428" y="467" on="1"/>
        <pt x="390" y="471" on="0"/>
        <pt x="366" y="471" on="1"/>
        <pt x="327" y="471" on="0"/>
        <pt x="297" y="456" on="0"/>
        <pt x="289" y="408" on="0"/>
        <pt x="289" y="343" on="1"/>
        <pt x="289" y="278" on="0"/>
        <pt x="297" y="229" on="0"/>
        <pt x="327" y="214" on="0"/>
        <pt x="366" y="214" on="1"/>
        <pt x="402" y="214" on="0"/>
        <pt x="430" y="219" on="1"/>
        <pt x="430" y="162" on="1"/>
        <pt x="401" y="154" on="0"/>
        <pt x="351" y="154" on="1"/>
      </contour>
    </TTGlyph>
    <TTGlyph name="currency" xMin="49" yMin="0" xMax="556" yMax="688">
      <contour>
        <pt x="49" y="66" on="1"/>
        <pt x="120" y="138" on="1"/>
        <pt x="105" y="167" on="0"/>
        <pt x="95" y="261" on="0"/>
        <pt x="95" y="345" on="1"/>
        <pt x="95" y="428" on="0"/>
        <pt x="104" y="522" on="0"/>
        <pt x="119" y="551" on="1"/>
        <pt x="49" y="621" on="1"/>
        <pt x="115" y="687" on="1"/>
        <pt x="195" y="607" on="1"/>
        <pt x="234" y="617" on="0"/>
        <pt x="301" y="617" on="1"/>
        <pt x="371" y="617" on="0"/>
        <pt x="409" y="606" on="1"/>
        <pt x="490" y="688" on="1"/>
        <pt x="556" y="622" on="1"/>
        <pt x="483" y="549" on="1"/>
        <pt x="497" y="520" on="0"/>
        <pt x="506" y="426" on="0"/>
        <pt x="506" y="345" on="1"/>
        <pt x="506" y="263" on="0"/>
        <pt x="497" y="169" on="0"/>
        <pt x="483" y="140" on="1"/>
        <pt x="556" y="66" on="1"/>
        <pt x="490" y="0" on="1"/>
        <pt x="408" y="82" on="1"/>
        <pt x="371" y="71" on="0"/>
        <pt x="301" y="71" on="1"/>
        <pt x="232" y="71" on="0"/>
        <pt x="196" y="82" on="1"/>
        <pt x="115" y="1" on="1"/>
      </contour>
      <contour>
        <pt x="348" y="167" on="0"/>
        <pt x="384" y="190" on="0"/>
        <pt x="393" y="255" on="0"/>
        <pt x="393" y="345" on="1"/>
        <pt x="393" y="434" on="0"/>
        <pt x="384" y="499" on="0"/>
        <pt x="349" y="521" on="0"/>
        <pt x="301" y="521" on="1"/>
        <pt x="253" y="521" on="0"/>
        <pt x="218" y="499" on="0"/>
        <pt x="209" y="434" on="0"/>
        <pt x="209" y="345" on="1"/>
        <pt x="209" y="255" on="0"/>
        <pt x="218" y="190" on="0"/>
        <pt x="254" y="167" on="0"/>
        <pt x="301" y="167" on="1"/>
      </contour>
    </TTGlyph>
    <TTGlyph name="d" xMin="49" yMin="-8" xMax="454" yMax="743">
      <contour>
        <pt x="145" y="-8" on="0"/>
        <pt x="79" y="39" on="0"/>
        <pt x="49" y="151" on="0"/>
        <pt x="49" y="254" on="1"/>
        <pt x="49" y="356" on="0"/>
        <pt x="78" y="469" on="0"/>
        <pt x="143" y="518" on="0"/>
        <pt x="202" y="518" on="1"/>
        <pt x="251" y="518" on="0"/>
        <pt x="316" y="489" on="0"/>
        <pt x="334" y="454" on="1"/>
        <pt x="341" y="454" on="1"/>
        <pt x="341" y="743" on="1"/>
        <pt x="454" y="743" on="1"/>
        <pt x="454" y="0" on="1"/>
        <pt x="349" y="0" on="1"/>
        <pt x="345" y="64" on="1"/>
        <pt x="339" y="64" on="1"/>
        <pt x="322" y="23" on="0"/>
        <pt x="251" y="-8" on="0"/>
        <pt x="205" y="-8" on="1"/>
      </contour>
      <contour>
        <pt x="285" y="95" on="0"/>
        <pt x="320" y="113" on="0"/>
        <pt x="329" y="135" on="1"/>
        <pt x="336" y="153" on="0"/>
        <pt x="341" y="209" on="0"/>
        <pt x="341" y="255" on="1"/>
        <pt x="341" y="334" on="0"/>
        <pt x="331" y="365" on="1"/>
        <pt x="324" y="393" on="0"/>
        <pt x="288" y="416" on="0"/>
        <pt x="253" y="416" on="1"/>
        <pt x="210" y="416" on="0"/>
        <pt x="174" y="396" on="0"/>
        <pt x="162" y="332" on="0"/>
        <pt x="162" y="255" on="1"/>
        <pt x="162" y="177" on="0"/>
        <pt x="174" y="114" on="0"/>
        <pt x="209" y="95" on="0"/>
        <pt x="253" y="95" on="1"/>
      </contour>
    </TTGlyph>
    <TTGlyph name="dagger" xMin="52" yMin="0" xMax="377" yMax="688">
      <contour>
        <pt x="168" y="434" on="1"/>
        <pt x="52" y="442" on="1"/>
        <pt x="52" y="516" on="1"/>
        <pt x="168" y="525" on="1"/>
        <pt x="177" y="688" on="1"/>
        <pt x="251" y="688" on="1"/>
        <pt x="260" y="525" on="1"/>
        <pt x="377" y="516" on="1"/>
        <pt x="377" y="442" on="1"/>
        <pt x="260" y="434" on="1"/>
        <pt x="251" y="0" on="1"/>
        <pt x="177" y="0" on="1"/>
      </contour>
    </TTGlyph>
    <TTGlyph name="daggerdbl" xMin="52" yMin="0" xMax="377" yMax="688">
      <contour>
        <pt x="168" y="163" on="1"/>
        <pt x="52" y="171" on="1"/>
        <pt x="52" y="245" on="1"/>
        <pt x="168" y="254" on="1"/>
        <pt x="168" y="434" on="1"/>
        <pt x="52" y="442" on="1"/>
        <pt x="52" y="516" on="1"/>
        <pt x="168" y="525" on="1"/>
        <pt x="177" y="688" on="1"/>
        <pt x="251" y="688" on="1"/>
        <pt x="260" y="525" on="1"/>
        <pt x="377" y="516" on="1"/>
        <pt x="377" y="442" on="1"/>
        <pt x="260" y="434" on="1"/>
        <pt x="260" y="254" on="1"/>
        <pt x="377" y="245" on="1"/>
        <pt x="377" y="171" on="1"/>
        <pt x="260" y="163" on="1"/>
        <pt x="251" y="0" on="1"/>
        <pt x="177" y="0" on="1"/>
      </contour>
    </TTGlyph>
    <TTGlyph name="dcaron" xMin="49" yMin="-8" xMax="608" yMax="743">
      <component glyphName=".ttfautohint" x="49" y="0" flags="0x0"/>
      <component glyphName="d" x="0" y="0" flags="0x0"/>
      <component glyphName="caron.loclCSY" x="444" y="0" flags="0x0"/>
    </TTGlyph>
    <TTGlyph name="dcroat" xMin="49" yMin="-8" xMax="509" yMax="743">
      <contour>
        <pt x="509" y="593" on="1"/>
        <pt x="454" y="593" on="1"/>
        <pt x="454" y="0" on="1"/>
        <pt x="349" y="0" on="1"/>
        <pt x="345" y="64" on="1"/>
        <pt x="339" y="64" on="1"/>
        <pt x="322" y="23" on="0"/>
        <pt x="251" y="-8" on="0"/>
        <pt x="205" y="-8" on="1"/>
        <pt x="145" y="-8" on="0"/>
        <pt x="79" y="39" on="0"/>
        <pt x="49" y="151" on="0"/>
        <pt x="49" y="254" on="1"/>
        <pt x="49" y="356" on="0"/>
        <pt x="78" y="469" on="0"/>
        <pt x="143" y="518" on="0"/>
        <pt x="202" y="518" on="1"/>
        <pt x="251" y="518" on="0"/>
        <pt x="316" y="489" on="0"/>
        <pt x="334" y="454" on="1"/>
        <pt x="341" y="454" on="1"/>
        <pt x="341" y="593" on="1"/>
        <pt x="230" y="593" on="1"/>
        <pt x="230" y="688" on="1"/>
        <pt x="341" y="688" on="1"/>
        <pt x="341" y="743" on="1"/>
        <pt x="454" y="743" on="1"/>
        <pt x="454" y="688" on="1"/>
        <pt x="509" y="688" on="1"/>
      </contour>
      <contour>
        <pt x="336" y="153" on="0"/>
        <pt x="341" y="209" on="0"/>
        <pt x="341" y="255" on="1"/>
        <pt x="341" y="334" on="0"/>
        <pt x="331" y="365" on="1"/>
        <pt x="324" y="393" on="0"/>
        <pt x="288" y="416" on="0"/>
        <pt x="253" y="416" on="1"/>
        <pt x="210" y="416" on="0"/>
        <pt x="174" y="396" on="0"/>
        <pt x="162" y="332" on="0"/>
        <pt x="162" y="255" on="1"/>
        <pt x="162" y="177" on="0"/>
        <pt x="174" y="114" on="0"/>
        <pt x="209" y="95" on="0"/>
        <pt x="253" y="95" on="1"/>
        <pt x="285" y="95" on="0"/>
        <pt x="320" y="113" on="0"/>
        <pt x="329" y="135" on="1"/>
      </contour>
    </TTGlyph>
    <TTGlyph name="degree" xMin="50" yMin="397" xMax="308" yMax="696">
      <contour>
        <pt x="117" y="397" on="0"/>
        <pt x="64" y="425" on="0"/>
        <pt x="50" y="483" on="0"/>
        <pt x="50" y="546" on="1"/>
        <pt x="50" y="609" on="0"/>
        <pt x="64" y="667" on="0"/>
        <pt x="117" y="696" on="0"/>
        <pt x="178" y="696" on="1"/>
        <pt x="239" y="696" on="0"/>
        <pt x="294" y="667" on="0"/>
        <pt x="308" y="608" on="0"/>
        <pt x="308" y="546" on="1"/>
        <pt x="308" y="483" on="0"/>
        <pt x="294" y="425" on="0"/>
        <pt x="239" y="397" on="0"/>
        <pt x="178" y="397" on="1"/>
      </contour>
      <contour>
        <pt x="206" y="456" on="0"/>
        <pt x="228" y="469" on="0"/>
        <pt x="233" y="502" on="0"/>
        <pt x="233" y="546" on="1"/>
        <pt x="233" y="590" on="0"/>
        <pt x="228" y="624" on="0"/>
        <pt x="206" y="637" on="0"/>
        <pt x="178" y="637" on="1"/>
        <pt x="151" y="637" on="0"/>
        <pt x="129" y="624" on="0"/>
        <pt x="124" y="590" on="0"/>
        <pt x="124" y="546" on="1"/>
        <pt x="124" y="502" on="0"/>
        <pt x="129" y="469" on="0"/>
        <pt x="151" y="456" on="0"/>
        <pt x="178" y="456" on="1"/>
      </contour>
    </TTGlyph>
    <TTGlyph name="dialog" xMin="59" yMin="-212" xMax="746" yMax="688">
      <contour>
        <pt x="306" y="-127" on="1"/>
        <pt x="494" y="60" on="1"/>
        <pt x="686" y="60" on="1"/>
        <pt x="686" y="628" on="1"/>
        <pt x="119" y="628" on="1"/>
        <pt x="119" y="60" on="1"/>
        <pt x="306" y="60" on="1"/>
        <pt x="306" y="0" on="1"/>
        <pt x="59" y="0" on="1"/>
        <pt x="59" y="688" on="1"/>
        <pt x="746" y="688" on="1"/>
        <pt x="746" y="0" on="1"/>
        <pt x="519" y="0" on="1"/>
        <pt x="306" y="-212" on="1"/>
      </contour>
    </TTGlyph>
    <TTGlyph name="dieresis" xMin="16" yMin="635" xMax="302" yMax="730">
      <contour>
        <pt x="16" y="730" on="1"/>
        <pt x="116" y="730" on="1"/>
        <pt x="116" y="635" on="1"/>
        <pt x="16" y="635" on="1"/>
      </contour>
      <contour>
        <pt x="202" y="730" on="1"/>
        <pt x="302" y="730" on="1"/>
        <pt x="302" y="635" on="1"/>
        <pt x="202" y="635" on="1"/>
      </contour>
    </TTGlyph>
    <TTGlyph name="divide" xMin="65" yMin="32" xMax="445" yMax="473">
      <contour>
        <pt x="208" y="473" on="1"/>
        <pt x="302" y="473" on="1"/>
        <pt x="302" y="385" on="1"/>
        <pt x="208" y="385" on="1"/>
      </contour>
      <contour>
        <pt x="65" y="299" on="1"/>
        <pt x="445" y="299" on="1"/>
        <pt x="445" y="206" on="1"/>
        <pt x="65" y="206" on="1"/>
      </contour>
      <contour>
        <pt x="208" y="121" on="1"/>
        <pt x="302" y="121" on="1"/>
        <pt x="302" y="32" on="1"/>
        <pt x="208" y="32" on="1"/>
      </contour>
    </TTGlyph>
    <TTGlyph name="dollar" xMin="52" yMin="-8" xMax="425" yMax="696">
      <contour>
        <pt x="199" y="69" on="1"/>
        <pt x="121" y="72" on="0"/>
        <pt x="67" y="84" on="1"/>
        <pt x="67" y="177" on="1"/>
        <pt x="75" y="176" on="0"/>
        <pt x="164" y="168" on="0"/>
        <pt x="222" y="168" on="1"/>
        <pt x="262" y="168" on="0"/>
        <pt x="299" y="179" on="0"/>
        <pt x="310" y="204" on="0"/>
        <pt x="310" y="229" on="1"/>
        <pt x="310" y="256" on="0"/>
        <pt x="303" y="279" on="0"/>
        <pt x="285" y="287" on="0"/>
        <pt x="262" y="290" on="1"/>
        <pt x="170" y="303" on="1"/>
        <pt x="122" y="310" on="0"/>
        <pt x="71" y="347" on="0"/>
        <pt x="52" y="409" on="0"/>
        <pt x="52" y="460" on="1"/>
        <pt x="52" y="540" on="0"/>
        <pt x="127" y="611" on="0"/>
        <pt x="199" y="617" on="1"/>
        <pt x="199" y="696" on="1"/>
        <pt x="284" y="696" on="1"/>
        <pt x="284" y="619" on="1"/>
        <pt x="312" y="618" on="0"/>
        <pt x="377" y="608" on="0"/>
        <pt x="398" y="603" on="1"/>
        <pt x="398" y="510" on="1"/>
        <pt x="323" y="520" on="0"/>
        <pt x="256" y="520" on="1"/>
        <pt x="204" y="520" on="0"/>
        <pt x="167" y="498" on="0"/>
        <pt x="167" y="461" on="1"/>
        <pt x="167" y="435" on="0"/>
        <pt x="173" y="414" on="0"/>
        <pt x="190" y="406" on="0"/>
        <pt x="212" y="403" on="1"/>
        <pt x="315" y="390" on="1"/>
        <pt x="354" y="385" on="0"/>
        <pt x="400" y="358" on="0"/>
        <pt x="425" y="294" on="0"/>
        <pt x="425" y="235" on="1"/>
        <pt x="425" y="148" on="0"/>
        <pt x="354" y="76" on="0"/>
        <pt x="284" y="70" on="1"/>
        <pt x="284" y="-8" on="1"/>
        <pt x="199" y="-8" on="1"/>
      </contour>
    </TTGlyph>
    <TTGlyph name="dotaccent" xMin="16" yMin="635" xMax="116" yMax="730">
      <contour>
        <pt x="16" y="730" on="1"/>
        <pt x="116" y="730" on="1"/>
        <pt x="116" y="635" on="1"/>
        <pt x="16" y="635" on="1"/>
      </contour>
    </TTGlyph>
    <TTGlyph name="dotbelowcomb" xMin="-184" yMin="-183" xMax="-58" yMax="-62">
      <contour>
        <pt x="-184" y="-62" on="1"/>
        <pt x="-58" y="-62" on="1"/>
        <pt x="-58" y="-183" on="1"/>
        <pt x="-184" y="-183" on="1"/>
      </contour>
    </TTGlyph>
    <TTGlyph name="dotlessi" xMin="65" yMin="0" xMax="178" yMax="510">
      <contour>
        <pt x="65" y="510" on="1"/>
        <pt x="178" y="510" on="1"/>
        <pt x="178" y="0" on="1"/>
        <pt x="65" y="0" on="1"/>
      </contour>
    </TTGlyph>
    <TTGlyph name="e" xMin="49" yMin="-8" xMax="446" yMax="518">
      <contour>
        <pt x="446" y="217" on="1"/>
        <pt x="162" y="217" on="1"/>
        <pt x="162" y="155" on="0"/>
        <pt x="176" y="106" on="0"/>
        <pt x="226" y="88" on="0"/>
        <pt x="289" y="88" on="1"/>
        <pt x="352" y="88" on="0"/>
        <pt x="429" y="96" on="1"/>
        <pt x="429" y="8" on="1"/>
        <pt x="400" y="1" on="0"/>
        <pt x="308" y="-8" on="0"/>
        <pt x="263" y="-8" on="1"/>
        <pt x="166" y="-8" on="0"/>
        <pt x="76" y="42" on="0"/>
        <pt x="49" y="148" on="0"/>
        <pt x="49" y="254" on="1"/>
        <pt x="49" y="357" on="0"/>
        <pt x="75" y="464" on="0"/>
        <pt x="163" y="518" on="0"/>
        <pt x="255" y="518" on="1"/>
        <pt x="345" y="518" on="0"/>
        <pt x="426" y="466" on="0"/>
        <pt x="446" y="363" on="0"/>
        <pt x="446" y="255" on="1"/>
      </contour>
      <contour>
        <pt x="212" y="423" on="0"/>
        <pt x="175" y="404" on="0"/>
        <pt x="163" y="354" on="0"/>
        <pt x="162" y="297" on="1"/>
        <pt x="337" y="297" on="1"/>
        <pt x="337" y="354" on="0"/>
        <pt x="323" y="406" on="0"/>
        <pt x="289" y="423" on="0"/>
        <pt x="253" y="423" on="1"/>
      </contour>
    </TTGlyph>
    <TTGlyph name="eacute" xMin="49" yMin="-8" xMax="446" yMax="743">
      <component glyphName=".ttfautohint" x="49" y="0" flags="0x0"/>
      <component glyphName="e" x="0" y="0" flags="0x0"/>
      <component glyphName="acute" x="189" y="0" flags="0x0"/>
    </TTGlyph>
    <TTGlyph name="ebreve" xMin="49" yMin="-8" xMax="446" yMax="743">
      <component glyphName=".ttfautohint" x="49" y="0" flags="0x0"/>
      <component glyphName="e" x="0" y="0" flags="0x0"/>
      <component glyphName="uni0306" x="396" y="0" flags="0x0"/>
    </TTGlyph>
    <TTGlyph name="ecaron" xMin="49" yMin="-8" xMax="446" yMax="743">
      <component glyphName=".ttfautohint" x="49" y="0" flags="0x0"/>
      <component glyphName="e" x="0" y="0" flags="0x0"/>
      <component glyphName="uni030C" x="406" y="0" flags="0x0"/>
    </TTGlyph>
    <TTGlyph name="ecircumflex" xMin="49" yMin="-8" xMax="446" yMax="743">
      <component glyphName=".ttfautohint" x="49" y="0" flags="0x0"/>
      <component glyphName="e" x="0" y="0" flags="0x0"/>
      <component glyphName="circumflex" x="94" y="0" flags="0x0"/>
    </TTGlyph>
    <TTGlyph name="edieresis" xMin="49" yMin="-8" xMax="446" yMax="725">
      <component glyphName=".ttfautohint" x="49" y="0" flags="0x0"/>
      <component glyphName="e" x="0" y="0" flags="0x0"/>
      <component glyphName="dieresis" x="95" y="-5" flags="0x4"/>
    </TTGlyph>
    <TTGlyph name="edotaccent" xMin="49" yMin="-8" xMax="446" yMax="730">
      <component glyphName=".ttfautohint" x="49" y="0" flags="0x0"/>
      <component glyphName="e" x="0" y="0" flags="0x0"/>
      <component glyphName="uni0307" x="313" y="0" flags="0x0"/>
    </TTGlyph>
    <TTGlyph name="egrave" xMin="49" yMin="-8" xMax="446" yMax="743">
      <component glyphName=".ttfautohint" x="49" y="0" flags="0x0"/>
      <component glyphName="e" x="0" y="0" flags="0x0"/>
      <component glyphName="grave" x="101" y="0" flags="0x0"/>
    </TTGlyph>
    <TTGlyph name="eight" xMin="55" yMin="-8" xMax="536" yMax="696">
      <contour>
        <pt x="200" y="-8" on="0"/>
        <pt x="95" y="34" on="0"/>
        <pt x="55" y="116" on="0"/>
        <pt x="55" y="183" on="1"/>
        <pt x="55" y="240" on="0"/>
        <pt x="79" y="306" on="0"/>
        <pt x="126" y="339" on="0"/>
        <pt x="165" y="349" on="1"/>
        <pt x="165" y="353" on="1"/>
        <pt x="111" y="366" on="0"/>
        <pt x="60" y="442" on="0"/>
        <pt x="60" y="516" on="1"/>
        <pt x="60" y="580" on="0"/>
        <pt x="104" y="658" on="0"/>
        <pt x="207" y="696" on="0"/>
        <pt x="296" y="696" on="1"/>
        <pt x="385" y="696" on="0"/>
        <pt x="487" y="658" on="0"/>
        <pt x="531" y="580" on="0"/>
        <pt x="531" y="516" on="1"/>
        <pt x="531" y="442" on="0"/>
        <pt x="480" y="366" on="0"/>
        <pt x="426" y="353" on="1"/>
        <pt x="426" y="349" on="1"/>
        <pt x="465" y="339" on="0"/>
        <pt x="512" y="306" on="0"/>
        <pt x="536" y="240" on="0"/>
        <pt x="536" y="183" on="1"/>
        <pt x="536" y="116" on="0"/>
        <pt x="496" y="34" on="0"/>
        <pt x="391" y="-8" on="0"/>
        <pt x="296" y="-8" on="1"/>
      </contour>
      <contour>
        <pt x="345" y="399" on="0"/>
        <pt x="392" y="413" on="0"/>
        <pt x="410" y="453" on="0"/>
        <pt x="410" y="496" on="1"/>
        <pt x="410" y="539" on="0"/>
        <pt x="392" y="579" on="0"/>
        <pt x="346" y="593" on="0"/>
        <pt x="296" y="593" on="1"/>
        <pt x="246" y="593" on="0"/>
        <pt x="199" y="579" on="0"/>
        <pt x="182" y="539" on="0"/>
        <pt x="182" y="496" on="1"/>
        <pt x="182" y="453" on="0"/>
        <pt x="200" y="413" on="0"/>
        <pt x="247" y="399" on="0"/>
        <pt x="296" y="399" on="1"/>
      </contour>
      <contour>
        <pt x="346" y="96" on="0"/>
        <pt x="394" y="109" on="0"/>
        <pt x="415" y="150" on="0"/>
        <pt x="415" y="195" on="1"/>
        <pt x="415" y="241" on="0"/>
        <pt x="395" y="283" on="0"/>
        <pt x="347" y="297" on="0"/>
        <pt x="296" y="297" on="1"/>
        <pt x="244" y="297" on="0"/>
        <pt x="196" y="283" on="0"/>
        <pt x="177" y="241" on="0"/>
        <pt x="177" y="195" on="1"/>
        <pt x="177" y="150" on="0"/>
        <pt x="198" y="109" on="0"/>
        <pt x="246" y="96" on="0"/>
        <pt x="296" y="96" on="1"/>
      </contour>
    </TTGlyph>
    <TTGlyph name="eight.dnom" xMin="36" yMin="-4" xMax="316" yMax="384">
      <contour>
        <pt x="121" y="-4" on="0"/>
        <pt x="60" y="18" on="0"/>
        <pt x="36" y="63" on="0"/>
        <pt x="36" y="101" on="1"/>
        <pt x="36" y="146" on="0"/>
        <pt x="66" y="185" on="0"/>
        <pt x="100" y="193" on="1"/>
        <pt x="100" y="195" on="1"/>
        <pt x="69" y="202" on="0"/>
        <pt x="39" y="244" on="0"/>
        <pt x="39" y="285" on="1"/>
        <pt x="39" y="339" on="0"/>
        <pt x="101" y="384" on="0"/>
        <pt x="176" y="384" on="1"/>
        <pt x="251" y="384" on="0"/>
        <pt x="312" y="339" on="0"/>
        <pt x="312" y="285" on="1"/>
        <pt x="312" y="244" on="0"/>
        <pt x="283" y="202" on="0"/>
        <pt x="251" y="195" on="1"/>
        <pt x="251" y="193" on="1"/>
        <pt x="285" y="185" on="0"/>
        <pt x="316" y="146" on="0"/>
        <pt x="316" y="101" on="1"/>
        <pt x="316" y="63" on="0"/>
        <pt x="292" y="18" on="0"/>
        <pt x="231" y="-4" on="0"/>
        <pt x="176" y="-4" on="1"/>
      </contour>
      <contour>
        <pt x="214" y="223" on="0"/>
        <pt x="237" y="240" on="0"/>
        <pt x="237" y="271" on="1"/>
        <pt x="237" y="293" on="0"/>
        <pt x="227" y="313" on="0"/>
        <pt x="203" y="320" on="0"/>
        <pt x="176" y="320" on="1"/>
        <pt x="138" y="320" on="0"/>
        <pt x="114" y="303" on="0"/>
        <pt x="114" y="271" on="1"/>
        <pt x="114" y="240" on="0"/>
        <pt x="138" y="223" on="0"/>
        <pt x="176" y="223" on="1"/>
      </contour>
      <contour>
        <pt x="215" y="60" on="0"/>
        <pt x="240" y="78" on="0"/>
        <pt x="240" y="110" on="1"/>
        <pt x="240" y="143" on="0"/>
        <pt x="215" y="161" on="0"/>
        <pt x="176" y="161" on="1"/>
        <pt x="137" y="161" on="0"/>
        <pt x="112" y="143" on="0"/>
        <pt x="112" y="110" on="1"/>
        <pt x="112" y="78" on="0"/>
        <pt x="137" y="60" on="0"/>
        <pt x="176" y="60" on="1"/>
      </contour>
    </TTGlyph>
    <TTGlyph name="eight.numr" xMin="36" yMin="304" xMax="316" yMax="692">
      <component glyphName=".ttfautohint" x="36" y="304" flags="0x0"/>
      <component glyphName="eight.dnom" x="0" y="308" flags="0x4"/>
    </TTGlyph>
    <TTGlyph name="eight.tnum" xMin="47" yMin="-8" xMax="528" yMax="696">
      <contour>
        <pt x="191" y="-8" on="0"/>
        <pt x="87" y="34" on="0"/>
        <pt x="47" y="116" on="0"/>
        <pt x="47" y="183" on="1"/>
        <pt x="47" y="240" on="0"/>
        <pt x="71" y="306" on="0"/>
        <pt x="118" y="339" on="0"/>
        <pt x="157" y="349" on="1"/>
        <pt x="157" y="353" on="1"/>
        <pt x="103" y="366" on="0"/>
        <pt x="52" y="442" on="0"/>
        <pt x="52" y="516" on="1"/>
        <pt x="52" y="580" on="0"/>
        <pt x="96" y="658" on="0"/>
        <pt x="198" y="696" on="0"/>
        <pt x="287" y="696" on="1"/>
        <pt x="376" y="696" on="0"/>
        <pt x="478" y="658" on="0"/>
        <pt x="522" y="580" on="0"/>
        <pt x="522" y="516" on="1"/>
        <pt x="522" y="442" on="0"/>
        <pt x="472" y="366" on="0"/>
        <pt x="417" y="353" on="1"/>
        <pt x="417" y="349" on="1"/>
        <pt x="457" y="339" on="0"/>
        <pt x="504" y="306" on="0"/>
        <pt x="528" y="240" on="0"/>
        <pt x="528" y="183" on="1"/>
        <pt x="528" y="117" on="0"/>
        <pt x="487" y="34" on="0"/>
        <pt x="382" y="-8" on="0"/>
        <pt x="287" y="-8" on="1"/>
      </contour>
      <contour>
        <pt x="336" y="399" on="0"/>
        <pt x="383" y="413" on="0"/>
        <pt x="401" y="453" on="0"/>
        <pt x="401" y="496" on="1"/>
        <pt x="401" y="539" on="0"/>
        <pt x="383" y="579" on="0"/>
        <pt x="337" y="593" on="0"/>
        <pt x="287" y="593" on="1"/>
        <pt x="237" y="593" on="0"/>
        <pt x="191" y="579" on="0"/>
        <pt x="173" y="539" on="0"/>
        <pt x="173" y="496" on="1"/>
        <pt x="173" y="453" on="0"/>
        <pt x="191" y="413" on="0"/>
        <pt x="238" y="399" on="0"/>
        <pt x="287" y="399" on="1"/>
      </contour>
      <contour>
        <pt x="337" y="96" on="0"/>
        <pt x="386" y="109" on="0"/>
        <pt x="407" y="150" on="0"/>
        <pt x="407" y="195" on="1"/>
        <pt x="407" y="241" on="0"/>
        <pt x="387" y="283" on="0"/>
        <pt x="338" y="297" on="0"/>
        <pt x="287" y="297" on="1"/>
        <pt x="235" y="297" on="0"/>
        <pt x="187" y="283" on="0"/>
        <pt x="168" y="241" on="0"/>
        <pt x="168" y="195" on="1"/>
        <pt x="168" y="150" on="0"/>
        <pt x="189" y="109" on="0"/>
        <pt x="237" y="96" on="0"/>
        <pt x="287" y="96" on="1"/>
      </contour>
    </TTGlyph>
    <TTGlyph name="ellipsis" xMin="59" yMin="0" xMax="672" yMax="121">
      <contour>
        <pt x="59" y="121" on="1"/>
        <pt x="185" y="121" on="1"/>
        <pt x="185" y="0" on="1"/>
        <pt x="59" y="0" on="1"/>
      </contour>
      <contour>
        <pt x="302" y="121" on="1"/>
        <pt x="429" y="121" on="1"/>
        <pt x="429" y="0" on="1"/>
        <pt x="302" y="0" on="1"/>
      </contour>
      <contour>
        <pt x="545" y="121" on="1"/>
        <pt x="672" y="121" on="1"/>
        <pt x="672" y="0" on="1"/>
        <pt x="545" y="0" on="1"/>
      </contour>
    </TTGlyph>
    <TTGlyph name="emacron" xMin="49" yMin="-8" xMax="446" yMax="743">
      <component glyphName=".ttfautohint" x="49" y="0" flags="0x0"/>
      <component glyphName="e" x="0" y="0" flags="0x0"/>
      <component glyphName="uni0304" x="417" y="0" flags="0x0"/>
    </TTGlyph>
    <TTGlyph name="emdash" xMin="49" yMin="257" xMax="800" yMax="351">
      <contour>
        <pt x="49" y="351" on="1"/>
        <pt x="800" y="351" on="1"/>
        <pt x="800" y="257" on="1"/>
        <pt x="49" y="257" on="1"/>
      </contour>
    </TTGlyph>
    <TTGlyph name="endash" xMin="49" yMin="257" xMax="409" yMax="351">
      <contour>
        <pt x="49" y="351" on="1"/>
        <pt x="409" y="351" on="1"/>
        <pt x="409" y="257" on="1"/>
        <pt x="49" y="257" on="1"/>
      </contour>
    </TTGlyph>
    <TTGlyph name="eng" xMin="65" yMin="-197" xMax="461" yMax="518">
      <contour>
        <pt x="378" y="518" on="0"/>
        <pt x="440" y="476" on="0"/>
        <pt x="461" y="395" on="0"/>
        <pt x="461" y="325" on="1"/>
        <pt x="461" y="-23" on="1"/>
        <pt x="461" y="-103" on="0"/>
        <pt x="429" y="-176" on="0"/>
        <pt x="353" y="-197" on="0"/>
        <pt x="271" y="-197" on="1"/>
        <pt x="271" y="-108" on="1"/>
        <pt x="307" y="-108" on="0"/>
        <pt x="339" y="-98" on="0"/>
        <pt x="348" y="-77" on="0"/>
        <pt x="348" y="-55" on="1"/>
        <pt x="348" y="276" on="1"/>
        <pt x="348" y="345" on="0"/>
        <pt x="338" y="399" on="0"/>
        <pt x="306" y="415" on="0"/>
        <pt x="267" y="415" on="1"/>
        <pt x="227" y="415" on="0"/>
        <pt x="189" y="386" on="0"/>
        <pt x="178" y="326" on="0"/>
        <pt x="178" y="266" on="1"/>
        <pt x="178" y="0" on="1"/>
        <pt x="65" y="0" on="1"/>
        <pt x="65" y="510" on="1"/>
        <pt x="169" y="510" on="1"/>
        <pt x="173" y="446" on="1"/>
        <pt x="180" y="446" on="1"/>
        <pt x="196" y="483" on="0"/>
        <pt x="264" y="518" on="0"/>
        <pt x="319" y="518" on="1"/>
      </contour>
    </TTGlyph>
    <TTGlyph name="eogonek" xMin="49" yMin="-196" xMax="446" yMax="518">
      <contour>
        <pt x="446" y="217" on="1"/>
        <pt x="162" y="217" on="1"/>
        <pt x="162" y="155" on="0"/>
        <pt x="176" y="106" on="0"/>
        <pt x="226" y="88" on="0"/>
        <pt x="289" y="88" on="1"/>
        <pt x="352" y="88" on="0"/>
        <pt x="429" y="96" on="1"/>
        <pt x="429" y="8" on="1"/>
        <pt x="399" y="-10" on="0"/>
        <pt x="350" y="-68" on="0"/>
        <pt x="350" y="-93" on="1"/>
        <pt x="350" y="-108" on="0"/>
        <pt x="370" y="-128" on="0"/>
        <pt x="392" y="-128" on="1"/>
        <pt x="410" y="-127" on="1"/>
        <pt x="410" y="-193" on="1"/>
        <pt x="383" y="-196" on="0"/>
        <pt x="360" y="-196" on="1"/>
        <pt x="304" y="-196" on="0"/>
        <pt x="256" y="-153" on="0"/>
        <pt x="256" y="-119" on="1"/>
        <pt x="256" y="-61" on="0"/>
        <pt x="319" y="-6" on="1"/>
        <pt x="281" y="-8" on="0"/>
        <pt x="263" y="-8" on="1"/>
        <pt x="166" y="-8" on="0"/>
        <pt x="76" y="42" on="0"/>
        <pt x="49" y="148" on="0"/>
        <pt x="49" y="254" on="1"/>
        <pt x="49" y="357" on="0"/>
        <pt x="75" y="464" on="0"/>
        <pt x="163" y="518" on="0"/>
        <pt x="255" y="518" on="1"/>
        <pt x="345" y="518" on="0"/>
        <pt x="426" y="466" on="0"/>
        <pt x="446" y="363" on="0"/>
        <pt x="446" y="255" on="1"/>
      </contour>
      <contour>
        <pt x="212" y="423" on="0"/>
        <pt x="175" y="404" on="0"/>
        <pt x="163" y="354" on="0"/>
        <pt x="162" y="297" on="1"/>
        <pt x="337" y="297" on="1"/>
        <pt x="337" y="354" on="0"/>
        <pt x="323" y="406" on="0"/>
        <pt x="289" y="423" on="0"/>
        <pt x="253" y="423" on="1"/>
      </contour>
    </TTGlyph>
    <TTGlyph name="equal" xMin="65" yMin="111" xMax="445" yMax="395">
      <contour>
        <pt x="65" y="395" on="1"/>
        <pt x="445" y="395" on="1"/>
        <pt x="445" y="302" on="1"/>
        <pt x="65" y="302" on="1"/>
      </contour>
      <contour>
        <pt x="65" y="204" on="1"/>
        <pt x="445" y="204" on="1"/>
        <pt x="445" y="111" on="1"/>
        <pt x="65" y="111" on="1"/>
      </contour>
    </TTGlyph>
    <TTGlyph name="estimated" xMin="56" yMin="-8" xMax="559" yMax="696">
      <contour>
        <pt x="176" y="169" on="0"/>
        <pt x="192" y="55" on="0"/>
        <pt x="244" y="26" on="0"/>
        <pt x="317" y="26" on="1"/>
        <pt x="398" y="26" on="0"/>
        <pt x="472" y="47" on="0"/>
        <pt x="506" y="118" on="0"/>
        <pt x="511" y="200" on="1"/>
        <pt x="547" y="200" on="1"/>
        <pt x="542" y="113" on="0"/>
        <pt x="502" y="27" on="0"/>
        <pt x="405" y="-8" on="0"/>
        <pt x="307" y="-8" on="1"/>
        <pt x="186" y="-8" on="0"/>
        <pt x="83" y="51" on="0"/>
        <pt x="56" y="186" on="0"/>
        <pt x="56" y="344" on="1"/>
        <pt x="56" y="502" on="0"/>
        <pt x="83" y="638" on="0"/>
        <pt x="186" y="696" on="0"/>
        <pt x="307" y="696" on="1"/>
        <pt x="428" y="696" on="0"/>
        <pt x="531" y="638" on="0"/>
        <pt x="559" y="502" on="0"/>
        <pt x="559" y="344" on="1"/>
        <pt x="559" y="323" on="1"/>
        <pt x="176" y="323" on="1"/>
      </contour>
      <contour>
        <pt x="239" y="662" on="0"/>
        <pt x="191" y="632" on="0"/>
        <pt x="176" y="516" on="0"/>
        <pt x="176" y="357" on="1"/>
        <pt x="439" y="357" on="1"/>
        <pt x="439" y="516" on="0"/>
        <pt x="424" y="632" on="0"/>
        <pt x="375" y="662" on="0"/>
        <pt x="307" y="662" on="1"/>
      </contour>
    </TTGlyph>
    <TTGlyph name="eth" xMin="49" yMin="-8" xMax="459" yMax="743">
      <contour>
        <pt x="158" y="-8" on="0"/>
        <pt x="73" y="39" on="0"/>
        <pt x="49" y="142" on="0"/>
        <pt x="49" y="254" on="1"/>
        <pt x="49" y="356" on="0"/>
        <pt x="70" y="462" on="0"/>
        <pt x="142" y="517" on="0"/>
        <pt x="219" y="517" on="1"/>
        <pt x="279" y="517" on="0"/>
        <pt x="317" y="499" on="1"/>
        <pt x="319" y="502" on="1"/>
        <pt x="301" y="560" on="0"/>
        <pt x="276" y="606" on="1"/>
        <pt x="173" y="590" on="1"/>
        <pt x="173" y="661" on="1"/>
        <pt x="236" y="671" on="1"/>
        <pt x="211" y="702" on="0"/>
        <pt x="176" y="739" on="1"/>
        <pt x="176" y="743" on="1"/>
        <pt x="295" y="743" on="1"/>
        <pt x="318" y="718" on="0"/>
        <pt x="344" y="688" on="1"/>
        <pt x="444" y="703" on="1"/>
        <pt x="444" y="633" on="1"/>
        <pt x="385" y="623" on="1"/>
        <pt x="420" y="557" on="0"/>
        <pt x="441" y="462" on="1"/>
        <pt x="459" y="382" on="0"/>
        <pt x="459" y="264" on="1"/>
        <pt x="459" y="145" on="0"/>
        <pt x="436" y="39" on="0"/>
        <pt x="351" y="-8" on="0"/>
        <pt x="254" y="-8" on="1"/>
      </contour>
      <contour>
        <pt x="302" y="87" on="0"/>
        <pt x="339" y="109" on="0"/>
        <pt x="347" y="169" on="0"/>
        <pt x="347" y="254" on="1"/>
        <pt x="347" y="334" on="0"/>
        <pt x="338" y="396" on="0"/>
        <pt x="301" y="422" on="0"/>
        <pt x="254" y="422" on="1"/>
        <pt x="206" y="422" on="0"/>
        <pt x="170" y="401" on="0"/>
        <pt x="162" y="340" on="0"/>
        <pt x="162" y="254" on="1"/>
        <pt x="162" y="169" on="0"/>
        <pt x="170" y="109" on="0"/>
        <pt x="206" y="87" on="0"/>
        <pt x="254" y="87" on="1"/>
      </contour>
    </TTGlyph>
    <TTGlyph name="exclam" xMin="69" yMin="0" xMax="205" yMax="688">
      <contour>
        <pt x="92" y="266" on="0"/>
        <pt x="69" y="577" on="0"/>
        <pt x="69" y="627" on="1"/>
        <pt x="69" y="688" on="1"/>
        <pt x="205" y="688" on="1"/>
        <pt x="205" y="627" on="1"/>
        <pt x="205" y="577" on="0"/>
        <pt x="182" y="266" on="0"/>
        <pt x="178" y="213" on="1"/>
        <pt x="96" y="213" on="1"/>
      </contour>
      <contour>
        <pt x="74" y="121" on="1"/>
        <pt x="200" y="121" on="1"/>
        <pt x="200" y="0" on="1"/>
        <pt x="74" y="0" on="1"/>
      </contour>
    </TTGlyph>
    <TTGlyph name="exclam.case" xMin="69" yMin="0" xMax="205" yMax="688">
      <component glyphName=".ttfautohint" x="69" y="0" flags="0x0"/>
      <component glyphName="exclam" x="0" y="0" flags="0x0"/>
    </TTGlyph>
    <TTGlyph name="exclam.ss02" xMin="45" yMin="-8" xMax="749" yMax="696">
      <contour>
        <pt x="302" y="-8" on="0"/>
        <pt x="140" y="87" on="0"/>
        <pt x="45" y="249" on="0"/>
        <pt x="45" y="344" on="1"/>
        <pt x="45" y="439" on="0"/>
        <pt x="140" y="601" on="0"/>
        <pt x="302" y="696" on="0"/>
        <pt x="397" y="696" on="1"/>
        <pt x="492" y="696" on="0"/>
        <pt x="654" y="601" on="0"/>
        <pt x="749" y="439" on="0"/>
        <pt x="749" y="344" on="1"/>
        <pt x="749" y="249" on="0"/>
        <pt x="654" y="87" on="0"/>
        <pt x="492" y="-8" on="0"/>
        <pt x="397" y="-8" on="1"/>
      </contour>
      <contour>
        <pt x="480" y="37" on="0"/>
        <pt x="621" y="120" on="0"/>
        <pt x="704" y="261" on="0"/>
        <pt x="704" y="344" on="1"/>
        <pt x="704" y="427" on="0"/>
        <pt x="621" y="568" on="0"/>
        <pt x="480" y="651" on="0"/>
        <pt x="397" y="651" on="1"/>
        <pt x="314" y="651" on="0"/>
        <pt x="173" y="568" on="0"/>
        <pt x="90" y="427" on="0"/>
        <pt x="90" y="344" on="1"/>
        <pt x="90" y="261" on="0"/>
        <pt x="173" y="120" on="0"/>
        <pt x="314" y="37" on="0"/>
        <pt x="397" y="37" on="1"/>
      </contour>
      <contour>
        <pt x="372" y="300" on="0"/>
        <pt x="363" y="418" on="0"/>
        <pt x="363" y="480" on="1"/>
        <pt x="363" y="579" on="1"/>
        <pt x="431" y="579" on="1"/>
        <pt x="431" y="480" on="1"/>
        <pt x="431" y="418" on="0"/>
        <pt x="422" y="300" on="0"/>
        <pt x="417" y="268" on="1"/>
        <pt x="377" y="268" on="1"/>
      </contour>
      <contour>
        <pt x="363" y="191" on="1"/>
        <pt x="431" y="191" on="1"/>
        <pt x="431" y="109" on="1"/>
        <pt x="363" y="109" on="1"/>
      </contour>
    </TTGlyph>
    <TTGlyph name="exclamdbl" xMin="69" yMin="0" xMax="413" yMax="688">
      <component glyphName=".ttfautohint" x="69" y="0" flags="0x0"/>
      <component glyphName="exclam" x="208" y="0" flags="0x0"/>
      <component glyphName="exclam" x="0" y="0" flags="0x0"/>
    </TTGlyph>
    <TTGlyph name="exclamdown" xMin="61" yMin="-178" xMax="197" yMax="510">
      <contour>
        <pt x="66" y="510" on="1"/>
        <pt x="192" y="510" on="1"/>
        <pt x="192" y="389" on="1"/>
        <pt x="66" y="389" on="1"/>
      </contour>
      <contour>
        <pt x="61" y="-117" on="1"/>
        <pt x="61" y="-67" on="0"/>
        <pt x="84" y="244" on="0"/>
        <pt x="88" y="297" on="1"/>
        <pt x="170" y="297" on="1"/>
        <pt x="174" y="244" on="0"/>
        <pt x="197" y="-67" on="0"/>
        <pt x="197" y="-117" on="1"/>
        <pt x="197" y="-178" on="1"/>
        <pt x="61" y="-178" on="1"/>
      </contour>
    </TTGlyph>
    <TTGlyph name="exclamdown.case" xMin="61" yMin="0" xMax="197" yMax="688">
      <component glyphName=".ttfautohint" x="61" y="0" flags="0x0"/>
      <component glyphName="exclamdown" x="0" y="178" flags="0x4"/>
    </TTGlyph>
    <TTGlyph name="f" xMin="21" yMin="0" xMax="326" yMax="743">
      <contour>
        <pt x="105" y="414" on="1"/>
        <pt x="21" y="414" on="1"/>
        <pt x="21" y="510" on="1"/>
        <pt x="105" y="510" on="1"/>
        <pt x="105" y="561" on="1"/>
        <pt x="105" y="647" on="0"/>
        <pt x="142" y="722" on="0"/>
        <pt x="228" y="743" on="0"/>
        <pt x="326" y="743" on="1"/>
        <pt x="326" y="656" on="1"/>
        <pt x="276" y="656" on="0"/>
        <pt x="233" y="647" on="0"/>
        <pt x="218" y="617" on="0"/>
        <pt x="218" y="583" on="1"/>
        <pt x="218" y="510" on="1"/>
        <pt x="326" y="510" on="1"/>
        <pt x="326" y="414" on="1"/>
        <pt x="218" y="414" on="1"/>
        <pt x="218" y="0" on="1"/>
        <pt x="105" y="0" on="1"/>
      </contour>
    </TTGlyph>
    <TTGlyph name="f_f" xMin="21" yMin="0" xMax="674" yMax="743">
      <component glyphName=".ttfautohint" x="21" y="0" flags="0x0"/>
      <component glyphName="f" x="0" y="0" flags="0x0"/>
      <component glyphName="f" x="348" y="0" flags="0x0"/>
    </TTGlyph>
    <TTGlyph name="fi" xMin="21" yMin="0" xMax="528" yMax="743">
      <component glyphName=".ttfautohint" x="21" y="0" flags="0x0"/>
      <component glyphName="f" x="0" y="0" flags="0x0"/>
      <component glyphName="i" x="348" y="0" flags="0x0"/>
    </TTGlyph>
    <TTGlyph name="five" xMin="63" yMin="-8" xMax="490" yMax="688">
      <contour>
        <pt x="161" y="97" on="0"/>
        <pt x="234" y="97" on="1"/>
        <pt x="291" y="97" on="0"/>
        <pt x="347" y="116" on="0"/>
        <pt x="369" y="163" on="0"/>
        <pt x="369" y="209" on="1"/>
        <pt x="369" y="258" on="0"/>
        <pt x="345" y="304" on="0"/>
        <pt x="287" y="319" on="0"/>
        <pt x="228" y="319" on="1"/>
        <pt x="159" y="319" on="0"/>
        <pt x="69" y="308" on="1"/>
        <pt x="69" y="688" on="1"/>
        <pt x="448" y="688" on="1"/>
        <pt x="448" y="583" on="1"/>
        <pt x="180" y="583" on="1"/>
        <pt x="180" y="416" on="1"/>
        <pt x="205" y="419" on="0"/>
        <pt x="270" y="424" on="0"/>
        <pt x="293" y="424" on="1"/>
        <pt x="372" y="424" on="0"/>
        <pt x="458" y="377" on="0"/>
        <pt x="490" y="290" on="0"/>
        <pt x="490" y="221" on="1"/>
        <pt x="490" y="137" on="0"/>
        <pt x="451" y="39" on="0"/>
        <pt x="348" y="-8" on="0"/>
        <pt x="253" y="-8" on="1"/>
        <pt x="208" y="-8" on="0"/>
        <pt x="101" y="2" on="0"/>
        <pt x="63" y="11" on="1"/>
        <pt x="63" y="107" on="1"/>
      </contour>
    </TTGlyph>
    <TTGlyph name="five.dnom" xMin="43" yMin="-4" xMax="292" yMax="379">
      <contour>
        <pt x="118" y="61" on="0"/>
        <pt x="138" y="61" on="1"/>
        <pt x="172" y="61" on="0"/>
        <pt x="204" y="70" on="0"/>
        <pt x="217" y="93" on="0"/>
        <pt x="217" y="117" on="1"/>
        <pt x="217" y="142" on="0"/>
        <pt x="202" y="165" on="0"/>
        <pt x="168" y="173" on="0"/>
        <pt x="134" y="173" on="1"/>
        <pt x="109" y="173" on="0"/>
        <pt x="46" y="168" on="1"/>
        <pt x="46" y="379" on="1"/>
        <pt x="269" y="379" on="1"/>
        <pt x="269" y="313" on="1"/>
        <pt x="115" y="313" on="1"/>
        <pt x="115" y="234" on="1"/>
        <pt x="147" y="238" on="0"/>
        <pt x="179" y="238" on="1"/>
        <pt x="245" y="238" on="0"/>
        <pt x="292" y="181" on="0"/>
        <pt x="292" y="124" on="1"/>
        <pt x="292" y="78" on="0"/>
        <pt x="269" y="23" on="0"/>
        <pt x="210" y="-4" on="0"/>
        <pt x="154" y="-4" on="1"/>
        <pt x="96" y="-4" on="0"/>
        <pt x="43" y="6" on="1"/>
        <pt x="43" y="66" on="1"/>
      </contour>
    </TTGlyph>
    <TTGlyph name="five.numr" xMin="43" yMin="304" xMax="292" yMax="687">
      <contour>
        <pt x="118" y="369" on="0"/>
        <pt x="138" y="369" on="1"/>
        <pt x="172" y="369" on="0"/>
        <pt x="204" y="378" on="0"/>
        <pt x="217" y="401" on="0"/>
        <pt x="217" y="425" on="1"/>
        <pt x="217" y="450" on="0"/>
        <pt x="202" y="473" on="0"/>
        <pt x="168" y="481" on="0"/>
        <pt x="134" y="481" on="1"/>
        <pt x="109" y="481" on="0"/>
        <pt x="46" y="476" on="1"/>
        <pt x="46" y="687" on="1"/>
        <pt x="269" y="687" on="1"/>
        <pt x="269" y="621" on="1"/>
        <pt x="115" y="621" on="1"/>
        <pt x="115" y="542" on="1"/>
        <pt x="147" y="546" on="0"/>
        <pt x="179" y="546" on="1"/>
        <pt x="245" y="546" on="0"/>
        <pt x="292" y="489" on="0"/>
        <pt x="292" y="432" on="1"/>
        <pt x="292" y="386" on="0"/>
        <pt x="269" y="331" on="0"/>
        <pt x="210" y="304" on="0"/>
        <pt x="154" y="304" on="1"/>
        <pt x="96" y="304" on="0"/>
        <pt x="43" y="314" on="1"/>
        <pt x="43" y="374" on="1"/>
      </contour>
    </TTGlyph>
    <TTGlyph name="five.tnum" xMin="83" yMin="-8" xMax="509" yMax="688">
      <contour>
        <pt x="181" y="97" on="0"/>
        <pt x="254" y="97" on="1"/>
        <pt x="310" y="97" on="0"/>
        <pt x="366" y="116" on="0"/>
        <pt x="388" y="163" on="0"/>
        <pt x="388" y="209" on="1"/>
        <pt x="388" y="258" on="0"/>
        <pt x="364" y="304" on="0"/>
        <pt x="306" y="319" on="0"/>
        <pt x="247" y="319" on="1"/>
        <pt x="179" y="319" on="0"/>
        <pt x="89" y="308" on="1"/>
        <pt x="89" y="688" on="1"/>
        <pt x="467" y="688" on="1"/>
        <pt x="467" y="583" on="1"/>
        <pt x="199" y="583" on="1"/>
        <pt x="199" y="416" on="1"/>
        <pt x="221" y="419" on="0"/>
        <pt x="290" y="424" on="0"/>
        <pt x="313" y="424" on="1"/>
        <pt x="391" y="424" on="0"/>
        <pt x="477" y="377" on="0"/>
        <pt x="509" y="290" on="0"/>
        <pt x="509" y="221" on="1"/>
        <pt x="509" y="136" on="0"/>
        <pt x="470" y="39" on="0"/>
        <pt x="368" y="-8" on="0"/>
        <pt x="273" y="-8" on="1"/>
        <pt x="228" y="-8" on="0"/>
        <pt x="121" y="2" on="0"/>
        <pt x="83" y="11" on="1"/>
        <pt x="83" y="107" on="1"/>
      </contour>
    </TTGlyph>
    <TTGlyph name="fiveeighths" xMin="43" yMin="-4" xMax="766" yMax="688">
      <component glyphName=".ttfautohint" x="43" y="0" flags="0x0"/>
      <component glyphName="five.numr" x="0" y="0" flags="0x0"/>
      <component glyphName="fraction" x="324" y="0" flags="0x0"/>
      <component glyphName="eight.dnom" x="450" y="0" flags="0x0"/>
    </TTGlyph>
    <TTGlyph name="fl" xMin="21" yMin="0" xMax="526" yMax="743">
      <component glyphName=".ttfautohint" x="21" y="0" flags="0x0"/>
      <component glyphName="f" x="0" y="0" flags="0x0"/>
      <component glyphName="l" x="348" y="0" flags="0x0"/>
    </TTGlyph>
    <TTGlyph name="florin" xMin="-108" yMin="-193" xMax="420" yMax="742">
      <contour>
        <pt x="340" y="655" on="0"/>
        <pt x="295" y="639" on="0"/>
        <pt x="278" y="591" on="0"/>
        <pt x="261" y="510" on="1"/>
        <pt x="370" y="510" on="1"/>
        <pt x="351" y="414" on="1"/>
        <pt x="241" y="414" on="1"/>
        <pt x="156" y="11" on="1"/>
        <pt x="134" y="-88" on="0"/>
        <pt x="87" y="-169" on="0"/>
        <pt x="-4" y="-193" on="0"/>
        <pt x="-108" y="-193" on="1"/>
        <pt x="-89" y="-106" on="1"/>
        <pt x="-40" y="-106" on="0"/>
        <pt x="5" y="-96" on="0"/>
        <pt x="26" y="-67" on="0"/>
        <pt x="33" y="-33" on="1"/>
        <pt x="129" y="414" on="1"/>
        <pt x="45" y="414" on="1"/>
        <pt x="65" y="510" on="1"/>
        <pt x="149" y="510" on="1"/>
        <pt x="172" y="623" on="0"/>
        <pt x="220" y="714" on="0"/>
        <pt x="313" y="742" on="0"/>
        <pt x="420" y="742" on="1"/>
        <pt x="402" y="655" on="1"/>
      </contour>
    </TTGlyph>
    <TTGlyph name="four" xMin="33" yMin="0" xMax="530" yMax="688">
      <contour>
        <pt x="330" y="148" on="1"/>
        <pt x="33" y="148" on="1"/>
        <pt x="33" y="240" on="1"/>
        <pt x="244" y="688" on="1"/>
        <pt x="373" y="688" on="1"/>
        <pt x="162" y="252" on="1"/>
        <pt x="330" y="252" on="1"/>
        <pt x="360" y="453" on="1"/>
        <pt x="450" y="453" on="1"/>
        <pt x="450" y="252" on="1"/>
        <pt x="530" y="252" on="1"/>
        <pt x="530" y="148" on="1"/>
        <pt x="450" y="148" on="1"/>
        <pt x="450" y="0" on="1"/>
        <pt x="330" y="0" on="1"/>
      </contour>
    </TTGlyph>
    <TTGlyph name="four.dnom" xMin="21" yMin="0" xMax="311" yMax="379">
      <contour>
        <pt x="192" y="78" on="1"/>
        <pt x="21" y="78" on="1"/>
        <pt x="21" y="135" on="1"/>
        <pt x="133" y="379" on="1"/>
        <pt x="213" y="379" on="1"/>
        <pt x="100" y="142" on="1"/>
        <pt x="192" y="142" on="1"/>
        <pt x="212" y="241" on="1"/>
        <pt x="267" y="241" on="1"/>
        <pt x="267" y="142" on="1"/>
        <pt x="311" y="142" on="1"/>
        <pt x="311" y="78" on="1"/>
        <pt x="267" y="78" on="1"/>
        <pt x="267" y="0" on="1"/>
        <pt x="192" y="0" on="1"/>
      </contour>
    </TTGlyph>
    <TTGlyph name="four.numr" xMin="21" yMin="308" xMax="311" yMax="687">
      <component glyphName=".ttfautohint" x="21" y="308" flags="0x0"/>
      <component glyphName="four.dnom" x="0" y="308" flags="0x4"/>
    </TTGlyph>
    <TTGlyph name="four.ss01" xMin="33" yMin="0" xMax="530" yMax="688">
      <contour>
        <pt x="330" y="147" on="1"/>
        <pt x="33" y="147" on="1"/>
        <pt x="33" y="241" on="1"/>
        <pt x="275" y="688" on="1"/>
        <pt x="450" y="688" on="1"/>
        <pt x="450" y="253" on="1"/>
        <pt x="530" y="253" on="1"/>
        <pt x="530" y="147" on="1"/>
        <pt x="450" y="147" on="1"/>
        <pt x="450" y="0" on="1"/>
        <pt x="330" y="0" on="1"/>
      </contour>
      <contour>
        <pt x="330" y="253" on="1"/>
        <pt x="330" y="577" on="1"/>
        <pt x="326" y="577" on="1"/>
        <pt x="151" y="253" on="1"/>
      </contour>
    </TTGlyph>
    <TTGlyph name="four.tnum" xMin="37" yMin="0" xMax="536" yMax="688">
      <contour>
        <pt x="336" y="148" on="1"/>
        <pt x="37" y="148" on="1"/>
        <pt x="37" y="240" on="1"/>
        <pt x="249" y="688" on="1"/>
        <pt x="379" y="688" on="1"/>
        <pt x="165" y="252" on="1"/>
        <pt x="336" y="252" on="1"/>
        <pt x="366" y="453" on="1"/>
        <pt x="456" y="453" on="1"/>
        <pt x="456" y="252" on="1"/>
        <pt x="536" y="252" on="1"/>
        <pt x="536" y="148" on="1"/>
        <pt x="456" y="148" on="1"/>
        <pt x="456" y="0" on="1"/>
        <pt x="336" y="0" on="1"/>
      </contour>
    </TTGlyph>
    <TTGlyph name="fraction" xMin="-176" yMin="0" xMax="302" yMax="688">
      <contour>
        <pt x="225" y="688" on="1"/>
        <pt x="302" y="688" on="1"/>
        <pt x="-99" y="0" on="1"/>
        <pt x="-176" y="0" on="1"/>
      </contour>
    </TTGlyph>
    <TTGlyph name="g" xMin="49" yMin="-203" xMax="453" yMax="518">
      <contour>
        <pt x="195" y="-203" on="0"/>
        <pt x="107" y="-196" on="0"/>
        <pt x="82" y="-191" on="1"/>
        <pt x="82" y="-103" on="1"/>
        <pt x="156" y="-106" on="0"/>
        <pt x="212" y="-106" on="1"/>
        <pt x="274" y="-106" on="0"/>
        <pt x="325" y="-86" on="0"/>
        <pt x="340" y="-31" on="0"/>
        <pt x="340" y="36" on="1"/>
        <pt x="340" y="62" on="1"/>
        <pt x="334" y="62" on="1"/>
        <pt x="318" y="27" on="0"/>
        <pt x="253" y="-3" on="0"/>
        <pt x="205" y="-3" on="1"/>
        <pt x="145" y="-3" on="0"/>
        <pt x="78" y="44" on="0"/>
        <pt x="49" y="155" on="0"/>
        <pt x="49" y="256" on="1"/>
        <pt x="49" y="359" on="0"/>
        <pt x="79" y="471" on="0"/>
        <pt x="146" y="518" on="0"/>
        <pt x="206" y="518" on="1"/>
        <pt x="308" y="518" on="0"/>
        <pt x="338" y="446" on="1"/>
        <pt x="345" y="446" on="1"/>
        <pt x="349" y="510" on="1"/>
        <pt x="453" y="510" on="1"/>
        <pt x="453" y="64" on="1"/>
        <pt x="453" y="-42" on="0"/>
        <pt x="426" y="-149" on="0"/>
        <pt x="335" y="-203" on="0"/>
        <pt x="237" y="-203" on="1"/>
      </contour>
      <contour>
        <pt x="284" y="98" on="0"/>
        <pt x="319" y="116" on="0"/>
        <pt x="328" y="138" on="1"/>
        <pt x="336" y="155" on="0"/>
        <pt x="340" y="208" on="0"/>
        <pt x="340" y="256" on="1"/>
        <pt x="340" y="301" on="0"/>
        <pt x="336" y="352" on="0"/>
        <pt x="329" y="369" on="1"/>
        <pt x="321" y="394" on="0"/>
        <pt x="285" y="415" on="0"/>
        <pt x="252" y="415" on="1"/>
        <pt x="208" y="415" on="0"/>
        <pt x="173" y="396" on="0"/>
        <pt x="162" y="334" on="0"/>
        <pt x="162" y="256" on="1"/>
        <pt x="162" y="180" on="0"/>
        <pt x="174" y="118" on="0"/>
        <pt x="209" y="98" on="0"/>
        <pt x="252" y="98" on="1"/>
      </contour>
    </TTGlyph>
    <TTGlyph name="g_tilde.loclGUA" xMin="49" yMin="-203" xMax="453" yMax="744">
      <component glyphName=".ttfautohint" x="49" y="0" flags="0x0"/>
      <component glyphName="g" x="0" y="0" flags="0x0"/>
      <component glyphName="tildecomb" x="444" y="0" flags="0x0"/>
    </TTGlyph>
    <TTGlyph name="gbreve" xMin="49" yMin="-203" xMax="453" yMax="743">
      <component glyphName=".ttfautohint" x="49" y="0" flags="0x0"/>
      <component glyphName="g" x="0" y="0" flags="0x0"/>
      <component glyphName="uni0306" x="408" y="0" flags="0x0"/>
    </TTGlyph>
    <TTGlyph name="gcaron" xMin="49" yMin="-203" xMax="453" yMax="743">
      <component glyphName=".ttfautohint" x="49" y="0" flags="0x0"/>
      <component glyphName="g" x="0" y="0" flags="0x0"/>
      <component glyphName="uni030C" x="418" y="0" flags="0x0"/>
    </TTGlyph>
    <TTGlyph name="gcircumflex" xMin="49" yMin="-203" xMax="453" yMax="743">
      <component glyphName=".ttfautohint" x="49" y="0" flags="0x0"/>
      <component glyphName="g" x="0" y="0" flags="0x0"/>
      <component glyphName="uni0302" x="418" y="0" flags="0x0"/>
    </TTGlyph>
    <TTGlyph name="gcommaaccent" xMin="49" yMin="-203" xMax="453" yMax="827">
      <component glyphName=".ttfautohint" x="49" y="0" flags="0x0"/>
      <component glyphName="g" x="0" y="0" flags="0x0"/>
      <component glyphName="uni0312" x="642" y="0" flags="0x0"/>
    </TTGlyph>
    <TTGlyph name="gdotaccent" xMin="49" yMin="-203" xMax="453" yMax="730">
      <component glyphName=".ttfautohint" x="49" y="0" flags="0x0"/>
      <component glyphName="g" x="0" y="0" flags="0x0"/>
      <component glyphName="uni0307" x="325" y="0" flags="0x0"/>
    </TTGlyph>
    <TTGlyph name="germandbls" xMin="65" yMin="0" xMax="485" yMax="750">
      <contour>
        <pt x="244" y="0" on="1"/>
        <pt x="244" y="96" on="1"/>
        <pt x="274" y="96" on="1"/>
        <pt x="323" y="96" on="0"/>
        <pt x="359" y="111" on="0"/>
        <pt x="372" y="169" on="0"/>
        <pt x="372" y="243" on="1"/>
        <pt x="372" y="306" on="0"/>
        <pt x="356" y="363" on="0"/>
        <pt x="318" y="381" on="0"/>
        <pt x="277" y="381" on="1"/>
        <pt x="257" y="381" on="1"/>
        <pt x="257" y="477" on="1"/>
        <pt x="277" y="477" on="1"/>
        <pt x="314" y="477" on="0"/>
        <pt x="351" y="493" on="0"/>
        <pt x="364" y="528" on="0"/>
        <pt x="364" y="562" on="1"/>
        <pt x="364" y="601" on="0"/>
        <pt x="346" y="640" on="0"/>
        <pt x="307" y="654" on="0"/>
        <pt x="269" y="654" on="1"/>
        <pt x="233" y="654" on="0"/>
        <pt x="196" y="638" on="0"/>
        <pt x="178" y="590" on="0"/>
        <pt x="178" y="540" on="1"/>
        <pt x="178" y="0" on="1"/>
        <pt x="65" y="0" on="1"/>
        <pt x="65" y="550" on="1"/>
        <pt x="65" y="621" on="0"/>
        <pt x="104" y="708" on="0"/>
        <pt x="195" y="750" on="0"/>
        <pt x="273" y="750" on="1"/>
        <pt x="352" y="750" on="0"/>
        <pt x="442" y="711" on="0"/>
        <pt x="478" y="636" on="0"/>
        <pt x="478" y="577" on="1"/>
        <pt x="478" y="513" on="0"/>
        <pt x="428" y="445" on="0"/>
        <pt x="373" y="435" on="1"/>
        <pt x="373" y="431" on="1"/>
        <pt x="431" y="420" on="0"/>
        <pt x="485" y="334" on="0"/>
        <pt x="485" y="239" on="1"/>
        <pt x="485" y="149" on="0"/>
        <pt x="456" y="49" on="0"/>
        <pt x="373" y="0" on="0"/>
        <pt x="290" y="0" on="1"/>
      </contour>
    </TTGlyph>
    <TTGlyph name="grave" xMin="14" yMin="600" xMax="205" yMax="743">
      <contour>
        <pt x="14" y="738" on="1"/>
        <pt x="14" y="743" on="1"/>
        <pt x="130" y="743" on="1"/>
        <pt x="205" y="605" on="1"/>
        <pt x="205" y="600" on="1"/>
        <pt x="119" y="600" on="1"/>
      </contour>
    </TTGlyph>
    <TTGlyph name="gravecomb" xMin="-205" yMin="600" xMax="-14" yMax="743">
      <contour>
        <pt x="-205" y="738" on="1"/>
        <pt x="-205" y="743" on="1"/>
        <pt x="-89" y="743" on="1"/>
        <pt x="-14" y="605" on="1"/>
        <pt x="-14" y="600" on="1"/>
        <pt x="-100" y="600" on="1"/>
      </contour>
    </TTGlyph>
    <TTGlyph name="gravecomb.case" xMin="-205" yMin="745" xMax="-14" yMax="888">
      <contour>
        <pt x="-205" y="883" on="1"/>
        <pt x="-205" y="888" on="1"/>
        <pt x="-89" y="888" on="1"/>
        <pt x="-14" y="750" on="1"/>
        <pt x="-14" y="745" on="1"/>
        <pt x="-100" y="745" on="1"/>
      </contour>
    </TTGlyph>
    <TTGlyph name="greater" xMin="65" yMin="55" xMax="445" yMax="451">
      <contour>
        <pt x="65" y="150" on="1"/>
        <pt x="340" y="253" on="1"/>
        <pt x="65" y="355" on="1"/>
        <pt x="65" y="451" on="1"/>
        <pt x="445" y="302" on="1"/>
        <pt x="445" y="203" on="1"/>
        <pt x="65" y="55" on="1"/>
      </contour>
    </TTGlyph>
    <TTGlyph name="greaterequal" xMin="65" yMin="14" xMax="445" yMax="576">
      <contour>
        <pt x="65" y="275" on="1"/>
        <pt x="341" y="378" on="1"/>
        <pt x="65" y="480" on="1"/>
        <pt x="65" y="576" on="1"/>
        <pt x="445" y="427" on="1"/>
        <pt x="445" y="328" on="1"/>
        <pt x="65" y="180" on="1"/>
      </contour>
      <contour>
        <pt x="65" y="108" on="1"/>
        <pt x="445" y="108" on="1"/>
        <pt x="445" y="14" on="1"/>
        <pt x="65" y="14" on="1"/>
      </contour>
    </TTGlyph>
    <TTGlyph name="guillemotleft" xMin="34" yMin="107" xMax="392" yMax="510">
      <contour>
        <pt x="34" y="308" on="1"/>
        <pt x="146" y="510" on="1"/>
        <pt x="225" y="510" on="1"/>
        <pt x="133" y="308" on="1"/>
        <pt x="225" y="107" on="1"/>
        <pt x="146" y="107" on="1"/>
      </contour>
      <contour>
        <pt x="201" y="308" on="1"/>
        <pt x="313" y="510" on="1"/>
        <pt x="392" y="510" on="1"/>
        <pt x="300" y="308" on="1"/>
        <pt x="392" y="107" on="1"/>
        <pt x="313" y="107" on="1"/>
      </contour>
    </TTGlyph>
    <TTGlyph name="guillemotright" xMin="53" yMin="107" xMax="411" yMax="510">
      <contour>
        <pt x="145" y="308" on="1"/>
        <pt x="53" y="510" on="1"/>
        <pt x="132" y="510" on="1"/>
        <pt x="244" y="308" on="1"/>
        <pt x="132" y="107" on="1"/>
        <pt x="53" y="107" on="1"/>
      </contour>
      <contour>
        <pt x="312" y="308" on="1"/>
        <pt x="220" y="510" on="1"/>
        <pt x="299" y="510" on="1"/>
        <pt x="411" y="308" on="1"/>
        <pt x="299" y="107" on="1"/>
        <pt x="220" y="107" on="1"/>
      </contour>
    </TTGlyph>
    <TTGlyph name="guilsinglleft" xMin="34" yMin="107" xMax="224" yMax="510">
      <contour>
        <pt x="34" y="308" on="1"/>
        <pt x="146" y="510" on="1"/>
        <pt x="224" y="510" on="1"/>
        <pt x="133" y="308" on="1"/>
        <pt x="224" y="107" on="1"/>
        <pt x="146" y="107" on="1"/>
      </contour>
    </TTGlyph>
    <TTGlyph name="guilsinglright" xMin="53" yMin="107" xMax="245" yMax="510">
      <contour>
        <pt x="145" y="308" on="1"/>
        <pt x="53" y="510" on="1"/>
        <pt x="133" y="510" on="1"/>
        <pt x="245" y="308" on="1"/>
        <pt x="133" y="107" on="1"/>
        <pt x="53" y="107" on="1"/>
      </contour>
    </TTGlyph>
    <TTGlyph name="h" xMin="65" yMin="0" xMax="461" yMax="743">
      <contour>
        <pt x="348" y="276" on="1"/>
        <pt x="348" y="345" on="0"/>
        <pt x="338" y="399" on="0"/>
        <pt x="306" y="415" on="0"/>
        <pt x="267" y="415" on="1"/>
        <pt x="227" y="415" on="0"/>
        <pt x="189" y="386" on="0"/>
        <pt x="178" y="326" on="0"/>
        <pt x="178" y="266" on="1"/>
        <pt x="178" y="0" on="1"/>
        <pt x="65" y="0" on="1"/>
        <pt x="65" y="743" on="1"/>
        <pt x="178" y="743" on="1"/>
        <pt x="178" y="450" on="1"/>
        <pt x="184" y="450" on="1"/>
        <pt x="200" y="485" on="0"/>
        <pt x="266" y="518" on="0"/>
        <pt x="318" y="518" on="1"/>
        <pt x="378" y="518" on="0"/>
        <pt x="440" y="477" on="0"/>
        <pt x="461" y="396" on="0"/>
        <pt x="461" y="327" on="1"/>
        <pt x="461" y="0" on="1"/>
        <pt x="348" y="0" on="1"/>
      </contour>
    </TTGlyph>
    <TTGlyph name="hbar" xMin="10" yMin="0" xMax="461" yMax="743">
      <contour>
        <pt x="378" y="518" on="0"/>
        <pt x="440" y="477" on="0"/>
        <pt x="461" y="396" on="0"/>
        <pt x="461" y="327" on="1"/>
        <pt x="461" y="0" on="1"/>
        <pt x="348" y="0" on="1"/>
        <pt x="348" y="276" on="1"/>
        <pt x="348" y="345" on="0"/>
        <pt x="338" y="399" on="0"/>
        <pt x="306" y="415" on="0"/>
        <pt x="267" y="415" on="1"/>
        <pt x="227" y="415" on="0"/>
        <pt x="189" y="386" on="0"/>
        <pt x="178" y="326" on="0"/>
        <pt x="178" y="266" on="1"/>
        <pt x="178" y="0" on="1"/>
        <pt x="65" y="0" on="1"/>
        <pt x="65" y="593" on="1"/>
        <pt x="10" y="593" on="1"/>
        <pt x="10" y="688" on="1"/>
        <pt x="65" y="688" on="1"/>
        <pt x="65" y="743" on="1"/>
        <pt x="178" y="743" on="1"/>
        <pt x="178" y="688" on="1"/>
        <pt x="289" y="688" on="1"/>
        <pt x="289" y="593" on="1"/>
        <pt x="178" y="593" on="1"/>
        <pt x="178" y="450" on="1"/>
        <pt x="184" y="450" on="1"/>
        <pt x="200" y="485" on="0"/>
        <pt x="266" y="518" on="0"/>
        <pt x="318" y="518" on="1"/>
      </contour>
    </TTGlyph>
    <TTGlyph name="hcircumflex" xMin="-23" yMin="0" xMax="461" yMax="921">
      <component glyphName=".ttfautohint" x="0" y="0" flags="0x0"/>
      <component glyphName="h" x="0" y="0" flags="0x0"/>
      <component glyphName="uni0302" x="279" y="178" flags="0x4"/>
    </TTGlyph>
    <TTGlyph name="hookabovecomb" xMin="-261" yMin="609" xMax="-25" yMax="817">
      <contour>
        <pt x="-203" y="622" on="1"/>
        <pt x="-203" y="650" on="0"/>
        <pt x="-185" y="672" on="0"/>
        <pt x="-158" y="682" on="1"/>
        <pt x="-141" y="689" on="1"/>
        <pt x="-118" y="697" on="0"/>
        <pt x="-104" y="710" on="0"/>
        <pt x="-104" y="722" on="1"/>
        <pt x="-104" y="738" on="0"/>
        <pt x="-126" y="747" on="0"/>
        <pt x="-161" y="747" on="1"/>
        <pt x="-208" y="747" on="0"/>
        <pt x="-261" y="742" on="1"/>
        <pt x="-261" y="807" on="1"/>
        <pt x="-201" y="817" on="0"/>
        <pt x="-152" y="817" on="1"/>
        <pt x="-87" y="817" on="0"/>
        <pt x="-25" y="780" on="0"/>
        <pt x="-25" y="729" on="1"/>
        <pt x="-25" y="696" on="0"/>
        <pt x="-49" y="663" on="0"/>
        <pt x="-81" y="650" on="1"/>
        <pt x="-101" y="642" on="1"/>
        <pt x="-124" y="633" on="0"/>
        <pt x="-134" y="623" on="0"/>
        <pt x="-134" y="609" on="1"/>
        <pt x="-203" y="609" on="1"/>
      </contour>
    </TTGlyph>
    <TTGlyph name="hookabovecomb.case" xMin="-261" yMin="727" xMax="-25" yMax="935">
      <contour>
        <pt x="-203" y="740" on="1"/>
        <pt x="-203" y="768" on="0"/>
        <pt x="-185" y="790" on="0"/>
        <pt x="-158" y="800" on="1"/>
        <pt x="-141" y="807" on="1"/>
        <pt x="-118" y="815" on="0"/>
        <pt x="-104" y="828" on="0"/>
        <pt x="-104" y="840" on="1"/>
        <pt x="-104" y="856" on="0"/>
        <pt x="-126" y="865" on="0"/>
        <pt x="-161" y="865" on="1"/>
        <pt x="-208" y="865" on="0"/>
        <pt x="-261" y="860" on="1"/>
        <pt x="-261" y="925" on="1"/>
        <pt x="-201" y="935" on="0"/>
        <pt x="-152" y="935" on="1"/>
        <pt x="-87" y="935" on="0"/>
        <pt x="-25" y="898" on="0"/>
        <pt x="-25" y="847" on="1"/>
        <pt x="-25" y="814" on="0"/>
        <pt x="-49" y="781" on="0"/>
        <pt x="-81" y="768" on="1"/>
        <pt x="-101" y="760" on="1"/>
        <pt x="-124" y="751" on="0"/>
        <pt x="-134" y="741" on="0"/>
        <pt x="-134" y="727" on="1"/>
        <pt x="-203" y="727" on="1"/>
      </contour>
    </TTGlyph>
    <TTGlyph name="house" xMin="40" yMin="0" xMax="602" yMax="698">
      <contour>
        <pt x="40" y="397" on="1"/>
        <pt x="277" y="698" on="1"/>
        <pt x="366" y="698" on="1"/>
        <pt x="602" y="397" on="1"/>
        <pt x="602" y="0" on="1"/>
        <pt x="41" y="0" on="1"/>
      </contour>
      <contour>
        <pt x="508" y="78" on="1"/>
        <pt x="509" y="376" on="1"/>
        <pt x="321" y="611" on="1"/>
        <pt x="133" y="376" on="1"/>
        <pt x="134" y="78" on="1"/>
      </contour>
    </TTGlyph>
    <TTGlyph name="hungarumlaut" xMin="16" yMin="609" xMax="349" yMax="735">
      <contour>
        <pt x="16" y="613" on="1"/>
        <pt x="84" y="735" on="1"/>
        <pt x="181" y="735" on="1"/>
        <pt x="181" y="730" on="1"/>
        <pt x="88" y="609" on="1"/>
        <pt x="16" y="609" on="1"/>
      </contour>
      <contour>
        <pt x="184" y="613" on="1"/>
        <pt x="252" y="735" on="1"/>
        <pt x="349" y="735" on="1"/>
        <pt x="349" y="730" on="1"/>
        <pt x="256" y="609" on="1"/>
        <pt x="184" y="609" on="1"/>
      </contour>
    </TTGlyph>
    <TTGlyph name="hyphen" xMin="53" yMin="234" xMax="283" yMax="336">
      <contour>
        <pt x="53" y="336" on="1"/>
        <pt x="283" y="336" on="1"/>
        <pt x="283" y="234" on="1"/>
        <pt x="53" y="234" on="1"/>
      </contour>
    </TTGlyph>
    <TTGlyph name="i" xMin="64" yMin="0" xMax="180" yMax="743">
      <contour>
        <pt x="64" y="743" on="1"/>
        <pt x="180" y="743" on="1"/>
        <pt x="180" y="632" on="1"/>
        <pt x="64" y="632" on="1"/>
      </contour>
      <contour>
        <pt x="65" y="510" on="1"/>
        <pt x="178" y="510" on="1"/>
        <pt x="178" y="0" on="1"/>
        <pt x="65" y="0" on="1"/>
      </contour>
    </TTGlyph>
    <TTGlyph name="i.loclTRK" xMin="65" yMin="0" xMax="178" yMax="730">
      <component glyphName=".ttfautohint" x="65" y="0" flags="0x0"/>
      <component glyphName="dotlessi" x="0" y="0" flags="0x0"/>
      <component glyphName="uni0307" x="187" y="0" flags="0x0"/>
    </TTGlyph>
    <TTGlyph name="iacute" xMin="65" yMin="0" xMax="259" yMax="743">
      <component glyphName=".ttfautohint" x="65" y="0" flags="0x0"/>
      <component glyphName="dotlessi" x="0" y="0" flags="0x0"/>
      <component glyphName="acute" x="54" y="0" flags="0x0"/>
    </TTGlyph>
</ttFont>
